<svg width="24" height="24" viewBox="0 0 24 24" fill="none" xmlns="http://www.w3.org/2000/svg">
<g clip-path="url(#clip0_788_1846)">
<path d="M11.044 18.5341C10.7695 18.2595 10.3242 18.2595 10.0497 18.5341C9.77507 18.8088 9.77507 19.2539 10.0497 19.5284L10.2557 19.7344H7.03124V17.625C7.03124 17.2368 6.71648 16.9219 6.32811 16.9219H0.703124C0.314758 16.9219 0 17.2368 0 17.625V23.2969C0 23.6852 0.314758 24 0.703124 24H6.32811C6.71648 24 7.03124 23.6852 7.03124 23.2969V21.1406H10.2942L10.0417 21.4017C9.77159 21.6808 9.77891 22.1259 10.058 22.396C10.3376 22.6666 10.7827 22.658 11.0522 22.3797L12.4585 20.9266C12.7253 20.6506 12.7218 20.2117 12.4504 19.9404L11.044 18.5341ZM5.62499 22.5937H1.40625V18.3281H5.62499V22.5937Z" fill="#804524"/>
<path d="M23.2968 0H13.3593C12.971 0 12.6562 0.314758 12.6562 0.703124V3.56231C12.6562 3.38232 12.5876 3.20251 12.4502 3.06536L11.044 1.65912C10.7695 1.38446 10.3242 1.38446 10.0497 1.65912C9.77507 1.93359 9.77507 2.37872 10.0497 2.65338L10.2557 2.85937H7.03124V0.703124C7.03124 0.314758 6.71648 0 6.32811 0H0.703124C0.314758 0 0 0.314758 0 0.703124V6.37499C0 6.76335 0.314758 7.07811 0.703124 7.07811H6.32811C6.71648 7.07811 7.03124 6.76335 7.03124 6.37499V4.26562H10.2557L10.0497 4.47161C9.77507 4.74627 9.77507 5.1914 10.0497 5.46587C10.3242 5.74053 10.7695 5.74053 11.044 5.46587L12.4502 4.05962C12.5876 3.92248 12.6562 3.74267 12.6562 3.56268V6.37499C12.6562 6.76335 12.971 7.07811 13.3593 7.07811H23.2968C23.6852 7.07811 24 6.76335 24 6.37499V0.703124C24 0.314758 23.6852 0 23.2968 0ZM5.62499 5.67186H1.40625V1.40625H5.62499V5.67186ZM22.5937 5.67186H14.0625V1.40625H22.5937V5.67186Z" fill="#804524"/>
<path d="M23.2968 8.48438H13.3593C12.971 8.48438 12.6562 8.79913 12.6562 9.1875V11.9998C12.6562 11.8198 12.5876 11.64 12.4502 11.5029L11.044 10.0966C10.7695 9.82196 10.3242 9.82196 10.0497 10.0966C9.77507 10.3711 9.77507 10.8162 10.0497 11.0909L10.2557 11.2969H7.03124V9.1875C7.03124 8.79913 6.71648 8.48438 6.32811 8.48438H0.703124C0.314758 8.48438 0 8.79913 0 9.1875V14.8125C0 15.2009 0.314758 15.5156 0.703124 15.5156H6.32811C6.71648 15.5156 7.03124 15.2009 7.03124 14.8125V12.7031H10.2557L10.0497 12.9091C9.77507 13.1838 9.77507 13.6289 10.0497 13.9034C10.3242 14.178 10.7695 14.178 11.044 13.9034L12.4502 12.4971C12.5876 12.36 12.6562 12.1802 12.6562 12.0002V14.8125C12.6562 15.2009 12.971 15.5156 13.3593 15.5156H23.2968C23.6852 15.5156 24 15.2009 24 14.8125V9.1875C24 8.79913 23.6852 8.48438 23.2968 8.48438ZM5.62499 14.1094H1.40625V9.89062H5.62499V14.1094ZM22.5937 14.1094H14.0625V9.89062H22.5937V14.1094Z" fill="#804524"/>
<path d="M23.2969 16.9219H13.3594C12.971 16.9219 12.6562 17.2366 12.6562 17.625V23.2969C12.6562 23.6852 12.971 24 13.3594 24H23.2969C23.6852 24 24 23.6852 24 23.2969V17.625C24 17.2366 23.6852 16.9219 23.2969 16.9219ZM22.5937 22.5937H14.0625V18.3281H22.5937V22.5937Z" fill="#804524"/>
</g>
<defs>
<clipPath id="clip0_788_1846">
<rect width="24" height="24" fill="white"/>
</clipPath>
</defs>
</svg>
