<svg width="16" height="16" viewBox="0 0 16 16" fill="none" xmlns="http://www.w3.org/2000/svg">
<path d="M5.18421 10.6925C7.05705 7.58608 12.0927 3.99352 14.874 2.02294C15.0291 1.91304 15.235 1.9103 15.3935 2.01524C15.6495 2.1847 15.6713 2.55237 15.4368 2.75046C12.1 5.56906 8.12942 8.94115 6.93031 12.6557C6.88683 12.7904 6.78666 12.8975 6.65478 12.9489C6.04639 13.1857 5.11824 13.6629 4.56913 13.9949C4.33837 14.1344 4.03999 14.0489 3.91767 13.8086C3.067 12.1371 1.69939 10.0748 0.564836 9.14056C0.355654 8.96832 0.343543 8.64792 0.539401 8.46067C2.80648 6.29316 4.47853 9.26143 5.18398 10.6924L5.18421 10.6925Z" fill="#83CF8F"/>
</svg>
