<svg width="24" height="24" viewBox="0 0 24 24" fill="none" xmlns="http://www.w3.org/2000/svg">
<path d="M23.2969 1.45312H6.375C5.98669 1.45312 5.67188 1.76794 5.67188 2.15625V11.343C4.73095 11.5042 3.8633 11.9841 3.22758 12.7031H2.85938V12C2.85938 11.6117 2.54456 11.2969 2.15625 11.2969H0.703125C0.314812 11.2969 0 11.6117 0 12C0 12.3883 0.314812 12.7031 0.703125 12.7031H1.45312V21.1406H0.703125C0.314812 21.1406 0 21.4554 0 21.8438C0 22.2321 0.314812 22.5469 0.703125 22.5469H2.15625C2.54456 22.5469 2.85938 22.2321 2.85938 21.8438V21.1406H3.45305C7.93725 22.5599 7.7678 22.5469 7.96875 22.5469H17.625C19.0796 22.5469 20.0986 21.1023 19.6134 19.7344H23.2969C23.6852 19.7344 24 19.4196 24 19.0312V2.15625C24 1.76794 23.6852 1.45312 23.2969 1.45312ZM13.4062 2.85938H16.2188V6.375H13.4062V2.85938ZM18.3281 20.4375C18.3281 20.8252 18.0127 21.1406 17.625 21.1406H8.0782C3.59405 19.7214 3.7635 19.7344 3.5625 19.7344H2.85938V14.1094H3.5625C3.78581 14.1094 3.99586 14.0033 4.12838 13.8236C5.24198 12.3136 7.50712 12.3124 8.62158 13.8236C8.75414 14.0033 8.96419 14.1094 9.1875 14.1094H12.7031C13.0908 14.1094 13.4062 14.4248 13.4062 14.8125C13.4062 15.2002 13.0908 15.5156 12.7031 15.5156H8.48438C8.09606 15.5156 7.78125 15.8304 7.78125 16.2188C7.78125 18.1573 9.35836 19.7344 11.2969 19.7344H17.625C18.0127 19.7344 18.3281 20.0498 18.3281 20.4375ZM22.5938 18.3281C22.1675 18.3281 11.876 18.3281 11.2969 18.3281C10.3802 18.3281 9.59817 17.7404 9.30797 16.9219H12.7031C13.8662 16.9219 14.8125 15.9756 14.8125 14.8125C14.8125 13.6494 13.8662 12.7031 12.7031 12.7031H9.52242C8.88675 11.9841 8.01905 11.5042 7.07812 11.343V2.85938H12V7.07812C12 7.46644 12.3148 7.78125 12.7031 7.78125H16.9219C17.3102 7.78125 17.625 7.46644 17.625 7.07812V2.85938H22.5938V18.3281Z" fill="#5F361F"/>
</svg>
