<svg width="48" height="48" viewBox="0 0 48 48" fill="none" xmlns="http://www.w3.org/2000/svg">
<g clip-path="url(#clip0_185_251)">
<path d="M19.2181 5.98719C17.1863 4.29749 14.5749 3.28125 11.7257 3.28125C5.25001 3.28125 0 8.53126 0 15.007C0 18.8379 1.83728 22.2397 4.67872 24.3794L26.929 41.9942C28.9607 43.6839 31.5722 44.7001 34.4213 44.7001C40.897 44.7001 46.147 39.4501 46.147 32.9744C46.147 29.1431 44.3094 25.7417 41.4683 23.602L19.2181 5.98719Z" fill="url(#paint0_linear_185_251)"/>
<path d="M34.4213 44.6996C37.392 44.6996 40.1046 43.5941 42.1707 41.7725C38.3336 38.8794 32.6042 35.024 26.342 32.4081C15.1366 27.7276 16.8388 21.2028 10.3143 17.515C3.78992 13.8273 8.75392 16.2384 6.34278 12.2672C5.03724 10.1168 3.23292 9.13098 1.8523 8.67871C0.680055 10.5043 0 12.6759 0 15.0065C0 18.8374 1.83728 22.2392 4.67872 24.3789L26.929 41.9937C28.9607 43.6834 31.5722 44.6996 34.4213 44.6996Z" fill="url(#paint1_linear_185_251)"/>
<path d="M41.4684 23.602L19.2182 5.98719C17.1864 4.29749 14.575 3.28125 11.7258 3.28125C10.993 3.28125 10.2756 3.349 9.57983 3.47791C10.7993 5.55872 12.5136 7.95228 14.4684 9.1443C18.3455 11.5082 20.8042 14.629 25.2486 18.033C29.6933 21.4373 34.1376 23.2339 34.1376 23.2339L45.8743 35.4965C46.0523 34.6839 46.1472 33.8401 46.1472 32.9744C46.1472 29.1431 44.3095 25.7417 41.4684 23.602Z" fill="url(#paint2_linear_185_251)"/>
<path d="M30.3549 30.6101C30.3549 30.6101 24.7757 29.8535 20.5203 23.3288C16.2649 16.8036 9.36182 11.792 9.36182 11.792C9.36182 11.792 18.3454 14.5342 22.2224 19.5462C26.0995 24.5578 30.3549 30.6101 30.3549 30.6101Z" fill="url(#paint3_linear_185_251)"/>
<path d="M41.4684 23.6017L28.8872 13.6414C28.6037 13.6308 28.3393 13.6143 28.1009 13.5942C27.2055 13.518 26.5676 14.4566 26.9686 15.2612C27.1129 15.5505 27.3008 15.7849 27.5146 15.9771L37.0175 25.48C38.2402 26.8543 40.7096 26.4017 40.7096 26.4017C41.7489 26.2402 42.6798 25.9425 43.5089 25.5653C42.9102 24.8318 42.225 24.1715 41.4684 23.6017Z" fill="url(#paint4_linear_185_251)"/>
<path d="M46.147 32.9738C46.147 39.4499 41.1603 44.7786 35.0091 44.7786C27.7701 44.7786 23.8711 40.3954 23.8711 33.9197C23.8711 27.4436 28.8574 21.248 35.0091 21.248C41.1603 21.248 46.147 26.4981 46.147 32.9738Z" fill="url(#paint5_radial_185_251)"/>
<path d="M36.2337 44.6324C32.7327 44.3262 26.7275 41.0073 26.7275 36.3765C26.7275 28.7359 31.8596 26.1123 36.4472 26.2024C42.1418 26.3141 48.2626 33.6482 43.7794 39.478C41.476 42.4732 35.8832 43.0815 32.7715 40.0632C30.8763 38.2252 30.3834 34.9208 31.6271 32.9466C34.6311 28.1774 40.7553 30.8006 40.2818 34.288C40.2239 34.7161 40.102 35.0567 39.9331 35.3244C39.4083 36.1583 38.1845 35.4738 38.5196 34.54C38.5661 34.41 38.6005 34.266 38.6206 34.106C38.8989 31.8816 34.8142 31.1078 33.5145 33.0422C32.2149 34.9765 33.1432 38.0717 35.6496 38.7488C38.1563 39.426 41.7664 38.587 42.5303 36.3725C43.5678 33.3655 42.1165 28.3246 36.4472 28.0562C31.8633 27.839 28.2521 31.2268 28.2521 36.3769C28.2521 41.0073 32.7323 44.3262 36.2337 44.6324Z" fill="url(#paint6_linear_185_251)"/>
<path d="M35.6065 44.6328C32.1516 44.3139 26.2256 40.8557 26.2256 36.0305C26.2256 28.0691 31.2903 25.3353 35.8174 25.4291C41.4369 25.5455 47.4772 33.1873 43.053 39.262C40.7799 42.3828 35.2608 43.0168 32.1901 39.8721C30.3198 37.9564 29.8335 34.5133 31.0607 32.4563C34.0255 27.4868 40.0687 30.2202 39.6015 33.8541C39.544 34.3002 39.4239 34.655 39.2576 34.9341C38.7394 35.8028 37.5316 35.0897 37.8623 34.1167C37.9081 33.9812 37.9422 33.8311 37.9619 33.6648C38.2366 31.3467 34.2057 30.5403 32.9232 32.5559C31.6408 34.5715 32.5567 37.7968 35.0304 38.5021C37.5038 39.2078 41.0663 38.3336 41.8203 36.0261C42.8439 32.8928 41.4116 27.6403 35.817 27.3605C31.294 27.1342 27.7303 30.6644 27.7303 36.0305C27.7303 40.8557 32.1516 44.3139 35.6065 44.6328Z" fill="url(#paint7_linear_185_251)"/>
<path d="M36.6113 13.7163C36.6113 13.7163 44.256 7.14834 47.9577 19.3933C48.1122 19.9046 47.8324 20.4451 47.3278 20.6202C44.9038 21.4628 38.1959 22.8951 36.6113 13.7163Z" fill="url(#paint8_linear_185_251)"/>
<path d="M47.3281 20.6196C47.6076 20.5226 47.8178 20.3131 47.9236 20.0586C42.9537 16.4115 36.6113 13.7158 36.6113 13.7158C38.1959 22.8945 44.9038 21.4623 47.3281 20.6196Z" fill="url(#paint9_linear_185_251)"/>
<path d="M44.0388 18.8916C43.9938 18.7986 43.9557 18.7023 43.9165 18.6074C43.877 18.5129 43.8378 18.4192 43.8037 18.3232C43.7678 18.228 43.7455 18.1273 43.7217 18.0284C43.6983 17.9296 43.6605 17.8384 43.6082 17.752C43.5547 17.6666 43.4976 17.5835 43.4287 17.5015C43.5543 17.5623 43.6803 17.6227 43.8063 17.6831L44.4179 17.9863C44.6226 18.0867 44.8192 18.1984 45.0225 18.3016C45.4246 18.5151 45.8157 18.7426 46.1925 18.9974L46.2621 18.9176L46.0079 18.6807L45.8801 18.5617C45.8366 18.5232 45.7912 18.488 45.7465 18.4511C45.5659 18.3082 45.3883 18.1559 45.2008 18.0226C44.8317 17.7439 44.4505 17.4857 44.0696 17.2246C43.9949 17.1763 43.9202 17.1279 43.8458 17.0796C43.9194 17.0715 43.992 17.0584 44.063 17.0335C44.1589 17.0001 44.256 16.9642 44.3556 16.943C44.4545 16.9199 44.5548 16.902 44.6555 16.884C44.7562 16.8657 44.858 16.8456 44.9606 16.8331C45.166 16.7987 45.3737 16.7833 45.5872 16.7617L45.5952 16.7035C45.3916 16.6328 45.1807 16.5772 44.9657 16.5394C44.8584 16.5197 44.75 16.5072 44.6409 16.4933C44.5321 16.4852 44.4226 16.4772 44.3128 16.475C44.2025 16.4717 44.0912 16.4622 43.9791 16.4578C43.8674 16.4556 43.7576 16.4721 43.6528 16.5116C43.6323 16.5197 43.6118 16.5277 43.5913 16.5365C43.3701 16.6317 43.1156 16.6086 42.9105 16.4819L42.9069 16.4794C42.5502 16.2589 42.1895 16.0465 41.8295 15.8319C41.9327 15.8187 42.0287 15.7971 42.1235 15.7715C42.2206 15.7433 42.3103 15.7023 42.3949 15.6455C42.4791 15.5891 42.5641 15.5302 42.6553 15.4847C42.7454 15.4375 42.838 15.395 42.931 15.3522C43.0241 15.3093 43.1174 15.2647 43.2138 15.2269C43.4038 15.142 43.6012 15.0753 43.8023 15.001L43.7953 14.9424C43.5807 14.9252 43.3624 14.9237 43.1453 14.9413C43.0361 14.9486 42.9285 14.9636 42.8193 14.9779C42.7117 14.9973 42.6036 15.0171 42.4967 15.0424C42.3894 15.0665 42.2792 15.0852 42.1697 15.109C42.0609 15.135 41.9584 15.1782 41.8668 15.2427C41.8269 15.2716 41.7874 15.3024 41.7493 15.3353C41.564 15.4957 41.2926 15.5096 41.0835 15.3815C40.9041 15.2716 40.7246 15.161 40.5444 15.0522C40.3163 14.9142 40.0819 14.7882 39.8431 14.6714C39.9318 14.6578 40.0156 14.6388 40.0984 14.6161C40.1954 14.5883 40.2852 14.5472 40.3694 14.4901C40.454 14.4337 40.5389 14.3748 40.6301 14.3297C40.7199 14.2821 40.8125 14.24 40.9059 14.1971C40.9985 14.1543 41.0923 14.1093 41.1882 14.0719C41.3783 13.9869 41.5757 13.9203 41.7771 13.8459L41.7701 13.7874C41.5555 13.7698 41.3373 13.7687 41.1198 13.7859C41.011 13.7936 40.903 13.8086 40.7938 13.8229C40.6865 13.8423 40.5781 13.8617 40.4712 13.887C40.3643 13.9115 40.254 13.9302 40.1442 13.954C40.0358 13.9796 39.9332 14.0232 39.8417 14.0876C39.7516 14.1525 39.6648 14.2264 39.5897 14.3158C39.5037 14.418 39.3645 14.4572 39.24 14.4088C38.917 14.2847 38.3314 14.0642 38.0117 13.9686C37.566 13.8386 37.1127 13.7247 36.634 13.668L36.5894 13.7639C36.9384 14.0946 37.3093 14.3762 37.6873 14.6421C38.0659 14.9065 38.453 15.1519 38.8478 15.3807C38.8547 15.3848 38.8617 15.3888 38.8687 15.3928C38.9961 15.4668 39.0503 15.6169 39.0096 15.7587C38.9796 15.8627 38.9661 15.9681 38.9606 16.0718C38.9562 16.1838 38.9749 16.2933 39.0118 16.3988C39.0514 16.5039 39.0953 16.6065 39.1327 16.7097C39.1693 16.8134 39.2111 16.9152 39.2532 17.0159C39.3001 17.1155 39.3458 17.2144 39.3986 17.3099C39.5015 17.5022 39.6205 17.6849 39.7512 17.856L39.8043 17.8303C39.7578 17.6209 39.7073 17.4187 39.6758 17.2129C39.6556 17.1118 39.6425 17.0089 39.6285 16.9075C39.6139 16.806 39.5996 16.7053 39.5905 16.6039C39.5795 16.5028 39.5831 16.3995 39.585 16.2977C39.5868 16.1963 39.5729 16.0981 39.544 16.0015C39.511 15.8971 39.4718 15.7938 39.4191 15.6884C39.6333 15.7949 39.8508 15.8942 40.072 15.9865C40.2493 16.0586 40.4873 16.1586 40.6961 16.2472C40.918 16.3413 41.0612 16.5665 41.0385 16.8068C41.0271 16.924 41.0333 17.0422 41.0275 17.1503C41.0231 17.262 41.0418 17.3715 41.0787 17.4769C41.1183 17.582 41.1622 17.6849 41.1996 17.7882C41.2362 17.8919 41.2783 17.9937 41.3201 18.0944C41.367 18.1936 41.4127 18.2925 41.4655 18.3884C41.5684 18.5803 41.6874 18.7634 41.8185 18.9345L41.8712 18.9088C41.8247 18.6993 41.7742 18.4972 41.7427 18.291C41.7225 18.1899 41.7094 18.087 41.6954 17.9856C41.6808 17.8842 41.6665 17.7835 41.6577 17.682C41.6464 17.5809 41.65 17.4777 41.6519 17.3762C41.6537 17.2744 41.6398 17.1766 41.6108 17.08C41.5526 16.8961 41.4768 16.7152 41.3347 16.52C41.7471 16.7116 42.162 16.8998 42.5711 17.0972L42.5872 17.1045C42.8388 17.2191 43.0167 17.4608 43.0306 17.7366C43.0343 17.8146 43.0457 17.8911 43.0607 17.9655C43.0841 18.075 43.1299 18.1764 43.1921 18.2694C43.2562 18.361 43.3247 18.4496 43.387 18.5404C43.4481 18.6316 43.5144 18.7195 43.58 18.8066C43.6506 18.8909 43.7195 18.9755 43.7946 19.0549C43.9425 19.215 44.1033 19.3622 44.2728 19.4951L44.3175 19.457C44.2205 19.2659 44.1209 19.0828 44.0388 18.8916Z" fill="url(#paint10_linear_185_251)"/>
<path d="M28.1009 13.5944C30.3249 13.783 34.6942 13.6929 38.0026 10.7464C38.1886 10.5809 38.4449 10.5062 38.6877 10.5626C38.9855 10.6321 39.2169 10.8867 38.6768 11.6975C37.7312 13.1158 35.2725 16.0473 31.0171 16.7091C31.0171 16.7091 27.9695 17.269 26.9686 15.2614C26.5676 14.4569 27.2055 13.5186 28.1009 13.5944Z" fill="url(#paint11_linear_185_251)"/>
<path d="M33.4255 13.254C33.4255 13.254 28.4421 10.5993 34.081 6.17656C34.3165 5.99199 34.6556 6.02824 34.8497 6.25566C35.7824 7.3499 37.8944 10.5601 33.4255 13.254Z" fill="url(#paint12_linear_185_251)"/>
<path d="M34.8497 6.25525C34.7421 6.12891 34.5901 6.06189 34.4355 6.05859C33.5427 9.39478 33.4255 13.2536 33.4255 13.2536C37.8944 10.5597 35.7825 7.34949 34.8497 6.25525Z" fill="url(#paint13_linear_185_251)"/>
</g>
<defs>
<linearGradient id="paint0_linear_185_251" x1="24.2431" y1="22.2167" x2="15.7328" y2="35.124" gradientUnits="userSpaceOnUse">
<stop stop-color="#C08552"/>
<stop offset="1" stop-color="#895738"/>
</linearGradient>
<linearGradient id="paint1_linear_185_251" x1="17.1567" y1="30.02" x2="32.2869" y2="15.0789" gradientUnits="userSpaceOnUse">
<stop stop-color="#895738" stop-opacity="0"/>
<stop offset="1" stop-color="#5E3023"/>
</linearGradient>
<linearGradient id="paint2_linear_185_251" x1="29.601" y1="16.263" x2="23.1707" y2="27.3269" gradientUnits="userSpaceOnUse">
<stop stop-color="#895738" stop-opacity="0"/>
<stop offset="1" stop-color="#5E3023"/>
</linearGradient>
<linearGradient id="paint3_linear_185_251" x1="20.6027" y1="19.9203" x2="16.8028" y2="26.4583" gradientUnits="userSpaceOnUse">
<stop stop-color="#895738" stop-opacity="0"/>
<stop offset="1" stop-color="#5E3023"/>
</linearGradient>
<linearGradient id="paint4_linear_185_251" x1="35.536" y1="21.1287" x2="31.4697" y2="11.3887" gradientUnits="userSpaceOnUse">
<stop stop-color="#895738" stop-opacity="0"/>
<stop offset="1" stop-color="#5E3023"/>
</linearGradient>
<radialGradient id="paint5_radial_185_251" cx="0" cy="0" r="1" gradientUnits="userSpaceOnUse" gradientTransform="translate(35.009 33.0133) scale(11.4559 11.4559)">
<stop stop-color="#F2E9DC"/>
<stop offset="0.4935" stop-color="#F1E7DA"/>
<stop offset="0.6712" stop-color="#EFE2D3"/>
<stop offset="0.7979" stop-color="#EAD8C8"/>
<stop offset="0.8997" stop-color="#E4CAB7"/>
<stop offset="0.9865" stop-color="#DCB7A1"/>
<stop offset="1" stop-color="#DAB49D"/>
</radialGradient>
<linearGradient id="paint6_linear_185_251" x1="43.6676" y1="39.3764" x2="25.2891" y2="29.3994" gradientUnits="userSpaceOnUse">
<stop stop-color="#DAB49D" stop-opacity="0"/>
<stop offset="0.4385" stop-color="#CE9E7A" stop-opacity="0.439216"/>
<stop offset="1" stop-color="#C08552"/>
</linearGradient>
<linearGradient id="paint7_linear_185_251" x1="35.992" y1="32.1148" x2="32.1662" y2="50.2519" gradientUnits="userSpaceOnUse">
<stop stop-color="#DAB49D"/>
<stop offset="0.9668" stop-color="#C08552"/>
</linearGradient>
<linearGradient id="paint8_linear_185_251" x1="42.8608" y1="15.8991" x2="38.7994" y2="22.6689" gradientUnits="userSpaceOnUse">
<stop stop-color="#ACC130"/>
<stop offset="1" stop-color="#97A03B"/>
</linearGradient>
<linearGradient id="paint9_linear_185_251" x1="41.0328" y1="19.8087" x2="43.4543" y2="14.0547" gradientUnits="userSpaceOnUse">
<stop stop-color="#97A03B" stop-opacity="0"/>
<stop offset="1" stop-color="#575C55"/>
</linearGradient>
<linearGradient id="paint10_linear_185_251" x1="42.3032" y1="14.9828" x2="41.2133" y2="16.6387" gradientUnits="userSpaceOnUse">
<stop stop-color="#97A03B"/>
<stop offset="1" stop-color="#6C7D47"/>
</linearGradient>
<linearGradient id="paint11_linear_185_251" x1="32.9737" y1="13.0532" x2="34.2504" y2="17.3558" gradientUnits="userSpaceOnUse">
<stop stop-color="#C08552"/>
<stop offset="1" stop-color="#895738"/>
</linearGradient>
<linearGradient id="paint12_linear_185_251" x1="32.9585" y1="8.20126" x2="34.9889" y2="11.7885" gradientUnits="userSpaceOnUse">
<stop stop-color="#FFE548"/>
<stop offset="0.9688" stop-color="#97A03B"/>
</linearGradient>
<linearGradient id="paint13_linear_185_251" x1="34.8622" y1="9.49346" x2="31.1095" y2="10.1486" gradientUnits="userSpaceOnUse">
<stop stop-color="#97A03B" stop-opacity="0"/>
<stop offset="1" stop-color="#575C55"/>
</linearGradient>
<clipPath id="clip0_185_251">
<rect width="48" height="48" fill="white"/>
</clipPath>
</defs>
</svg>
