<svg width="24" height="24" viewBox="0 0 24 24" fill="none" xmlns="http://www.w3.org/2000/svg">
<path d="M6.66161 17.5888C7.8199 18.6925 8.48416 20.2599 8.48416 21.8908C8.48416 23.0539 9.43043 24.0002 10.5935 24.0002H13.406C14.5691 24.0002 15.5154 23.0539 15.5154 21.889C15.5154 20.2598 16.1796 18.6925 17.3376 17.5892C18.8831 16.1165 19.7342 14.1317 19.7342 12.0002C19.7342 7.12567 15.272 3.40914 10.3401 4.43912C7.30479 5.07296 4.91079 7.56306 4.38283 10.6354C3.92186 13.3185 4.84919 15.8616 6.66161 17.5888ZM5.76874 10.8735C6.19975 8.36514 8.15238 6.33254 10.6275 5.81565C14.6676 4.97204 18.3279 7.99984 18.3279 12.0002C18.3279 13.7432 17.6317 15.3665 16.3675 16.571C14.9323 17.9386 14.1092 19.8768 14.1092 21.8908C14.1092 22.2785 13.7937 22.5939 13.406 22.5939H10.5935C10.2058 22.5939 9.89041 22.2785 9.89041 21.8891C9.89041 19.8771 9.06719 17.9387 7.63174 16.5707C6.07985 15.0918 5.40082 13.0152 5.76874 10.8735Z" fill="#5F361F"/>
<path d="M10.5938 18.3281H13.4062C13.7946 18.3281 14.1094 18.0133 14.1094 17.625V12C14.1094 11.8908 14.084 11.7832 14.0351 11.6856L12.6289 8.87306C12.5098 8.63484 12.2663 8.48438 12 8.48438C11.7337 8.48438 11.4902 8.63484 11.3711 8.87306L9.96487 11.6856C9.91603 11.7832 9.89062 11.8908 9.89062 12V17.625C9.89062 18.0133 10.2054 18.3281 10.5938 18.3281ZM11.2969 16.9219V14.1094H12.7031V16.9219H11.2969ZM12 10.7597L12.7031 12.166V12.7031H11.2969V12.166L12 10.7597Z" fill="#5F361F"/>
<path d="M7.42982 4.0842C7.76614 3.89004 7.88136 3.46001 7.68716 3.12373L6.98403 1.90587C6.78988 1.56954 6.35985 1.45437 6.02357 1.64853C5.68724 1.84268 5.57202 2.27271 5.76622 2.60899L6.46935 3.82685C6.66411 4.16421 7.09447 4.27779 7.42982 4.0842Z" fill="#5F361F"/>
<path d="M3.1237 16.3131L1.90589 17.0162C1.56956 17.2103 1.45434 17.6404 1.64855 17.9766C1.84331 18.314 2.27367 18.4276 2.60901 18.234L3.82683 17.5309C4.16316 17.3367 4.27837 16.9067 4.08417 16.5704C3.88997 16.2341 3.45998 16.1189 3.1237 16.3131Z" fill="#5F361F"/>
<path d="M20.8766 7.68714L22.0944 6.98401C22.4307 6.78986 22.546 6.35983 22.3517 6.02354C22.1575 5.68722 21.7275 5.57205 21.3913 5.7662L20.1735 6.46933C19.8371 6.66348 19.7219 7.09351 19.9161 7.4298C20.1109 7.76715 20.5412 7.88073 20.8766 7.68714Z" fill="#5F361F"/>
<path d="M20.1735 17.5309L21.3913 18.2341C21.7261 18.4274 22.1567 18.3144 22.3517 17.9767C22.546 17.6404 22.4307 17.2104 22.0944 17.0162L20.8766 16.3131C20.5402 16.1189 20.1102 16.2341 19.9161 16.5705C19.7219 16.9067 19.8371 17.3368 20.1735 17.5309Z" fill="#5F361F"/>
<path d="M3.82683 6.46937L2.60901 5.76624C2.27269 5.57199 1.8427 5.68726 1.64855 6.02359C1.45434 6.35987 1.56956 6.7899 1.90589 6.98406L3.1237 7.68718C3.45853 7.88054 3.88917 7.76757 4.08417 7.42984C4.27837 7.09356 4.16316 6.66352 3.82683 6.46937Z" fill="#5F361F"/>
<path d="M17.5309 3.8264L18.234 2.60854C18.4282 2.27226 18.313 1.84222 17.9767 1.64807C17.6403 1.45382 17.2104 1.56913 17.0162 1.90541L16.3131 3.12327C16.1189 3.45955 16.2341 3.88958 16.5704 4.08374C16.9053 4.2771 17.3359 4.16413 17.5309 3.8264Z" fill="#5F361F"/>
<path d="M12.7031 2.15625V0.703125C12.7031 0.314812 12.3883 0 12 0C11.6117 0 11.2969 0.314812 11.2969 0.703125V2.15625C11.2969 2.54456 11.6117 2.85938 12 2.85938C12.3883 2.85938 12.7031 2.54456 12.7031 2.15625Z" fill="#5F361F"/>
<path d="M0.703125 12.7031H2.15625C2.54456 12.7031 2.85938 12.3883 2.85938 12C2.85938 11.6117 2.54456 11.2969 2.15625 11.2969H0.703125C0.314812 11.2969 0 11.6117 0 12C0 12.3883 0.314812 12.7031 0.703125 12.7031Z" fill="#5F361F"/>
<path d="M24 12C24 11.6117 23.6852 11.2969 23.2969 11.2969H21.8438C21.4554 11.2969 21.1406 11.6117 21.1406 12C21.1406 12.3883 21.4554 12.7031 21.8438 12.7031H23.2969C23.6852 12.7031 24 12.3883 24 12Z" fill="#5F361F"/>
</svg>
