<svg width="24" height="24" viewBox="0 0 24 24" fill="none" xmlns="http://www.w3.org/2000/svg">
<path d="M23.9069 10.4037L21.4284 6.07781C21.3438 5.93006 21.2122 5.82346 21.0619 5.76792C21.0613 5.76768 21.0609 5.76735 21.0603 5.76717L12.3185 2.56345C12.1635 2.50664 11.9936 2.50621 11.8383 2.56209L2.9434 5.76581C2.94317 5.7659 2.94303 5.76609 2.94279 5.76618C2.79049 5.82121 2.65714 5.92856 2.57159 6.07776L0.093026 10.4037C-0.00878649 10.5814 -0.0280521 10.7947 0.0402916 10.9878C0.108635 11.1809 0.257745 11.3346 0.448667 11.4087L2.47854 12.1966V17.5736C2.47854 17.8701 2.66449 18.1347 2.9434 18.2351L11.7706 21.4145C11.8607 21.4564 11.9607 21.4804 12.0665 21.4804C12.0681 21.4804 12.0696 21.4802 12.0711 21.4802C12.073 21.4802 12.0747 21.4804 12.0765 21.4804C12.1572 21.4804 12.2378 21.4665 12.3148 21.4388L21.2097 18.2351C21.4886 18.1347 21.6745 17.8701 21.6745 17.5736V12.1372L23.5513 11.4087C23.7422 11.3346 23.8914 11.1809 23.9597 10.9878C24.0281 10.7947 24.0088 10.5814 23.9069 10.4037ZM12.0745 3.97171L18.7784 6.42857L12.0647 8.89837L5.25101 6.42937L12.0745 3.97171ZM3.49789 7.28981L11.0359 10.0213L9.14529 13.2761L1.71954 10.3935L3.49789 7.28981ZM3.88479 12.7425L9.19681 14.8046C9.28006 14.8369 9.36607 14.8523 9.45106 14.8523C9.69542 14.8523 9.93021 14.7244 10.0593 14.5023L11.3634 12.2572V19.7731L3.88479 17.0796V12.7425ZM20.2683 17.0796L12.7696 19.7804V12.3785L13.933 14.4886C14.103 14.797 14.475 14.932 14.8032 14.8046L20.2683 12.6831V17.0796ZM14.8676 13.2711L13.0774 10.0242L20.5036 7.29234L22.2804 10.3935L14.8676 13.2711Z" fill="#804524"/>
</svg>
