<svg width="24" height="24" viewBox="0 0 24 24" fill="none" xmlns="http://www.w3.org/2000/svg">
<g clip-path="url(#clip0_788_1855)">
<path d="M21.414 11.2969H18.0656C18.2479 10.9429 18.3516 10.5421 18.3516 10.1173V2.586C18.3516 1.15997 17.1916 0 15.7656 0H8.23444C6.80841 0 5.64844 1.15997 5.64844 2.586V10.1173C5.64844 10.5421 5.75208 10.9429 5.93445 11.2969H2.586C1.15997 11.2969 0 12.4568 0 13.8829V21.4142C0 22.84 1.15997 24 2.586 24H10.1171C10.8587 24 11.528 23.6858 12 23.1839C12.472 23.6858 13.1413 24 13.8829 24H21.414C22.84 24 24 22.84 24 21.4142V13.8829C24 12.4568 22.84 11.2969 21.414 11.2969ZM22.5938 13.8829V20.3344H12.7031V13.8829C12.7031 13.2323 13.2323 12.7031 13.8829 12.7031H15.0624V15.0125C15.0624 15.4008 15.3774 15.7156 15.7656 15.7156H19.5313C19.9195 15.7156 20.2344 15.4008 20.2344 15.0125V12.7031H21.414C22.0646 12.7031 22.5938 13.2323 22.5938 13.8829ZM18.8282 14.3093H16.4687V12.7031H18.8282V14.3093ZM13.1797 1.40625V3.01245H10.8203V1.40625H13.1797ZM8.23444 1.40625H9.414V3.71558C9.414 4.10394 9.72894 4.4187 10.1171 4.4187H13.8829C14.2711 4.4187 14.586 4.10394 14.586 3.71558V1.40625H15.7656C16.4161 1.40625 16.9453 1.93542 16.9453 2.586V9.03754H7.05469V2.586C7.05469 1.93542 7.58386 1.40625 8.23444 1.40625ZM7.10101 10.4438H16.899C16.7569 10.9358 16.3028 11.2969 15.7656 11.2969H8.23444C7.6972 11.2969 7.2431 10.9358 7.10101 10.4438ZM7.53131 12.7031V14.3093H5.17181V12.7031H7.53131ZM2.586 12.7031H3.76556V15.0125C3.76556 15.4008 4.08051 15.7156 4.46869 15.7156H8.23444C8.62262 15.7156 8.93756 15.4008 8.93756 15.0125V12.7031H10.1171C10.7677 12.7031 11.2969 13.2323 11.2969 13.8829V20.3344H1.40625V13.8829C1.40625 13.2323 1.93542 12.7031 2.586 12.7031ZM10.1171 22.5938H2.586C2.04877 22.5938 1.59467 22.2327 1.45258 21.7407H11.2505C11.1085 22.2327 10.6544 22.5938 10.1171 22.5938ZM21.414 22.5938H13.8829C13.3456 22.5938 12.8915 22.2327 12.7495 21.7407H22.5474C22.4053 22.2327 21.9512 22.5938 21.414 22.5938Z" fill="#804524"/>
</g>
<defs>
<clipPath id="clip0_788_1855">
<rect width="24" height="24" fill="white"/>
</clipPath>
</defs>
</svg>
