<svg width="24" height="24" viewBox="0 0 24 24" fill="none" xmlns="http://www.w3.org/2000/svg">
<g clip-path="url(#clip0_788_1918)">
<path d="M23.2969 16.0312H22.125V8.29688C22.125 7.90856 21.8102 7.59375 21.4219 7.59375H20.25V1.73438C20.25 1.34606 19.9352 1.03125 19.5469 1.03125H10.1719C9.78356 1.03125 9.46875 1.34606 9.46875 1.73438V7.59375H8.29688C7.90856 7.59375 7.59375 7.90856 7.59375 8.29688V16.0312H6.1875V2.57812C6.1875 1.15655 5.03095 0 3.60938 0H0.703125C0.314812 0 0 0.314812 0 0.703125C0 1.09144 0.314812 1.40625 0.703125 1.40625H3.60938C4.25555 1.40625 4.78125 1.93195 4.78125 2.57812V19.5469C4.78125 19.9352 5.09606 20.25 5.48438 20.25H6.93914C6.75872 20.6019 6.65625 21 6.65625 21.4219C6.65625 22.8435 7.8128 24 9.23438 24C10.656 24 11.8125 22.8435 11.8125 21.4219C11.8125 21 11.71 20.6019 11.5296 20.25H17.2516C17.0712 20.6019 16.9688 21 16.9688 21.4219C16.9688 22.8435 18.1253 24 19.5469 24C20.9685 24 22.125 22.8435 22.125 21.4219C22.125 21 22.0225 20.6019 21.8421 20.25H23.2969C23.6852 20.25 24 19.9352 24 19.5469V16.7344C24 16.3461 23.6852 16.0312 23.2969 16.0312ZM15.5625 2.4375V3.84375H14.1562V2.4375H15.5625ZM10.875 2.4375H12.75V4.54688C12.75 4.93519 13.0648 5.25 13.4531 5.25H16.2656C16.6539 5.25 16.9688 4.93519 16.9688 4.54688V2.4375H18.8438V7.59375H10.875V2.4375ZM13.6875 9H16.0312V11.3438H13.6875V9ZM9 9H12.2812V12.0469C12.2812 12.4352 12.5961 12.75 12.9844 12.75H16.7344C17.1227 12.75 17.4375 12.4352 17.4375 12.0469V9H20.7188V16.0312H9V9ZM10.4062 21.4219C10.4062 22.068 9.88055 22.5938 9.23438 22.5938C8.5882 22.5938 8.0625 22.068 8.0625 21.4219C8.0625 20.7757 8.5882 20.25 9.23438 20.25C9.88055 20.25 10.4062 20.7757 10.4062 21.4219ZM20.7188 21.4219C20.7188 22.068 20.193 22.5938 19.5469 22.5938C18.9007 22.5938 18.375 22.068 18.375 21.4219C18.375 20.7757 18.9007 20.25 19.5469 20.25C20.193 20.25 20.7188 20.7757 20.7188 21.4219ZM22.5938 18.8438H6.1875V17.4375H22.5938V18.8438Z" fill="#804524"/>
</g>
<defs>
<clipPath id="clip0_788_1918">
<rect width="24" height="24" fill="white"/>
</clipPath>
</defs>
</svg>
