<svg width="24" height="24" viewBox="0 0 24 24" fill="none" xmlns="http://www.w3.org/2000/svg">
<g clip-path="url(#clip0_234_90)">
<path d="M0.703125 24H16.2242C16.6125 24 16.9273 23.6852 16.9273 23.2969V6.10805C16.9273 5.98542 16.8953 5.86486 16.8343 5.7585L13.7373 0.353578C13.612 0.134906 13.3793 0 13.1273 0H3.80006C3.54806 0 3.31528 0.134906 3.18998 0.353578L0.0930469 5.7585C0.0320625 5.86491 0 5.98542 0 6.10805V23.2969C0 23.6852 0.314812 24 0.703125 24ZM1.40625 6.29522L4.20755 1.40625H12.7198L15.5211 6.29522V22.5938H1.40625V6.29522Z" fill="#5F361F"/>
<path d="M21.8491 24C22.2374 24 22.5522 23.6852 22.5522 23.2969V15.4045C22.8869 14.7262 24.0382 12.1049 23.9989 8.21656C23.9524 3.60838 19.6453 0.282642 19.4621 0.14333C19.2494 -0.0182951 18.9635 -0.0454826 18.7242 0.0732518C18.4849 0.191939 18.3335 0.436017 18.3335 0.703158V23.2969C18.3335 23.6852 18.6483 24 19.0366 24L21.8491 24ZM19.7397 22.5937V15.9375H21.1459V22.5937H19.7397ZM22.5927 8.23077C22.6249 11.4119 21.7794 13.6858 21.4064 14.5312H19.7397V2.30005C20.9079 3.5112 22.567 5.67739 22.5927 8.23077Z" fill="#5F361F"/>
<path d="M8.46387 2.8125C7.30076 2.8125 6.35449 3.75877 6.35449 4.92188C6.35449 6.08498 7.30076 7.03125 8.46387 7.03125C9.62698 7.03125 10.5732 6.08498 10.5732 4.92188C10.5732 3.75877 9.62698 2.8125 8.46387 2.8125ZM8.46387 5.625C8.07616 5.625 7.76074 5.30958 7.76074 4.92188C7.76074 4.53417 8.07616 4.21875 8.46387 4.21875C8.85157 4.21875 9.16699 4.53417 9.16699 4.92188C9.16699 5.30958 8.85157 5.625 8.46387 5.625Z" fill="#5F361F"/>
</g>
<defs>
<clipPath id="clip0_234_90">
<rect width="24" height="24" fill="white"/>
</clipPath>
</defs>
</svg>
