<svg width="32" height="32" viewBox="0 0 32 32" fill="none" xmlns="http://www.w3.org/2000/svg">
<path d="M31.6879 19.173V19.1521C31.896 18.1326 32 17.0819 32 16C32 14.9181 31.896 13.8674 31.6879 12.8479V12.827C31.6671 12.7334 31.6463 12.6502 31.6255 12.5566L31.5735 12.3069C31.2406 10.9025 30.7204 9.57087 30.0442 8.3329L29.9506 8.16645C29.909 8.09363 29.8778 8.03121 29.8362 7.95839C29.7945 7.87516 29.7425 7.80234 29.7009 7.72952C29.7009 7.71912 29.6801 7.69831 29.6697 7.68791L29.5449 7.47984C29.1496 6.85565 28.7126 6.26268 28.2341 5.69051L28.1092 5.54487C28.078 5.51366 28.0468 5.48244 28.026 5.44083C27.9844 5.39922 27.9532 5.35761 27.9116 5.316C27.8596 5.25358 27.7971 5.19116 27.7451 5.12874L27.5787 4.95189C26.8713 4.21327 26.091 3.53706 25.2484 2.93368L24.9779 2.74642C24.9571 2.73602 24.9363 2.71521 24.9155 2.70481C24.8531 2.6632 24.7802 2.62159 24.7178 2.56957C24.645 2.51756 24.5722 2.47594 24.489 2.42393C24.489 2.42393 24.489 2.42393 24.4786 2.42393L24.3537 2.35111C23.0533 1.55007 21.6281 0.936283 20.1196 0.530561L20.0468 0.509751C20.0052 0.509751 19.9636 0.488946 19.922 0.478543C19.8596 0.457736 19.7867 0.44733 19.7243 0.426524C19.6411 0.405718 19.5683 0.384916 19.485 0.374513H19.4642C18.3511 0.124838 17.1964 0 16.0104 0C14.8244 0 13.6697 0.135241 12.5566 0.374513H12.5358C12.4421 0.395319 12.3485 0.416125 12.2653 0.447334L11.8804 0.540959C5.0455 2.37191 0 8.61378 0 16.0104C0 18.7568 0.697006 21.3368 1.91417 23.5943V23.6151C1.93498 23.6463 1.95577 23.6775 1.96617 23.7191C1.96617 23.7191 1.96617 23.7295 1.96617 23.7399C2.0598 23.9064 2.15345 24.0624 2.24708 24.2289C2.24708 24.2289 2.24706 24.2393 2.25746 24.2497C2.25746 24.2497 2.28869 24.3121 2.3095 24.3433L2.42391 24.5202C2.82964 25.1651 3.28739 25.7789 3.77634 26.3615L3.84914 26.4447C3.91156 26.5176 3.98438 26.6008 4.0468 26.6736C4.0572 26.684 4.06761 26.6944 4.07801 26.7048C4.15083 26.788 4.22367 26.8713 4.2965 26.9441C4.2965 26.9441 4.29648 26.9441 4.30688 26.9545L4.3277 26.9753C4.3277 26.9753 4.37971 27.0273 4.41092 27.0585L4.60858 27.2666C5.55526 28.2237 6.62678 29.0559 7.79193 29.7529L7.94797 29.8465C8.01039 29.8882 8.08322 29.9194 8.14563 29.961C8.16644 29.9714 8.19766 29.9922 8.21846 30.0026C8.29129 30.0442 8.35372 30.0754 8.42654 30.117L8.65541 30.2419C9.49806 30.6788 10.3823 31.0325 11.3082 31.3134L11.5683 31.3862C11.5995 31.3862 11.6203 31.3966 11.6515 31.407C11.7243 31.4278 11.8075 31.4486 11.8804 31.4694C11.9636 31.4902 12.0364 31.511 12.1196 31.5319L12.2861 31.5735C13.472 31.8544 14.71 32 15.9792 32C17.4252 32 18.8193 31.8023 20.1509 31.4486L20.3277 31.3966C20.5982 31.3238 20.8791 31.2302 21.1392 31.1469H21.1704V31.1365C21.9818 30.8557 22.7724 30.5123 23.5215 30.1066L23.844 29.9298C23.9272 29.8778 24.0208 29.8257 24.104 29.7841C24.104 29.7841 24.1248 29.7737 24.1352 29.7633C24.2185 29.7113 24.3121 29.6593 24.3953 29.6073L24.4994 29.5449C28.0364 27.3082 30.6372 23.7295 31.5943 19.5371C31.6255 19.4122 31.6463 19.2978 31.6775 19.173H31.6879ZM19.3498 5.9922C19.4122 5.76333 19.4746 5.53446 19.5267 5.316C19.6307 4.88947 19.7347 4.44213 19.8076 4.0052C19.9636 3.15214 20.0572 2.28868 20.0884 1.43563C21.3056 1.77893 22.4708 2.26788 23.5423 2.89207C22.9597 3.31859 22.4083 3.76593 21.8778 4.24447C21.4304 4.6502 21.0039 5.09753 20.5982 5.52405C20.4941 5.63849 20.3797 5.75292 20.2653 5.86736L20.2237 5.91937C19.974 6.17945 19.7035 6.44993 19.4122 6.62678C19.3706 6.64759 19.3498 6.658 19.3394 6.658C19.2978 6.62679 19.2666 6.55397 19.2666 6.47074C19.2666 6.3251 19.2978 6.15865 19.3498 5.9922ZM1.0299 13.8257C1.40441 13.4824 1.77892 13.1183 2.13263 12.7646L2.18466 12.7126C3.02732 11.87 3.88038 11.0169 4.72303 10.1743C5.68012 9.20676 6.63718 8.21846 7.59427 7.24057C7.86475 6.95969 8.12485 6.72042 8.39533 6.51236C8.69702 6.27308 9.14435 5.95058 9.59169 5.91937C9.61249 5.91937 9.64371 5.91937 9.66451 5.91937C10.0286 5.91937 10.3927 6.11704 10.6944 6.47074C11.0065 6.84525 11.1626 7.3446 11.2562 7.73992L11.2978 7.90637H12.3173L12.2549 7.63589C11.9324 6.23147 11.277 5.3576 10.3199 5.03511C10.1222 4.96228 9.91419 4.93108 9.69572 4.93108C8.70743 4.93108 7.83356 5.64889 7.18857 6.27308C6.87647 6.56437 6.57476 6.87646 6.29388 7.17815C6.17945 7.30299 6.06502 7.41743 5.95059 7.54226C5.52406 7.97919 5.08711 8.42652 4.66058 8.86345C3.79712 9.74772 2.91287 10.632 2.039 11.5058C1.89336 11.6515 1.74773 11.7971 1.60209 11.9428C1.53967 12.0052 1.47723 12.0676 1.41481 12.13C2.85044 6.75162 7.17814 2.53836 12.6294 1.27958C14.0338 2.78803 14.7412 4.27568 14.7932 5.80494C14.8141 6.43953 14.71 7.04291 14.4915 7.60468L14.3771 7.90637H15.4382L15.4902 7.76073C15.8752 6.6684 15.8856 5.37841 15.5007 4.11963C15.1886 3.08973 14.606 2.05981 13.7633 1.06111C14.5019 0.94668 15.2614 0.894669 16.0312 0.894669C17.0923 0.894669 18.1326 1.0091 19.1417 1.21716C19.1209 2.0182 19.0481 2.80884 18.9233 3.56827C18.8505 3.9948 18.7672 4.42132 18.6632 4.84785C18.6216 5.0039 18.58 5.15995 18.5384 5.316C18.4656 5.57607 18.3823 5.84655 18.3407 6.11703C18.2575 6.6788 18.3927 7.13654 18.7464 7.42783C18.9337 7.57347 19.1313 7.6567 19.3602 7.6567C19.6099 7.6567 19.8804 7.56307 20.1301 7.37581C20.6086 7.0221 21.0143 6.58518 21.4096 6.16905C21.5657 6.0026 21.7321 5.82574 21.8986 5.65929C22.4291 5.12873 22.9909 4.62939 23.5631 4.17165C23.8544 3.94278 24.1665 3.71391 24.4786 3.49545C25.4044 4.11964 26.2471 4.83745 27.0065 5.64889C26.8089 5.87776 26.6216 6.11703 26.4344 6.3459C25.883 7.0221 25.3108 7.71912 24.6346 8.29129C23.9376 8.88427 23.1365 9.3628 22.3875 9.78933L22.1899 9.90377L22.3147 10.1014C22.4083 10.2471 22.4916 10.4031 22.554 10.5592L22.6476 10.788L22.8557 10.6632C23.4799 10.3095 24.2081 9.87256 24.8739 9.36281C25.5293 8.86346 26.1326 8.26008 26.7984 7.46944C26.9129 7.3238 27.0377 7.17816 27.1522 7.03251C27.3186 6.82445 27.4955 6.61638 27.6619 6.40832C28.0988 6.92847 28.4942 7.49025 28.8583 8.06242C28.619 8.26008 28.3693 8.46814 28.1404 8.6866C27.3186 9.45644 26.5696 10.3095 25.8518 11.1417C25.2484 11.8492 24.6138 12.567 23.948 13.2328C23.7607 13.42 23.5631 13.5969 23.3342 13.8049L23.2614 13.8674V15.1678L23.6255 14.8661C23.8544 14.6684 24.0624 14.4915 24.2601 14.3043C25.0299 13.5969 25.7061 12.827 26.3823 12.0364L26.5696 11.8179C27.4435 10.8192 28.3381 9.77894 29.3576 8.92588C30.0026 10.1222 30.4812 11.4122 30.7829 12.775C30.1066 13.1703 29.4096 13.6697 28.5982 14.3563C28.2653 14.6372 27.9324 14.9285 27.6099 15.2198C26.8089 15.9272 25.9766 16.6658 25.0715 17.2588C24.4994 17.6333 23.9584 17.9142 23.407 18.1118L23.2614 18.1638V19.2042L23.5527 19.1105C25.0091 18.6216 26.2575 17.6749 27.173 16.9051C27.5475 16.593 27.9116 16.2705 28.2757 15.948C29.0455 15.2718 29.8466 14.5644 30.6996 13.9818C30.7932 13.9194 30.8869 13.857 30.9805 13.7945C31.0845 14.5228 31.147 15.2614 31.147 16.0208C31.147 17.1651 31.0221 18.2783 30.7829 19.3394C30.0754 20.0988 29.108 20.6086 28.1613 21.0975C27.5891 21.3992 26.9961 21.7009 26.4656 22.065C25.4981 22.7308 24.8011 23.5527 24.3849 24.5097C23.9688 25.4772 23.7919 26.4967 23.6567 27.7243C23.6047 28.2237 23.5735 28.6814 23.5527 29.1183C22.814 29.5449 22.0442 29.909 21.2328 30.2107C21.2328 30.0026 21.2224 29.7945 21.2016 29.5969C21.1288 28.827 20.9519 28.0988 20.7854 27.485C20.7646 27.4018 20.7334 27.3082 20.7126 27.225C20.5566 26.6632 20.4005 26.0806 20.3277 25.5084C20.2757 25.0299 20.2861 24.5826 20.3589 24.2081L20.4109 23.948H19.4018L19.3706 24.1352C19.1938 25.1964 19.433 26.2991 19.6827 27.2354C19.7139 27.3498 19.7451 27.4642 19.7763 27.5891C19.9324 28.1508 20.0884 28.7438 20.1716 29.3264C20.2237 29.7321 20.2445 30.1482 20.2341 30.5644C18.9961 30.9285 17.6957 31.1365 16.3433 31.1677C16.4577 30.6996 16.5306 30.2419 16.5826 29.7841C16.7282 28.5462 16.697 27.225 16.489 25.5084C16.4265 25.0091 16.3641 24.5202 16.3017 24.1456L16.2705 23.9584H15.2718L15.3134 24.2081C15.6255 26.3303 15.9064 28.7854 15.3134 31.1469C14.4083 31.1053 13.524 30.9909 12.6606 30.7932C13.264 29.2328 13.3784 27.4746 12.9727 25.8622C12.8167 25.238 12.5774 24.6346 12.2549 24.0728L12.1925 23.9584H11.2458V24.1768C11.2458 24.2601 11.2666 24.3433 11.3186 24.4265C12.3693 26.2263 12.515 28.5566 11.7035 30.554C10.736 30.2627 9.79973 29.8882 8.92587 29.42C9.22756 28.2549 9.3004 27.1105 9.13394 26.0182C8.95709 24.8635 8.44732 23.8544 8.01039 23.1053C7.96878 23.0325 7.92717 22.9701 7.88556 22.8973C7.46943 22.1691 7.03252 21.42 6.89728 20.5982C6.75164 19.7451 7.01169 18.8609 7.26136 18.0078L7.29257 17.9142L7.32381 17.8205C7.59429 16.9051 7.86476 15.9688 7.76072 14.9909C7.70871 14.4915 7.58387 13.8674 7.07411 13.4928C6.83484 13.316 6.53314 13.2328 6.18984 13.2328C5.99218 13.2328 5.79455 13.264 5.59689 13.316C4.55657 13.6073 3.80753 14.4603 3.20415 15.2718C2.51754 16.1977 1.95579 17.1964 1.46684 18.1326C1.38362 18.2887 1.31079 18.4343 1.22756 18.5904C1.18595 18.6736 1.14434 18.7568 1.10273 18.8401C0.936279 17.935 0.842651 16.9987 0.842651 16.0416C0.842651 15.303 0.89466 14.5644 0.998691 13.857L1.0299 13.8257ZM4.17163 23.6983C4.15083 24.156 4.08843 24.6346 3.9948 25.2172C3.64109 24.749 3.30818 24.2705 3.00649 23.7607C3.07931 23.6567 3.15215 23.5527 3.22498 23.4486C3.37062 23.2406 3.51625 23.0325 3.66189 22.8244C3.6827 22.7932 3.7035 22.762 3.72431 22.7308C3.79713 22.6164 3.89078 22.502 3.974 22.4499C3.974 22.4499 4.026 22.4707 4.05721 22.5124C4.15084 22.606 4.17163 22.7932 4.17163 22.9493C4.18204 23.2094 4.17165 23.4798 4.16125 23.6983H4.17163ZM4.82703 26.2055C4.87905 25.935 4.92068 25.6645 4.97269 25.394C5.07673 24.7178 5.13915 24.1769 5.17036 23.6671V23.5631C5.20157 23.0637 5.23277 22.4291 4.91028 21.9714C4.69181 21.6489 4.33809 21.4616 3.98438 21.4616C3.74511 21.4616 3.52664 21.5449 3.32898 21.7009C3.16253 21.8362 3.0273 22.0234 2.91286 22.1795C2.89206 22.2107 2.87125 22.2315 2.85045 22.2627C2.72561 22.4291 2.61119 22.5852 2.47595 22.7828C2.07023 21.9714 1.72692 21.1183 1.46684 20.2237C1.60209 19.9948 1.74771 19.7451 1.90376 19.4434C1.97658 19.2978 2.05981 19.1521 2.13263 19.0065C2.53835 18.2367 2.9545 17.446 3.42264 16.697C3.93239 15.8856 4.50455 15.0533 5.26398 14.5436C5.62809 14.3043 5.91938 14.1899 6.21067 14.1899C6.23147 14.1899 6.25228 14.1899 6.27308 14.1899C6.38752 14.1899 6.49154 14.2315 6.55396 14.3043C6.65799 14.4083 6.71 14.5852 6.74121 14.7828C6.91806 15.6359 6.658 16.5618 6.43954 17.3108C6.41873 17.394 6.38752 17.4876 6.36671 17.5709C6.12744 18.4031 5.87777 19.2562 5.88817 20.1404C5.90898 21.3576 6.49154 22.3667 7.04291 23.3446C7.41742 24 7.80235 24.6762 8.00001 25.394C8.3017 26.4759 8.31208 27.6307 8.0416 28.8687C6.84524 28.13 5.75293 27.225 4.81665 26.1847L4.82703 26.2055ZM24.5722 28.4733C24.5722 28.3693 24.593 28.2653 24.593 28.1612C24.697 26.9857 24.8427 26.0182 25.186 25.1131C25.3628 24.645 25.5813 24.2497 25.8518 23.9064C26.1327 23.5631 26.4759 23.2406 26.9025 22.9389C27.4434 22.554 28.0572 22.2419 28.6398 21.9298C28.9207 21.7841 29.2224 21.6281 29.5033 21.4616C29.7841 21.3056 30.0442 21.1391 30.2835 20.9831C29.212 24.0416 27.1938 26.6528 24.5722 28.4525V28.4733ZM16.1561 9.87256C16 9.61248 16.1873 9.27958 16.489 9.27958H19.0481C20.7542 9.27958 22.1379 10.6632 22.1379 12.3693C22.1379 14.0754 20.7542 15.459 19.0481 15.459H17.0403C16.6762 15.459 16.3849 15.1677 16.3953 14.8036L16.4369 11.1729C16.4369 10.6008 16.3433 10.1742 16.1665 9.86215L16.1561 9.87256ZM8.95708 9.85176C8.95708 9.85176 8.92587 9.77893 8.92587 9.71651V9.47724C8.92587 9.342 9.00911 9.27958 9.16515 9.27958H14.7308C15.0325 9.27958 15.2198 9.61248 15.0637 9.87256C14.8765 10.1847 14.7932 10.6216 14.7932 11.1938V22.0442C14.7932 22.3875 14.5123 22.6788 14.1586 22.6788H10.736C10.4968 22.6788 10.3199 22.6268 10.2263 22.5228C10.1222 22.4187 10.0702 22.2315 10.0702 21.9818V11.3706C10.0494 11.0377 9.98698 10.788 9.89335 10.6216C9.76852 10.4239 9.51885 10.2159 9.12353 9.9974C9.0299 9.94538 8.96748 9.90377 8.95708 9.86215V9.85176ZM22.1066 21.3368C22.2315 21.5345 22.4811 21.7425 22.8765 21.961C22.9701 22.013 23.0325 22.0546 23.0429 22.0962C23.0637 22.1274 23.0741 22.169 23.0741 22.2315V22.4707C23.0741 22.606 22.9909 22.6684 22.8348 22.6684H17.0299C16.6762 22.6684 16.3953 22.3875 16.3953 22.0338V16.9883C16.3953 16.6346 16.6866 16.3433 17.0403 16.3433H18.9545C20.9727 16.4473 21.9194 17.4148 21.9194 19.381V20.078C21.9194 20.9207 21.9922 21.1287 22.1066 21.3264V21.3368Z" fill="#5F361F"/>
</svg>
