<svg width="229" height="63" viewBox="0 0 229 63" fill="none" xmlns="http://www.w3.org/2000/svg">
<path d="M228.509 44.0662H149.719C149.598 43.7034 149.255 43.4414 148.852 43.4414C148.348 43.4414 147.925 43.8647 147.925 44.3686C147.925 44.8725 148.348 45.2958 148.852 45.2958C149.255 45.2958 149.578 45.0338 149.719 44.671H228.509V44.0461V44.0662Z" fill="white"/>
<path d="M89.3319 46.3028H89.3924C89.3924 46.968 89.1102 47.3711 88.5257 47.3711C87.7799 47.3711 87.659 46.7462 87.659 46.0811V43.2391H87.1752V43.1786H87.2558C87.8807 43.1786 88.3241 42.4732 88.3241 42.0298H88.3846V43.1786H89.2512V43.2391H88.3846V46.3835C88.3846 46.8672 88.5861 47.0688 88.8482 47.0688C89.2311 47.0688 89.3117 46.6455 89.3117 46.323L89.3319 46.3028ZM85.9659 42.2716C86.2884 42.2716 86.5302 42.0499 86.5302 41.7677C86.5302 41.4855 86.2884 41.2638 85.9659 41.2638C85.6434 41.2638 85.4015 41.4855 85.4015 41.7677C85.4015 42.0499 85.6434 42.2716 85.9659 42.2716ZM93.1011 46.202H93.1615C92.8793 47.0083 92.2344 47.3711 91.4684 47.3711C90.4203 47.3711 89.6746 46.7059 89.6746 45.2547C89.6746 43.8841 90.5413 42.9972 91.67 42.9972C92.5367 42.9972 93.1414 43.4004 93.1414 44.0454C93.1414 44.6097 92.7987 44.9121 92.315 45.1539C91.7305 45.4361 90.9242 45.5168 90.5211 45.678C90.642 46.3835 90.9847 47.0284 91.8514 47.0284C92.4359 47.0284 92.8995 46.7463 93.1011 46.1819V46.202ZM90.501 45.5772C91.5692 45.295 92.5166 44.6299 92.5166 43.8438C92.5166 43.3399 92.2142 43.0577 91.6902 43.0577C90.6824 43.0577 90.4606 44.126 90.4606 45.033C90.4606 45.2144 90.4607 45.3958 90.501 45.5571V45.5772ZM104.328 42.2716C104.65 42.2716 104.892 42.0499 104.892 41.7677C104.892 41.4855 104.65 41.2638 104.328 41.2638C104.005 41.2638 103.764 41.4855 103.764 41.7677C103.764 42.0499 104.005 42.2716 104.328 42.2716ZM103.582 47.2098C102.998 47.2098 102.756 47.0285 102.514 46.6253L100.66 43.5415L101.305 42.836C102.03 42.0701 102.675 41.546 103.36 41.546C103.401 41.546 103.421 41.546 103.421 41.5057C103.421 41.4654 103.421 41.4654 103.36 41.4654H101.043C101.043 41.4654 101.002 41.4654 101.002 41.5057C101.002 41.546 101.002 41.546 101.043 41.546H101.264C102.091 41.546 101.809 42.2313 101.143 42.9367L99.1882 45.033V42.2918C99.1882 41.8081 99.4099 41.546 99.9945 41.546C100.015 41.546 100.035 41.546 100.035 41.5057C100.035 41.4654 100.035 41.4654 99.9945 41.4654H98.0191C95.9229 41.4654 95.54 42.5135 95.54 43.1383C95.54 43.7228 95.8826 44.0454 96.326 44.0454C96.7695 44.0454 96.971 43.743 96.971 43.4205C96.971 43.0376 96.6888 42.8763 96.3865 42.8763C96.1648 42.8763 95.9229 42.9972 95.8624 43.1786C95.8624 43.1181 95.8624 43.0577 95.8624 43.0577C95.8624 42.3119 96.4268 41.5662 97.6563 41.5662C98.0796 41.5662 98.4021 41.6871 98.4021 42.0701V46.4439C98.4021 46.9478 98.1603 47.1897 97.4749 47.1897C97.4548 47.1897 97.4346 47.1897 97.4346 47.23C97.4346 47.2703 97.4346 47.2703 97.4749 47.2703H99.9743C99.9743 47.2703 100.015 47.2703 100.015 47.23C100.015 47.1897 100.015 47.1897 99.9743 47.1897C99.3696 47.1897 99.168 46.9478 99.168 46.4439V45.1136L100.115 44.1058L101.587 46.6253C101.809 46.968 101.869 47.1897 101.123 47.1897C101.123 47.1897 101.083 47.1897 101.083 47.23C101.083 47.2703 101.083 47.2703 101.123 47.2703H103.582C103.582 47.2703 103.623 47.2703 103.623 47.23C103.623 47.1897 103.623 47.1897 103.582 47.1897V47.2098ZM86.7317 47.1494C86.3891 47.1494 86.3689 46.8269 86.3689 45.8191V42.9771C85.986 43.098 85.5224 43.1383 84.9782 43.1383V43.1988C85.4619 43.1988 85.6434 43.2391 85.6434 43.6825V46.2424C85.6434 46.9881 85.8449 47.3308 86.3689 47.3308C86.7116 47.3308 86.9938 47.1695 87.0744 46.9881L87.0341 46.9277C86.9535 47.0284 86.8527 47.1091 86.7116 47.1091L86.7317 47.1494ZM82.2975 45.3555C82.2975 45.3555 82.237 45.3555 82.237 45.3958C82.2975 46.3834 81.8338 47.2098 80.302 47.2098H79.5562V44.4686H80.1609C80.9268 44.4686 81.2695 44.8314 81.2695 45.3353C81.2695 45.3353 81.2695 45.3958 81.3098 45.3958C81.3501 45.3958 81.3501 45.3958 81.3501 45.3555V43.4406C81.3501 43.4406 81.3501 43.4004 81.3098 43.4004C81.2695 43.4004 81.2695 43.4003 81.2695 43.4406C81.2695 44.0252 80.9268 44.388 80.1609 44.388H79.5562V41.546H80.302C81.8137 41.546 82.0556 42.4329 82.0556 43.3399C82.0556 43.36 82.0556 43.3802 82.0959 43.3802C82.1362 43.3802 82.1362 43.3802 82.1362 43.3399V41.4855H78.367C76.5933 41.4855 75.908 42.3321 75.908 43.1585C75.908 43.743 76.2506 44.0655 76.6941 44.0655C77.1375 44.0655 77.3391 43.7631 77.3391 43.4406C77.3391 43.0577 77.0568 42.8965 76.7747 42.8965C76.5529 42.8965 76.3111 43.0174 76.2305 43.1988C76.2305 43.1383 76.2305 43.0779 76.2305 43.0779C76.2305 42.3321 76.7949 41.5863 78.0244 41.5863C78.4477 41.5863 78.7701 41.7073 78.7701 42.0902V46.4641C78.7701 46.968 78.5283 47.2098 77.843 47.2098C77.8228 47.2098 77.8026 47.2099 77.8026 47.2502C77.8026 47.2905 77.8027 47.2905 77.843 47.2905H82.3176V45.3958C82.3176 45.3958 82.3176 45.3555 82.2773 45.3555H82.2975ZM84.696 47.1494C84.3131 47.1494 84.1921 46.8874 84.1921 46.2424V41.1025L82.8215 41.3848V41.425C83.1641 41.425 83.4866 41.4251 83.4866 41.8484V46.2827C83.4866 47.0083 83.7486 47.3711 84.3332 47.3711C84.6758 47.3711 84.9782 47.23 85.079 47.0889L85.0386 47.0486C85.0386 47.0486 84.8976 47.1695 84.696 47.1695V47.1494ZM135.65 46.9075L135.691 46.968C135.59 47.1897 135.388 47.3509 135.026 47.3509C134.542 47.3509 134.26 47.0486 134.26 46.3633V45.8392C134.078 46.6858 133.675 47.3509 132.768 47.3509C132.244 47.3509 131.781 47.0688 131.781 46.5044C131.781 45.3555 133.474 45.2144 134.28 44.65V44.0655C134.28 43.5616 134.139 43.0577 133.453 43.0577C133.05 43.0577 132.728 43.2794 132.546 43.622C132.667 43.7228 132.788 43.9445 132.788 44.1864C132.788 44.4484 132.647 44.6702 132.345 44.6702C132.063 44.6702 131.962 44.4888 131.962 44.2066C131.962 43.5818 132.546 42.9569 133.574 42.9569C134.663 42.9569 135.005 43.6422 135.005 44.4485V46.3431C135.005 46.8269 135.046 47.1091 135.328 47.1091C135.469 47.1091 135.55 47.0285 135.63 46.8874L135.65 46.9075ZM134.28 44.771C133.554 45.1338 132.506 45.5369 132.506 46.3431C132.506 46.6455 132.667 47.0284 133.151 47.0284C134.038 47.0284 134.28 45.8393 134.28 44.9927V44.771ZM138.251 42.9972C137.847 42.9972 137.203 43.3601 137.041 44.4283H137.001V42.9972C136.678 43.0778 136.356 43.1585 135.671 43.1585V43.219C136.154 43.219 136.336 43.2593 136.336 43.7027V47.2703H137.082V44.8919C137.082 44.0252 137.485 43.219 137.948 43.219C138.009 43.219 138.029 43.2189 138.049 43.2391C137.989 43.36 137.968 43.481 137.968 43.5818C137.968 43.8438 138.11 44.0857 138.392 44.0857C138.754 44.0857 138.855 43.743 138.855 43.5213C138.855 43.1786 138.593 42.9771 138.251 42.9771V42.9972ZM105.094 47.1494C104.751 47.1494 104.731 46.8269 104.731 45.8191V42.9771C104.348 43.098 103.885 43.1383 103.34 43.1383V43.1988C103.824 43.1988 104.005 43.2391 104.005 43.6825V46.2424C104.005 46.9881 104.207 47.3308 104.731 47.3308C105.074 47.3308 105.356 47.1695 105.437 46.9881L105.396 46.9277C105.316 47.0284 105.215 47.1091 105.074 47.1091L105.094 47.1494ZM124.807 47.1292C124.524 47.1292 124.444 46.847 124.444 46.3633V44.4485C124.444 43.5616 124.101 42.9972 123.214 42.9972C122.468 42.9972 121.944 43.5818 121.682 44.3074H121.662V42.9972C121.279 43.1181 120.856 43.1585 120.312 43.1585V43.219C120.795 43.219 120.977 43.2593 120.977 43.7027V47.2703H121.702V44.8919C121.702 44.005 122.206 43.2593 122.932 43.2593C123.456 43.2593 123.718 43.6423 123.718 44.3074V46.323C123.718 47.0285 124 47.3509 124.504 47.3509C124.887 47.3509 125.069 47.1695 125.169 46.968L125.129 46.9075C125.069 47.0486 124.968 47.1292 124.827 47.1292H124.807ZM142.624 46.2222C142.342 47.0083 141.697 47.3711 140.931 47.3711C139.883 47.3711 139.137 46.7059 139.137 45.2547C139.137 43.8841 140.004 42.9972 141.133 42.9972C142 42.9972 142.604 43.4004 142.604 44.0454C142.604 44.6097 142.262 44.9121 141.778 45.1539C141.193 45.4361 140.387 45.5168 139.984 45.678C140.105 46.3835 140.448 47.0284 141.314 47.0284C141.899 47.0284 142.362 46.7463 142.564 46.1819H142.624V46.2222ZM139.944 45.5772C141.012 45.295 141.959 44.6299 141.959 43.8438C141.959 43.3399 141.657 43.0577 141.133 43.0577C140.125 43.0577 139.903 44.126 139.903 45.033C139.903 45.2144 139.903 45.3958 139.944 45.5571V45.5772ZM131.861 43.1786C131.861 43.1786 131.861 43.1383 131.821 43.1383H130.067C130.067 43.1383 130.027 43.1383 130.027 43.1786C130.027 43.2189 130.027 43.219 130.067 43.219C130.672 43.219 130.934 43.481 130.531 44.65L129.725 46.968L128.838 43.7632C128.737 43.36 128.918 43.2391 129.12 43.219C129.12 43.219 129.16 43.2189 129.16 43.1786C129.16 43.1383 129.16 43.1383 129.12 43.1383H127.487C127.487 43.1383 127.447 43.1383 127.447 43.1786C127.447 43.2189 127.447 43.219 127.487 43.219C127.729 43.219 127.911 43.4003 128.011 43.6825L128.233 44.4082C128.233 44.4082 128.173 44.5492 128.152 44.65L127.266 46.968L126.379 43.7632C126.278 43.36 126.379 43.2391 126.56 43.219C126.56 43.219 126.6 43.2189 126.6 43.1786C126.6 43.1383 126.6 43.1383 126.56 43.1383H125.048C125.048 43.1383 125.008 43.1383 125.008 43.1786C125.008 43.2189 125.008 43.219 125.048 43.219C125.29 43.219 125.472 43.4003 125.572 43.6825L126.6 47.2905H127.266L128.273 44.6298C128.273 44.6298 128.273 44.5895 128.294 44.5694L129.08 47.2905H129.745L130.672 44.6298C131.136 43.3197 131.377 43.219 131.861 43.219C131.881 43.219 131.901 43.2189 131.901 43.1786H131.861ZM110.214 47.0284C109.206 47.0284 108.823 46.1819 108.823 45.0532C108.823 44.1461 109.044 43.0779 110.113 43.0779C110.455 43.0779 110.697 43.2391 110.758 43.4205C110.637 43.5818 110.556 43.8035 110.556 44.005C110.556 44.2872 110.697 44.5089 110.959 44.5089C111.221 44.5089 111.383 44.2671 111.383 43.9849C111.383 43.3802 110.758 42.9972 110.052 42.9972C108.903 42.9972 108.037 43.8841 108.037 45.2547C108.037 46.7059 108.782 47.3711 109.831 47.3711C110.576 47.3711 111.141 47.0083 111.423 46.2222H111.362C111.181 46.7664 110.778 47.0284 110.214 47.0284ZM120.009 46.202H120.07C119.788 47.0083 119.143 47.3711 118.377 47.3711C117.329 47.3711 116.583 46.7059 116.583 45.2547C116.583 43.8841 117.45 42.9972 118.578 42.9972C119.445 42.9972 120.05 43.4004 120.05 44.0454C120.05 44.6097 119.707 44.9121 119.223 45.1539C118.639 45.4361 117.833 45.5168 117.429 45.678C117.55 46.3835 117.893 47.0284 118.76 47.0284C119.344 47.0284 119.808 46.7463 120.009 46.1819V46.202ZM117.409 45.5772C118.478 45.295 119.425 44.6299 119.425 43.8438C119.425 43.3399 119.122 43.0577 118.598 43.0577C117.591 43.0577 117.369 44.126 117.369 45.033C117.369 45.2144 117.369 45.3958 117.409 45.5571V45.5772ZM107.23 47.0486C106.968 47.0486 106.767 46.847 106.767 46.3633V43.219H107.634V43.1585H106.767V42.0096H106.706C106.706 42.453 106.263 43.1585 105.638 43.1585H105.558V43.219H106.041V46.061C106.041 46.7261 106.162 47.3509 106.908 47.3509C107.492 47.3509 107.775 46.9478 107.775 46.2827H107.714C107.714 46.6052 107.634 47.0284 107.251 47.0284L107.23 47.0486ZM116.059 47.1292C115.777 47.1292 115.696 46.847 115.696 46.3633V44.4485C115.696 43.5616 115.353 42.9972 114.466 42.9972C113.721 42.9972 113.197 43.5818 112.935 44.3074V41.1025L111.564 41.3848V41.4452C112.048 41.4452 112.229 41.4049 112.229 41.8484V47.2905H112.935V44.9121C112.935 44.0252 113.439 43.2794 114.164 43.2794C114.688 43.2794 114.93 43.6825 114.93 44.3275V46.3431C114.93 47.0486 115.212 47.3711 115.716 47.3711C116.099 47.3711 116.301 47.1897 116.381 46.9881L116.341 46.9277C116.26 47.0688 116.16 47.1494 116.039 47.1494L116.059 47.1292Z" fill="white"/>
<path d="M212.666 33.0601C212.666 33.0601 212.787 33.1609 213.07 33.1609H220.265C221.858 33.1609 223.269 32.7981 224.458 32.0926C225.647 31.3872 226.574 30.3995 227.199 29.1498C227.844 27.88 228.166 26.4086 228.166 24.7558C228.166 22.1355 227.461 20.0594 226.09 18.6082C224.72 17.157 222.785 16.4314 220.306 16.4314H211.094V16.6128C211.78 17.0562 212.163 17.3787 212.324 17.6609C212.505 17.9632 212.586 18.4067 212.586 19.0315V32.5965C212.586 32.919 212.666 33.0399 212.687 33.0601H212.666ZM218.895 17.5399C218.895 17.5399 218.915 17.3988 218.975 17.3182C219.096 17.157 219.338 16.9756 219.761 16.9756C220.044 16.9756 220.265 17.0965 220.406 17.2981C220.527 17.4795 220.608 17.7012 220.608 17.9834V31.5887C220.608 31.8507 220.547 32.0926 220.406 32.274C220.245 32.4957 220.023 32.5965 219.761 32.5965C219.338 32.5965 219.096 32.4151 218.975 32.2539C218.935 32.1934 218.915 32.1128 218.915 32.0523V17.5399H218.895ZM131.236 32.5965V19.0718C131.236 18.588 131.196 18.2454 131.115 18.0035C131.035 17.7415 130.873 17.5198 130.652 17.3182C130.47 17.1368 130.168 16.9151 129.745 16.6329V16.4515H145.003C145.285 16.4515 145.386 16.512 145.406 16.5523C145.446 16.5926 145.507 16.6934 145.507 17.0159V20.1401C145.507 21.1479 145.305 21.8936 144.882 22.3572C144.479 22.8007 143.834 23.0425 142.967 23.0425H139.742C139.419 23.0425 139.319 22.9619 139.278 22.9418C139.238 22.9014 139.178 22.8007 139.178 22.4782V17.9431C139.178 17.0763 138.573 17.0159 138.371 17.0159C137.968 17.0159 137.746 17.1973 137.625 17.3585C137.585 17.419 137.545 17.4996 137.545 17.5601V24.1713C137.545 24.3728 137.706 24.514 137.888 24.514H142.826V25.038H137.888C137.686 25.038 137.545 25.1992 137.545 25.3806V31.9918C137.545 31.9918 137.565 32.1329 137.605 32.1934C137.726 32.3547 137.948 32.5361 138.351 32.5361C138.533 32.5361 139.157 32.4756 139.157 31.6089V27.1141C139.157 26.7916 139.238 26.6908 139.258 26.6505C139.298 26.6102 139.399 26.5497 139.722 26.5497H142.947C143.813 26.5497 144.458 26.7714 144.862 27.235C145.265 27.6986 145.486 28.4444 145.486 29.4522V32.5764C145.486 32.8989 145.406 33.0198 145.386 33.0399C145.365 33.0601 145.265 33.1407 144.983 33.1407H131.74C131.458 33.1407 131.357 33.0802 131.337 33.0399C131.297 32.9996 131.236 32.8989 131.236 32.5764V32.5965ZM113.378 29.4925C113.378 28.7064 113.66 28.0614 114.224 27.5575C114.809 27.0334 115.555 26.7916 116.482 26.7916C117.57 26.7916 118.437 27.0334 119.062 27.497C119.666 27.9405 119.949 28.5452 119.949 29.2909C119.949 29.8553 119.767 30.2786 119.384 30.6011C119.001 30.9236 118.417 31.1251 117.691 31.1453C117.611 31.1453 117.51 31.1856 117.449 31.2461C117.228 31.4678 117.187 31.6895 117.187 31.8306C117.187 32.0724 117.308 32.2942 117.53 32.4151C117.691 32.5159 117.913 32.5764 118.155 32.5764C119.122 32.5764 119.929 32.2539 120.594 31.6492C121.259 31.0243 121.581 30.2383 121.581 29.2909C121.581 28.5452 121.42 27.9203 121.118 27.4164C120.815 26.9327 120.311 26.4892 119.646 26.1063C119.001 25.7435 118.135 25.4008 117.046 25.0581C115.917 24.7155 115.051 24.1914 114.486 23.5263C113.922 22.8611 113.66 22.0348 113.66 21.0471C113.66 20.0595 113.962 19.2331 114.567 18.4671C115.172 17.7012 116.079 17.0965 117.248 16.6531C118.437 16.1895 119.848 15.9678 121.44 15.9678C123.678 15.9678 125.431 16.3507 126.681 17.0965C127.89 17.8221 128.455 18.7896 128.455 20.0796C128.455 20.8657 128.172 21.4905 127.568 21.9944C126.963 22.4983 126.157 22.7604 125.189 22.7604C124.222 22.7604 123.355 22.5185 122.75 22.0549C122.166 21.5913 121.884 21.0068 121.884 20.261C121.884 19.6967 122.065 19.2734 122.448 18.9509C122.831 18.6284 123.415 18.4268 124.141 18.4066C124.222 18.4066 124.323 18.3664 124.383 18.3059C124.605 18.0842 124.645 17.8624 124.645 17.7213C124.645 17.4795 124.524 17.2578 124.302 17.1368C124.141 17.036 123.919 16.9756 123.678 16.9756C123.053 16.9756 122.488 17.1167 121.964 17.3988C121.44 17.681 121.037 18.0841 120.715 18.5679C120.392 19.0718 120.251 19.6362 120.251 20.261C120.251 21.3293 120.614 22.196 121.339 22.841C122.025 23.4658 123.174 23.9899 124.806 24.4535C126.197 24.8364 127.225 25.3605 127.85 26.0458C128.475 26.7109 128.797 27.5172 128.797 28.525C128.797 30.1576 128.132 31.3872 126.782 32.2539C125.391 33.1407 123.355 33.6043 120.735 33.6043C118.296 33.6043 116.421 33.2415 115.172 32.5159C113.982 31.8104 113.398 30.8228 113.398 29.4925H113.378ZM182.211 15.9678C179.449 15.9678 177.293 16.7337 175.821 18.2454C174.33 19.7571 173.584 21.9541 173.584 24.7558C173.584 27.5575 174.33 29.7747 175.821 31.2864C177.313 32.8182 179.469 33.5842 182.211 33.5842C184.952 33.5842 187.129 32.8182 188.6 31.2864C190.092 29.7545 190.837 27.5575 190.837 24.7558C190.837 21.9541 190.092 19.7571 188.6 18.2454C187.109 16.7337 184.952 15.9678 182.211 15.9678ZM183.057 31.9112C183.057 32.8989 182.412 32.9795 182.211 32.9795C182.009 32.9795 181.364 32.8989 181.364 31.9112V17.6609C181.364 16.6732 182.009 16.5926 182.211 16.5926C182.412 16.5926 183.057 16.6732 183.057 17.6609V31.9112ZM155.524 19.5555L158.225 30.4398C158.225 30.4398 158.285 30.5809 158.346 30.6212C158.507 30.7623 158.709 30.8429 158.93 30.8429C159.152 30.8429 159.374 30.7623 159.515 30.6011C159.676 30.4398 159.757 30.2383 159.757 30.0165C159.757 29.9158 159.757 29.7948 159.717 29.6739C159.717 29.5731 159.676 29.4522 159.636 29.3312L157.056 18.9912C156.915 18.4268 156.774 18.0035 156.653 17.7213C156.532 17.419 156.391 17.1771 156.23 16.9756C156.068 16.7337 156.008 16.6531 155.968 16.6128C155.968 16.5926 155.947 16.5523 155.947 16.512V16.4112H159.797C160.946 16.4112 161.833 16.6531 162.458 17.1368C163.062 17.6206 163.466 18.4268 163.687 19.5354L165.804 30.4398C165.804 30.4398 165.844 30.5809 165.904 30.6212C166.066 30.7825 166.287 30.8832 166.549 30.8832C167.033 30.8832 167.356 30.5607 167.356 30.0367C167.356 29.9359 167.356 29.815 167.315 29.694C167.315 29.5933 167.275 29.4925 167.255 29.432L165.259 18.9912C165.078 18.0438 164.816 17.3787 164.473 16.9554C164.292 16.7136 164.252 16.6329 164.211 16.5926C164.211 16.5725 164.191 16.5321 164.191 16.4918V16.391H171.891C172.153 16.391 172.334 16.4515 172.455 16.5523C172.516 16.6128 172.616 16.7337 172.616 16.9957C172.616 17.419 172.354 18.709 171.064 22.5185C170.036 25.6024 168.847 28.7669 167.557 31.9314C167.396 32.3546 167.154 32.6772 166.872 32.8586C166.57 33.04 166.166 33.1407 165.663 33.1407H162.518C162.014 33.1407 161.611 33.04 161.309 32.8586C161.027 32.6772 160.785 32.3546 160.624 31.9314C160.563 31.7903 160.442 31.7096 160.301 31.7096C160.16 31.7096 160.019 31.7903 159.979 31.9314C159.656 32.7578 158.991 33.1609 157.963 33.1609H154.597C153.569 33.1609 152.964 32.7779 152.702 31.9515L148.147 18.1245C148.046 17.802 147.885 17.5399 147.663 17.3182C147.462 17.1167 147.139 16.8748 146.676 16.5926V16.4112H151.614C152.722 16.4112 153.589 16.6531 154.174 17.1167C154.758 17.6004 155.202 18.4067 155.504 19.5555H155.524ZM102.997 15.9678C100.236 15.9678 98.0794 16.7337 96.608 18.2454C95.1165 19.7571 94.3707 21.9541 94.3707 24.7558C94.3707 27.5575 95.1366 29.7747 96.608 31.2864C98.0996 32.8182 100.256 33.5842 102.997 33.5842C105.739 33.5842 107.916 32.8182 109.387 31.2864C110.878 29.7545 111.624 27.5575 111.624 24.7558C111.624 21.9541 110.878 19.7571 109.387 18.2454C107.895 16.7337 105.739 15.9678 102.997 15.9678ZM103.864 31.9112C103.864 32.8989 103.219 32.9795 103.018 32.9795C102.816 32.9795 102.171 32.8989 102.171 31.9112V17.6609C102.171 16.6732 102.816 16.5926 103.018 16.5926C103.219 16.5926 103.864 16.6732 103.864 17.6609V31.9112ZM201.319 15.9678C198.557 15.9678 196.401 16.7337 194.929 18.2454C193.438 19.7571 192.692 21.9541 192.692 24.7558C192.692 27.5575 193.438 29.7747 194.929 31.2864C196.421 32.8182 198.577 33.5842 201.319 33.5842C204.06 33.5842 206.237 32.8182 207.708 31.2864C209.2 29.7545 209.945 27.5575 209.945 24.7558C209.945 21.9541 209.2 19.7571 207.708 18.2454C206.217 16.7337 204.06 15.9678 201.319 15.9678ZM202.165 31.9112C202.165 32.8989 201.52 32.9795 201.319 32.9795C201.117 32.9795 200.472 32.8989 200.472 31.9112V17.6609C200.472 16.6732 201.117 16.5926 201.319 16.5926C201.52 16.5926 202.165 16.6732 202.165 17.6609V31.9112ZM92.5768 31.9515C92.3752 31.629 92.2946 31.1654 92.2946 30.5406V28.8878C92.2946 26.3481 91.0248 25.038 88.4247 24.9171C88.2433 24.9171 88.1021 24.7558 88.082 24.5744C88.082 24.393 88.2029 24.2317 88.3843 24.2116C89.4123 24.0503 90.2991 23.6069 90.9845 22.9015C91.6698 22.196 92.0124 21.4301 92.0124 20.5432C92.0124 19.1323 91.5286 18.1245 90.5208 17.4593C89.4929 16.774 87.8603 16.4112 85.6431 16.4112H75.9077V16.6128C75.9077 16.6128 75.948 16.6329 75.9884 16.6732C76.5527 16.9756 76.9155 17.2981 77.1171 17.6206C77.3187 17.9431 77.3993 18.4067 77.3993 19.0315V32.5965C77.3993 32.919 77.4799 33.0399 77.5001 33.0601C77.5202 33.0803 77.621 33.1609 77.9032 33.1609H83.2042C83.4864 33.1609 83.5872 33.1004 83.6073 33.0601C83.6476 33.0198 83.7081 32.919 83.7081 32.5965V25.2194C83.7081 25.0178 83.8694 24.8767 84.0508 24.8767H84.3935C85.0183 24.8767 85.4013 25.2597 85.4013 25.8845V32.5965C85.4013 32.919 85.4819 33.0399 85.502 33.0601C85.5222 33.0803 85.623 33.1609 85.9052 33.1609H93.7458V32.9593C93.7458 32.9593 93.7055 32.919 93.6652 32.8988C93.1008 32.5965 92.738 32.274 92.5364 31.9515H92.5768ZM85.4415 23.3852C85.4415 24.01 85.0586 24.393 84.4337 24.393H84.0911C83.8895 24.393 83.7484 24.2317 83.7484 24.0503V17.5399C83.7484 17.5399 83.7686 17.3988 83.829 17.3384C83.95 17.1771 84.1919 16.9957 84.6151 16.9957C84.8973 16.9957 85.1191 17.1167 85.2601 17.3182C85.4012 17.4996 85.4617 17.7213 85.4617 18.0035V23.4054L85.4415 23.3852Z" fill="white"/>
<path d="M61.3953 37.797V37.7567C61.7985 35.7814 62 33.7457 62 31.6494C62 29.5532 61.7985 27.5174 61.3953 25.5421V25.5018C61.355 25.3204 61.3147 25.1592 61.2744 24.9778L61.1736 24.494C60.5286 21.773 59.5208 19.193 58.2107 16.7944L58.0293 16.4719C57.9486 16.3308 57.8882 16.2099 57.8076 16.0688C57.7269 15.9076 57.6262 15.7665 57.5455 15.6254C57.5455 15.6052 57.5052 15.5649 57.4851 15.5447L57.2432 15.1416C56.4773 13.9323 55.6307 12.7834 54.7035 11.6748L54.4617 11.3926C54.4012 11.3321 54.3407 11.2717 54.3004 11.1911C54.2198 11.1104 54.1593 11.0298 54.0787 10.9492C53.9779 10.8282 53.857 10.7073 53.7562 10.5864L53.4337 10.2437C52.0631 8.81263 50.5514 7.50249 48.9188 6.33344L48.3947 5.97061C48.3544 5.95045 48.3141 5.91016 48.2737 5.89C48.1528 5.80938 48.0117 5.72874 47.8908 5.62796C47.7497 5.52718 47.6086 5.44656 47.4473 5.34578C47.4473 5.34578 47.4473 5.34578 47.4272 5.34578L47.1853 5.2047C44.6658 3.65269 41.9044 2.46348 38.9818 1.67739L38.8407 1.63707C38.7601 1.63707 38.6795 1.59676 38.5989 1.57661C38.4779 1.53629 38.3368 1.51613 38.2159 1.47582C38.0546 1.43551 37.9135 1.39519 37.7523 1.37503H37.712C35.5553 0.891288 33.318 0.649414 31.0202 0.649414C28.7224 0.649414 26.4851 0.911444 24.3284 1.37503H24.2881C24.1067 1.41535 23.9252 1.45567 23.764 1.51614L23.0182 1.69754C9.77571 5.245 0 17.3386 0 31.6696C0 36.9908 1.35045 41.9895 3.7087 46.3633V46.4036C3.74902 46.4641 3.78937 46.5246 3.80952 46.6052C3.80952 46.6052 3.80952 46.6253 3.80952 46.6455C3.99093 46.968 4.17231 47.2703 4.35371 47.5928C4.35371 47.5928 4.35373 47.613 4.37389 47.6332C4.37389 47.6332 4.43433 47.7541 4.47464 47.8146L4.69639 48.1572C5.48248 49.4069 6.36932 50.5961 7.31665 51.7249L7.45776 51.8861C7.5787 52.0272 7.71979 52.1884 7.84073 52.3295C7.86089 52.3497 7.88104 52.3698 7.9012 52.39C8.04229 52.5512 8.18336 52.7125 8.32445 52.8536C8.32445 52.8536 8.32447 52.8536 8.34463 52.8738L8.38492 52.9141C8.38492 52.9141 8.48573 53.0148 8.5462 53.0753L8.92917 53.4784C10.7634 55.3328 12.8394 56.9452 15.0969 58.2957L15.3992 58.4772C15.5202 58.5578 15.6613 58.6182 15.7822 58.6988C15.8225 58.719 15.883 58.7593 15.9233 58.7795C16.0644 58.8601 16.1853 58.9205 16.3264 59.0012L16.7698 59.243C18.4025 60.0896 20.1158 60.7749 21.9097 61.3191L22.4136 61.4602C22.474 61.4602 22.5143 61.4804 22.5748 61.5006C22.7159 61.5409 22.8771 61.5812 23.0182 61.6215C23.1795 61.6618 23.3206 61.7021 23.4818 61.7424L23.8043 61.823C26.1021 62.3672 28.5007 62.6494 30.9597 62.6494C33.7614 62.6494 36.4623 62.2664 39.0423 61.5811L39.3849 61.4804C39.909 61.3393 40.4532 61.1579 40.9571 60.9967H41.0176V60.9765C42.5897 60.4323 44.1216 59.7671 45.5728 58.9811L46.1977 58.6384C46.3589 58.5376 46.5403 58.4368 46.7016 58.3562C46.7016 58.3562 46.7419 58.336 46.762 58.3159C46.9233 58.2151 47.1047 58.1143 47.2659 58.0135L47.4675 57.8926C54.3206 53.5591 59.3596 46.6254 61.2139 38.5025C61.2744 38.2606 61.3147 38.0389 61.3752 37.797H61.3953ZM37.4701 12.2593C37.591 11.8159 37.712 11.3724 37.8128 10.9492C38.0143 10.1228 38.2159 9.25606 38.3569 8.40951C38.6593 6.75671 38.8407 5.08376 38.9012 3.43096C41.2595 4.09611 43.5169 5.04343 45.593 6.25279C44.4643 7.07919 43.396 7.94591 42.368 8.87309C41.5013 9.65917 40.6749 10.5259 39.8888 11.3523C39.6873 11.574 39.4655 11.7957 39.2438 12.0174L39.1632 12.1182C38.6795 12.6221 38.1554 13.1462 37.5911 13.4888C37.5104 13.5292 37.4701 13.5493 37.45 13.5493C37.3693 13.4888 37.3088 13.3477 37.3088 13.1865C37.3088 12.9043 37.3693 12.5818 37.4701 12.2593ZM1.97531 27.4368C2.70093 26.7717 3.42654 26.0662 4.11185 25.3809L4.2126 25.2801C5.84524 23.6475 7.49804 21.9947 9.13068 20.362C10.985 18.4875 12.8394 16.5727 14.6938 14.678C15.2178 14.1338 15.7217 13.6702 16.2458 13.2671C16.8303 12.8035 17.697 12.1787 18.5638 12.1182C18.6041 12.1182 18.6645 12.1182 18.7048 12.1182C19.4103 12.1182 20.1158 12.5012 20.7003 13.1865C21.305 13.9121 21.6073 14.8796 21.7887 15.6455L21.8693 15.968H23.8446L23.7237 15.444C23.0989 12.7229 21.829 11.0298 19.9746 10.405C19.5917 10.2639 19.1885 10.2034 18.7653 10.2034C16.8504 10.2034 15.1574 11.5941 13.9077 12.8035C13.303 13.3679 12.7185 13.9726 12.1743 14.5571C11.9525 14.799 11.7309 15.0207 11.5091 15.2626C10.6827 16.1091 9.83615 16.9758 9.00975 17.8224C7.3368 19.5356 5.62356 21.2489 3.93045 22.942C3.64827 23.2242 3.36606 23.5064 3.08387 23.7886C2.96294 23.9095 2.84201 24.0304 2.72108 24.1514C5.50261 13.7307 13.8875 5.56751 24.4493 3.12863C27.1704 6.05126 28.541 8.93355 28.6418 11.8965C28.6821 13.126 28.4805 14.2951 28.0572 15.3835L27.8355 15.968H29.8914L29.9922 15.6858C30.738 13.5695 30.7581 11.0701 30.0124 8.63122C29.4077 6.63577 28.2789 4.64032 26.6463 2.70534C28.0774 2.48362 29.5488 2.38284 31.0404 2.38284C33.0963 2.38284 35.1119 2.60455 37.067 3.00767C37.0267 4.55968 36.8856 6.09156 36.6437 7.56295C36.5026 8.38935 36.3414 9.21574 36.1398 10.0421C36.0592 10.3445 35.9785 10.6468 35.8979 10.9492C35.7568 11.4531 35.5956 11.9771 35.515 12.5012C35.3537 13.5896 35.6157 14.4765 36.301 15.0408C36.6639 15.323 37.0468 15.4843 37.4902 15.4843C37.974 15.4843 38.498 15.3029 38.9818 14.9401C39.909 14.2548 40.6951 13.4082 41.461 12.602C41.7633 12.2795 42.0858 11.9368 42.4083 11.6143C43.4363 10.5864 44.5247 9.61888 45.6333 8.73201C46.1977 8.28858 46.8024 7.84513 47.407 7.42185C49.2009 8.63121 50.8336 10.022 52.305 11.5942C51.922 12.0376 51.5592 12.5012 51.1964 12.9446C50.1281 14.2548 49.0195 15.6052 47.7094 16.7138C46.3589 17.8627 44.8069 18.7899 43.3557 19.6163L42.9727 19.838L43.2146 20.221C43.396 20.5031 43.5572 20.8055 43.6782 21.1078L43.8596 21.5513L44.2627 21.3094C45.4721 20.6241 46.883 19.7775 48.173 18.7899C49.4428 17.8224 50.6118 16.6533 51.9018 15.1215C52.1235 14.8393 52.3654 14.5571 52.5871 14.2749C52.9096 13.8718 53.2523 13.4687 53.5748 13.0655C54.4213 14.0734 55.1873 15.1618 55.8927 16.2704C55.4291 16.6533 54.9454 17.0565 54.5019 17.4797C52.9096 18.9713 51.4584 20.6241 50.0676 22.2366C48.8985 23.6072 47.6691 24.9979 46.3791 26.2879C46.0163 26.6507 45.6333 26.9934 45.1899 27.3965L45.0488 27.5174V30.0369L45.7542 29.4524C46.1977 29.0695 46.6008 28.7268 46.9837 28.364C48.4753 26.9934 49.7854 25.5018 51.0956 23.97L51.4584 23.5467C53.1515 21.6117 54.8849 19.5961 56.8602 17.9433C58.1099 20.2613 59.0371 22.7606 59.6216 25.401C58.3115 26.167 56.961 27.1345 55.3888 28.4648C54.7438 29.009 54.0988 29.5734 53.474 30.1377C51.922 31.5083 50.3095 32.9394 48.5559 34.0883C47.4473 34.8139 46.3992 35.3582 45.331 35.7411L45.0488 35.8419V37.8575L45.6131 37.6761C48.435 36.7288 50.8537 34.8946 52.6275 33.403C53.3531 32.7983 54.0585 32.1735 54.764 31.5486C56.2555 30.2385 57.8075 28.8679 59.4603 27.7391C59.6417 27.6182 59.8232 27.4973 60.0046 27.3764C60.2061 28.7873 60.3271 30.2184 60.3271 31.6897C60.3271 33.9069 60.0852 36.0636 59.6216 38.1195C58.251 39.5909 56.3764 40.5786 54.5422 41.5259C53.4337 42.1104 52.2848 42.6949 51.2569 43.4004C49.3823 44.6904 48.0319 46.2827 47.2257 48.1371C46.4194 50.0116 46.0767 51.9869 45.8147 54.3653C45.7139 55.3328 45.6534 56.2197 45.6131 57.0662C44.182 57.8926 42.6905 58.598 41.1184 59.1826C41.1184 58.7794 41.0982 58.3763 41.0579 57.9934C40.9168 56.5018 40.5741 55.0909 40.2516 53.9017C40.2113 53.7404 40.1509 53.559 40.1106 53.3978C39.8082 52.3094 39.5058 51.1806 39.3647 50.0721C39.264 49.1449 39.2841 48.2782 39.4252 47.5526L39.526 47.0486H37.5709L37.5104 47.4114C37.1678 49.4674 37.6313 51.6039 38.1151 53.418C38.1755 53.6397 38.236 53.8614 38.2965 54.1033C38.5988 55.1917 38.9012 56.3406 39.0624 57.4694C39.1632 58.2554 39.2035 59.0616 39.1833 59.8679C36.7848 60.5733 34.2653 60.9765 31.645 61.037C31.8667 60.1299 32.0078 59.243 32.1086 58.3562C32.3908 55.9576 32.3303 53.3978 31.9272 50.0721C31.8062 49.1046 31.6853 48.1572 31.5644 47.4316L31.5039 47.0688H29.5689L29.6496 47.5526C30.2543 51.6644 30.7985 56.4212 29.6496 60.9967C27.896 60.916 26.1827 60.6943 24.5098 60.3113C25.6788 57.2879 25.9006 53.8815 25.1145 50.7574C24.8121 49.548 24.3485 48.3789 23.7237 47.2905L23.6028 47.0688H21.7686V47.4921C21.7686 47.6533 21.8089 47.8146 21.9097 47.9758C23.9454 51.4628 24.2276 55.9778 22.6554 59.8478C20.7809 59.2834 18.9668 58.5578 17.2737 57.6507C17.8583 55.3933 17.9994 53.1761 17.6769 51.0597C17.3342 48.8224 16.3466 46.8672 15.5 45.416C15.4194 45.2749 15.3388 45.154 15.2581 45.0129C14.4519 43.6019 13.6054 42.1507 13.3434 40.5584C13.0612 38.9056 13.565 37.1924 14.0488 35.5396L14.1092 35.3582L14.1697 35.1767C14.6938 33.403 15.2178 31.589 15.0163 29.6943C14.9155 28.7268 14.6736 27.5174 13.686 26.7918C13.2224 26.4492 12.6378 26.2879 11.9727 26.2879C11.5897 26.2879 11.2068 26.3484 10.8238 26.4492C8.80824 27.0135 7.35697 28.6663 6.18792 30.2385C4.85762 32.0324 3.76923 33.9674 2.82189 35.7814C2.66065 36.0838 2.51953 36.366 2.35828 36.6683C2.27766 36.8295 2.19705 36.9908 2.11642 37.152C1.79392 35.3984 1.61252 33.5844 1.61252 31.73C1.61252 30.299 1.71329 28.8679 1.91485 27.4973L1.97531 27.4368ZM8.06242 46.5447C8.0221 47.4316 7.9012 48.3588 7.7198 49.4875C7.03449 48.5805 6.38947 47.6533 5.80495 46.6657C5.94604 46.4641 6.08712 46.2626 6.22821 46.061C6.51039 45.6579 6.79261 45.2548 7.07479 44.8516C7.1151 44.7912 7.15541 44.7307 7.19572 44.6702C7.33681 44.4485 7.5182 44.2268 7.67945 44.126C7.67945 44.126 7.78026 44.1663 7.84073 44.2469C8.02213 44.4283 8.06242 44.7912 8.06242 45.0935C8.08257 45.5974 8.06246 46.1215 8.0423 46.5447H8.06242ZM9.33226 51.4024C9.43304 50.8783 9.51369 50.3543 9.61447 49.8302C9.81603 48.5201 9.93697 47.4719 9.99744 46.4843V46.2827C10.0579 45.3152 10.1184 44.0857 9.49354 43.1988C9.07026 42.574 8.38493 42.2112 7.69962 42.2112C7.23603 42.2112 6.81275 42.3724 6.42978 42.6748C6.10729 42.9368 5.84527 43.2996 5.62355 43.602C5.58324 43.6624 5.54293 43.7027 5.50262 43.7632C5.26075 44.0857 5.03906 44.388 4.77703 44.771C3.99095 43.1988 3.3258 41.5461 2.82189 39.8126C3.08392 39.3692 3.36607 38.8855 3.66841 38.3009C3.80951 38.0187 3.97076 37.7365 4.11185 37.4543C4.89793 35.9628 5.70416 34.4309 6.61118 32.9797C7.59882 31.4075 8.70745 29.7951 10.1788 28.8074C10.8843 28.3438 11.4487 28.1221 12.013 28.1221C12.0534 28.1221 12.0937 28.1221 12.134 28.1221C12.3557 28.1221 12.5572 28.2027 12.6782 28.3438C12.8797 28.5454 12.9805 28.888 13.041 29.271C13.3836 30.9238 12.8798 32.7177 12.4565 34.1689C12.4162 34.3302 12.3557 34.5116 12.3154 34.6728C11.8518 36.2853 11.3681 37.9381 11.3882 39.6514C11.4285 42.0096 12.5572 43.9648 13.6255 45.8595C14.3511 47.1293 15.0969 48.4394 15.4799 49.8302C16.0644 51.9264 16.0845 54.1637 15.5605 56.5623C13.2425 55.1312 11.1262 53.3777 9.31214 51.3621L9.33226 51.4024ZM47.5884 55.8165C47.5884 55.615 47.6287 55.4134 47.6287 55.2118C47.8303 52.9342 48.1125 51.0597 48.7776 49.3061C49.1203 48.3991 49.5435 47.6332 50.0676 46.968C50.6118 46.3029 51.277 45.678 52.1034 45.0935C53.1515 44.3477 54.3407 43.7431 55.4695 43.1384C56.0137 42.8562 56.5982 42.5538 57.1424 42.2313C57.6866 41.929 58.1905 41.6065 58.6541 41.3042C56.578 47.23 52.6678 52.2892 47.5884 55.7762V55.8165ZM31.3023 19.7775C31 19.2736 31.3628 18.6286 31.9473 18.6286H36.9057C40.2113 18.6286 42.8921 21.3094 42.8921 24.615C42.8921 27.9205 40.2113 30.6013 36.9057 30.6013H33.0156C32.3101 30.6013 31.7458 30.037 31.7659 29.3315L31.8466 22.297C31.8466 21.1884 31.6652 20.3621 31.3225 19.7574L31.3023 19.7775ZM17.3544 19.7372C17.3544 19.7372 17.2939 19.5961 17.2939 19.4752V19.0116C17.2939 18.7495 17.4551 18.6286 17.7575 18.6286H28.541C29.1255 18.6286 29.4883 19.2736 29.186 19.7775C28.8232 20.3822 28.6619 21.2288 28.6619 22.3373V43.3601C28.6619 44.0253 28.1177 44.5896 27.4324 44.5896H20.801C20.3375 44.5896 19.9948 44.4888 19.8134 44.2873C19.6119 44.0857 19.5111 43.7229 19.5111 43.2391V22.68C19.4708 22.035 19.3498 21.5513 19.1684 21.2288C18.9265 20.8458 18.4428 20.4427 17.6769 20.0194C17.4955 19.9186 17.3745 19.838 17.3544 19.7574V19.7372ZM42.8115 41.9895C43.0533 42.3724 43.5371 42.7756 44.303 43.1988C44.4844 43.2996 44.6053 43.3802 44.6255 43.4609C44.6658 43.5213 44.686 43.602 44.686 43.7229V44.1865C44.686 44.4485 44.5247 44.5694 44.2224 44.5694H32.9753C32.29 44.5694 31.7458 44.0252 31.7458 43.3399V33.5642C31.7458 32.8789 32.3102 32.3146 32.9955 32.3146H36.7042C40.6145 32.5161 42.4486 34.3906 42.4486 38.2001V39.5506C42.4486 41.1832 42.5898 41.5864 42.8115 41.9693V41.9895Z" fill="white"/>
</svg>
