<svg width="24" height="24" viewBox="0 0 24 24" fill="none" xmlns="http://www.w3.org/2000/svg">
<g clip-path="url(#clip0_788_1907)">
<path d="M23.2969 18.375H0.703125C0.314812 18.375 0 18.6898 0 19.0781V23.2969C0 23.6852 0.314812 24 0.703125 24H23.2969C23.6852 24 24 23.6852 24 23.2969V19.0781C24 18.6898 23.6852 18.375 23.2969 18.375ZM22.5938 22.5938H1.40625V19.7812H2.85938V20.4844C2.85938 20.8727 3.17419 21.1875 3.5625 21.1875C3.95081 21.1875 4.26562 20.8727 4.26562 20.4844V19.7812H5.67188V20.4844C5.67188 20.8727 5.98669 21.1875 6.375 21.1875C6.76331 21.1875 7.07812 20.8727 7.07812 20.4844V19.7812H8.48438V20.4844C8.48438 20.8727 8.79919 21.1875 9.1875 21.1875C9.57581 21.1875 9.89062 20.8727 9.89062 20.4844V19.7812H11.2969V20.4844C11.2969 20.8727 11.6117 21.1875 12 21.1875C12.3883 21.1875 12.7031 20.8727 12.7031 20.4844V19.7812H14.1094V20.4844C14.1094 20.8727 14.4242 21.1875 14.8125 21.1875C15.2008 21.1875 15.5156 20.8727 15.5156 20.4844V19.7812H16.9219V20.4844C16.9219 20.8727 17.2367 21.1875 17.625 21.1875C18.0133 21.1875 18.3281 20.8727 18.3281 20.4844V19.7812H19.7344V20.4844C19.7344 20.8727 20.0492 21.1875 20.4375 21.1875C20.8258 21.1875 21.1406 20.8727 21.1406 20.4844V19.7812H22.5938V22.5938Z" fill="#804524"/>
<path d="M0.00117786 2.44877C0.00295911 2.62962 0.0789904 2.8068 0.206584 2.93473L1.94096 4.6691C2.21551 4.9437 2.66072 4.9437 2.93532 4.6691C3.20991 4.39451 3.20991 3.94934 2.93532 3.67474L2.40127 3.14065H21.6L21.066 3.67474C20.7914 3.94934 20.7914 4.39451 21.066 4.6691C21.2032 4.8064 21.3832 4.87502 21.5631 4.87502C21.7431 4.87502 21.923 4.8064 22.0603 4.66905L23.7946 2.93468C24.0665 2.67274 24.0664 2.20216 23.7946 1.94032L22.0603 0.205945C21.7857 -0.0686484 21.3405 -0.0686484 21.0659 0.205945C20.7913 0.480539 20.7913 0.925711 21.0659 1.2003L21.6 1.7344H2.40123L2.93532 1.2003C3.20991 0.925711 3.20991 0.480539 2.93532 0.205945C2.66077 -0.0686484 2.21555 -0.0686484 1.94096 0.205945L0.206584 1.94032C0.0739279 2.07321 -0.00350964 2.26066 0.00117786 2.44877Z" fill="#804524"/>
<path d="M6.46875 4.59375C6.08044 4.59375 5.76562 4.90856 5.76562 5.29688V16.3594C5.76562 16.7477 6.08044 17.0625 6.46875 17.0625H17.5312C17.9196 17.0625 18.2344 16.7477 18.2344 16.3594V5.29688C18.2344 4.90856 17.9196 4.59375 17.5312 4.59375H6.46875ZM10.9219 6H13.0781V8.53345L12.4357 8.02627C12.1802 7.82461 11.8197 7.82461 11.5643 8.02627L10.9219 8.53345V6ZM16.8281 15.6562H7.17188V6H9.51562V9.98438C9.51562 10.2539 9.66961 10.4996 9.91209 10.6171C10.1546 10.7347 10.443 10.7032 10.6544 10.5363L12 9.474L13.3456 10.5363C13.4721 10.6362 13.6261 10.6875 13.7813 10.6875C13.8856 10.6875 13.9905 10.6644 14.0879 10.6172C14.3304 10.4997 14.4844 10.2539 14.4844 9.98442V6.00005H16.8281V15.6562Z" fill="#804524"/>
<path d="M9.32812 12.8438C8.93981 12.8438 8.625 13.1586 8.625 13.5469C8.625 13.9352 8.93981 14.25 9.32812 14.25H14.6719C15.0602 14.25 15.375 13.9352 15.375 13.5469C15.375 13.1586 15.0602 12.8438 14.6719 12.8438H9.32812Z" fill="#804524"/>
</g>
<defs>
<clipPath id="clip0_788_1907">
<rect width="24" height="24" fill="white"/>
</clipPath>
</defs>
</svg>
