<svg width="24" height="24" viewBox="0 0 24 24" fill="none" xmlns="http://www.w3.org/2000/svg">
<g clip-path="url(#clip0_788_1866)">
<path d="M23.087 5.54559L12.489 0.175729L12.4847 0.173526C12.0127 -0.0614113 11.4521 -0.0561613 10.9846 0.187589C10.9478 0.203151 0.919547 5.52562 0.88575 5.54737C0.339375 5.8334 0 6.39393 0 7.01085V16.9896C0 17.6066 0.339375 18.1671 0.88575 18.4531L10.98 23.8106L10.9846 23.813C11.223 23.9373 11.4857 23.9996 11.7485 23.9996C12.0009 23.9996 12.2535 23.9421 12.4847 23.827L23.087 18.4549C23.6503 18.1732 24 17.6074 24 16.9775V7.02309C24 6.39314 23.6502 5.82726 23.087 5.54559ZM11.6361 1.43324C11.705 1.3979 11.7872 1.3972 11.8567 1.43128L21.7768 6.45764L17.9159 8.37979L8.21756 3.24759L11.6361 1.43324ZM11.0355 22.2486L1.54266 17.2103L1.53811 17.2079C1.4565 17.1653 1.40573 17.0818 1.40573 16.9897V7.64521L11.0355 12.6666V22.2486ZM11.7458 11.4516L2.169 6.45778L6.717 4.04404L16.3674 9.15084L11.7458 11.4516ZM22.5942 16.9775C22.5942 17.0714 22.5419 17.1559 22.4577 17.1978L12.4413 22.273V12.6757L17.0531 10.3797V12.787C17.0531 13.1751 17.3678 13.4899 17.756 13.4899C18.1442 13.4899 18.4589 13.1751 18.4589 12.787V9.67987L22.5942 7.62112V16.9775Z" fill="#804524"/>
<path d="M8.49713 13.8005C8.30073 13.4656 7.87004 13.3535 7.53521 13.5499L5.35848 14.8269L4.9014 13.9988C4.71381 13.659 4.28617 13.5355 3.94637 13.7231C3.60653 13.9107 3.48306 14.3383 3.67065 14.6781L4.47639 16.138C4.47826 16.1414 4.48042 16.1445 4.48234 16.1479C4.48346 16.1499 4.48435 16.152 4.48553 16.154C4.4882 16.1586 4.4912 16.1629 4.49396 16.1674C4.49814 16.1742 4.50235 16.181 4.50676 16.1876C4.51121 16.1943 4.51581 16.2008 4.52045 16.2073C4.52514 16.2138 4.52982 16.2204 4.5347 16.2268C4.53953 16.233 4.54454 16.2391 4.54951 16.2452C4.55457 16.2514 4.55959 16.2575 4.56479 16.2634C4.57004 16.2694 4.57543 16.2751 4.58087 16.2808C4.58617 16.2864 4.59146 16.2921 4.59695 16.2975C4.60267 16.3032 4.60857 16.3086 4.61443 16.3141C4.61992 16.3191 4.62535 16.3243 4.63093 16.3291C4.63717 16.3346 4.64364 16.3397 4.65006 16.3449C4.65559 16.3494 4.66107 16.3539 4.66674 16.3582C4.67349 16.3633 4.68039 16.3682 4.68728 16.373C4.69295 16.377 4.69853 16.381 4.70429 16.3848C4.71142 16.3895 4.71873 16.3939 4.72604 16.3984C4.73181 16.4019 4.73753 16.4055 4.74338 16.4088C4.75089 16.4131 4.75857 16.417 4.76621 16.421C4.77207 16.4241 4.77788 16.4272 4.78384 16.4301C4.79162 16.4339 4.79959 16.4374 4.80751 16.4409C4.81356 16.4436 4.81951 16.4464 4.8256 16.4488C4.83348 16.4521 4.84154 16.4549 4.84951 16.4578C4.85584 16.4601 4.86207 16.4626 4.86845 16.4648C4.87637 16.4675 4.88443 16.4697 4.8924 16.4721C4.89896 16.474 4.90548 16.4761 4.91213 16.4779C4.92001 16.4799 4.92798 16.4816 4.9359 16.4834C4.94279 16.485 4.94968 16.4868 4.95662 16.4881C4.96417 16.4896 4.97181 16.4907 4.9794 16.4919C4.98685 16.4931 4.99421 16.4946 5.00171 16.4955C5.00889 16.4965 5.01606 16.4969 5.02328 16.4977C5.03124 16.4985 5.03921 16.4995 5.04718 16.5C5.05351 16.5004 5.05984 16.5004 5.06617 16.5006C5.07498 16.5009 5.08374 16.5015 5.09256 16.5015C5.10742 16.5015 5.12228 16.501 5.13714 16.5C5.14093 16.4998 5.14473 16.4993 5.14853 16.499C5.15945 16.4981 5.17037 16.4972 5.18129 16.4958C5.18692 16.4951 5.19249 16.494 5.19807 16.4931C5.20717 16.4917 5.21621 16.4904 5.22526 16.4887C5.23173 16.4874 5.2382 16.4858 5.24467 16.4844C5.25278 16.4826 5.26088 16.4808 5.26895 16.4787C5.27593 16.4769 5.28282 16.4748 5.28976 16.4727C5.29731 16.4705 5.30481 16.4683 5.31231 16.4659C5.31943 16.4635 5.32646 16.4608 5.33354 16.4583C5.34081 16.4556 5.34807 16.453 5.35529 16.45C5.36237 16.4472 5.36935 16.444 5.37638 16.4409C5.38351 16.4377 5.39068 16.4346 5.39776 16.4311C5.4046 16.4278 5.41135 16.4243 5.4181 16.4207C5.4226 16.4184 5.4272 16.4163 5.43165 16.4138C5.43353 16.4128 5.43521 16.4114 5.43714 16.4104C5.44065 16.4084 5.44421 16.4068 5.44768 16.4047L8.24682 14.7625C8.58137 14.566 8.69359 14.1353 8.49713 13.8005Z" fill="#804524"/>
</g>
<defs>
<clipPath id="clip0_788_1866">
<rect width="24" height="24" fill="white"/>
</clipPath>
</defs>
</svg>
