<svg width="24" height="24" viewBox="0 0 24 24" fill="none" xmlns="http://www.w3.org/2000/svg">
<g clip-path="url(#clip0_788_1890)">
<path d="M23.9554 20.0043L23.3027 17.5683C23.2022 17.1933 22.8167 16.9706 22.4416 17.0712C22.0665 17.1717 21.8439 17.5572 21.9444 17.9323L22.3114 19.3018L20.1079 18.0296C20.1251 17.927 20.135 17.8222 20.135 17.7155V10.8683C20.135 10.1536 19.7379 9.51085 19.0989 9.19088C12.3703 5.82212 12.8168 6.04215 12.7021 5.99588V3.43055L13.7047 4.43307C13.9793 4.70762 14.4245 4.70766 14.699 4.43307C14.9736 4.15848 14.9736 3.7133 14.699 3.43876L12.9158 1.65549C12.4103 1.14999 11.5878 1.14999 11.0823 1.65549L9.29906 3.43876C9.02447 3.71335 9.02447 4.15852 9.29906 4.43307C9.57361 4.70766 10.0188 4.70766 10.2934 4.43307L11.2959 3.43055V5.99593C11.1824 6.04173 11.7005 5.78579 4.89919 9.19093C4.26014 9.5109 3.86316 10.1536 3.86316 10.8683V17.7155C3.86316 17.8226 3.8731 17.9277 3.89039 18.0307L1.68867 19.3019L2.05561 17.9324C2.15611 17.5573 1.93355 17.1717 1.55846 17.0712C1.18322 16.9707 0.797815 17.1933 0.697315 17.5684L0.0445804 20.0043C-0.140857 20.6964 0.269065 21.4067 0.961315 21.5921L3.39731 22.2449C3.77255 22.3454 4.158 22.1226 4.25846 21.7477C4.35896 21.3726 4.13639 20.9871 3.7613 20.8866L2.3918 20.5196L4.6298 19.2275C4.8195 19.3659 4.34095 19.1133 11.1594 22.5266C11.6668 22.7806 12.296 22.7983 12.8387 22.5266C19.6558 19.114 19.1792 19.3656 19.3692 19.2268L21.6083 20.5195L20.2388 20.8865C19.8637 20.987 19.6411 21.3726 19.7416 21.7477C19.8421 22.1229 20.2278 22.3454 20.6027 22.2448L23.0387 21.5921C23.7308 21.4067 24.1409 20.6966 23.9554 20.0043ZM11.2959 21.0225L5.52872 18.1354C5.4556 18.0988 5.39592 18.0447 5.35181 17.9804C5.34595 17.9707 5.33977 17.9613 5.33353 17.9521C5.29252 17.8817 5.26931 17.8008 5.26931 17.7155V11.2819L11.2959 14.2991V21.0225ZM6.13706 10.1438L11.7888 7.31415C11.9204 7.24824 12.0775 7.24824 12.2093 7.31415L17.861 10.1437L11.999 13.0785L6.13706 10.1438ZM18.7287 17.7155C18.7287 17.8944 18.6293 18.0553 18.4693 18.1354L12.7021 21.0225V14.2991L18.7287 11.2819L18.7287 17.7155Z" fill="#804524"/>
</g>
<defs>
<clipPath id="clip0_788_1890">
<rect width="24" height="24" fill="white"/>
</clipPath>
</defs>
</svg>
