<svg width="24" height="24" viewBox="0 0 24 24" fill="none" xmlns="http://www.w3.org/2000/svg">
<path d="M23.9148 19.9231L21.0302 8.3364C20.7158 7.07387 19.5876 6.19215 18.2866 6.19215H14.8105C15.2529 5.6042 15.5155 4.87365 15.5155 4.08287C15.5155 2.1444 13.9385 0.567383 12 0.567383C10.0615 0.567383 8.48453 2.1444 8.48453 4.08287C8.48453 4.8737 8.74717 5.6042 9.18953 6.19215H5.74553C4.44794 6.19215 3.32045 7.07096 3.00372 8.32927L0.0870141 19.9159C-0.362517 21.7014 0.986311 23.4334 2.82883 23.4334H21.1712C23.0087 23.4334 24.3593 21.7086 23.9148 19.9231ZM9.89069 4.08282C9.89069 2.91971 10.8369 1.97354 12 1.97354C13.163 1.97354 14.1092 2.91976 14.1092 4.08282C14.1092 5.24588 13.1631 6.1921 12 6.1921C10.837 6.1921 9.89069 5.24588 9.89069 4.08282ZM21.1712 22.0273H2.82883C1.90351 22.0273 1.22453 21.1576 1.45065 20.2592L4.36731 8.67259C4.52655 8.04006 5.09331 7.59835 5.74548 7.59835H18.2865C18.9405 7.59835 19.5076 8.04155 19.6656 8.67615L22.5502 20.2628C22.7734 21.1593 22.0959 22.0273 21.1712 22.0273Z" fill="#804524"/>
<path d="M8.18472 14.7061L10.3383 12.7266C10.6242 12.4638 10.6429 12.019 10.3802 11.7331C10.1175 11.4472 9.67272 11.4284 9.38669 11.6912L7.69131 13.2496V12.1416C7.69131 11.7532 7.3765 11.4385 6.98823 11.4385C6.59997 11.4385 6.28516 11.7533 6.28516 12.1416V17.4847C6.28516 17.8731 6.59997 18.1878 6.98823 18.1878C7.3765 18.1878 7.69131 17.873 7.69131 17.4847V16.1841L9.56397 17.9908C9.84344 18.2604 10.2886 18.2524 10.5581 17.9729C10.8278 17.6935 10.8198 17.2484 10.5403 16.9788L8.18472 14.7061Z" fill="#804524"/>
<path d="M17.012 14.1101H15.4136C15.0253 14.1101 14.7106 14.4249 14.7106 14.8132C14.7106 15.2015 15.0254 15.5163 15.4136 15.5163H16.2217C16.0457 16.1924 15.5879 16.7817 14.7058 16.7817C13.6204 16.7817 12.7373 15.8986 12.7373 14.8131C12.7373 13.7277 13.6203 12.8446 14.7058 12.8446C15.1004 12.8446 15.4808 12.9607 15.8059 13.1804C16.1277 13.3979 16.5648 13.3131 16.7821 12.9914C16.9995 12.6696 16.9149 12.2325 16.5931 12.0152C16.0346 11.6379 15.382 11.4385 14.7058 11.4385C12.8449 11.4385 11.3311 12.9524 11.3311 14.8132C11.3311 16.674 12.8449 18.1879 14.7058 18.1879C16.4776 18.1879 17.7151 16.8002 17.7151 14.8132C17.7151 14.4249 17.4003 14.1101 17.012 14.1101Z" fill="#804524"/>
</svg>
