<svg width="24" height="24" viewBox="0 0 24 24" fill="none" xmlns="http://www.w3.org/2000/svg">
<g clip-path="url(#clip0_234_102)">
<path d="M5.27539 9.52588C4.88702 9.52588 4.57227 9.84082 4.57227 10.229V11.7436C4.57227 12.1318 4.88702 12.4468 5.27539 12.4468C5.66357 12.4468 5.97851 12.1318 5.97851 11.7436V10.229C5.97851 9.84082 5.66357 9.52588 5.27539 9.52588Z" fill="#5F361F"/>
<path d="M16.9997 2.76874C16.4367 2.76874 15.889 2.83557 15.3642 2.96191C13.9333 1.84991 12.1623 1.23358 10.3362 1.21912C10.3133 1.21893 10.2907 1.21875 10.268 1.21875C8.06308 1.21875 5.9896 2.07239 4.42277 3.62677C2.83781 5.19928 1.96495 7.29565 1.96495 9.52972C1.96495 10.082 1.82817 10.6322 1.56962 11.1204L0.163556 13.775C-0.0647762 14.2042 -0.0534237 14.7112 0.193768 15.1309C0.441144 15.5508 0.879131 15.8066 1.36546 15.815L1.96275 15.8152V17.9401C1.96275 19.2109 2.99546 20.2447 4.26511 20.2447H5.76145V20.8661C5.76145 21.9221 6.61985 22.7812 7.6749 22.7812H14.2515C15.3065 22.7812 16.1649 21.9221 16.1649 20.8661V19.4899C16.1649 18.5758 16.2587 17.6616 16.4438 16.7644C16.6273 16.7789 16.8126 16.7862 16.9997 16.7862C20.8598 16.7862 24 13.6421 24 9.77746C24 5.91284 20.8596 2.76874 16.9997 2.76874ZM14.7589 19.4899V20.8661C14.7589 21.1466 14.5313 21.375 14.2515 21.375H7.6749C7.39512 21.375 7.16752 21.1466 7.16752 20.8661V20.0726C7.16752 19.3921 6.61417 18.8384 5.93412 18.8384H4.26511C3.77091 18.8384 3.369 18.4354 3.369 17.9401V15.6431C3.369 14.9624 2.81565 14.4089 2.13542 14.4089H1.41911L2.81236 11.7786C3.17784 11.0883 3.37119 10.3107 3.37119 9.52972C3.37119 7.67321 4.09629 5.93151 5.41318 4.62506C6.71451 3.33398 8.4368 2.625 10.2684 2.625C10.2871 2.625 10.3061 2.625 10.3248 2.62518C11.5386 2.63489 12.7224 2.96411 13.7555 3.56781C11.5245 4.74096 9.99942 7.08416 9.99942 9.77746C9.99942 12.9686 12.1405 15.6685 15.0601 16.5124C14.86 17.4928 14.7589 18.4913 14.7589 19.4899ZM16.9997 15.3799C13.9151 15.3799 11.4055 12.8666 11.4055 9.77746C11.4055 6.68829 13.9151 4.17498 16.9997 4.17498C20.0843 4.17498 22.5938 6.68829 22.5938 9.77746C22.5938 12.8666 20.0843 15.3799 16.9997 15.3799Z" fill="#5F361F"/>
<path d="M17.4686 5.854H16.0693C15.681 5.854 15.3662 6.16894 15.3662 6.55713C15.3662 6.94549 15.681 7.26025 16.0693 7.26025H17.4686C17.8524 7.26025 18.1646 7.57263 18.1646 7.95642C18.1646 8.34039 17.8524 8.65258 17.4686 8.65258C16.8263 8.65258 16.3037 9.17517 16.3037 9.8175V10.748C16.3037 11.1364 16.6185 11.4512 17.0068 11.4512C17.3952 11.4512 17.71 11.1364 17.71 10.748V10.0451C18.756 9.92498 19.5709 9.03418 19.5709 7.95642C19.5709 6.79718 18.6277 5.854 17.4686 5.854Z" fill="#5F361F"/>
<path d="M17.0068 11.9199C16.6185 11.9199 16.3037 12.2347 16.3037 12.623V13.1969C16.3037 13.5851 16.6185 13.9 17.0068 13.9C17.3952 13.9 17.71 13.5851 17.71 13.1969V12.623C17.71 12.2347 17.3952 11.9199 17.0068 11.9199Z" fill="#5F361F"/>
</g>
<defs>
<clipPath id="clip0_234_102">
<rect width="24" height="24" fill="white"/>
</clipPath>
</defs>
</svg>
