<svg width="114" height="71" viewBox="0 0 114 71" fill="none" xmlns="http://www.w3.org/2000/svg">
<path d="M102.085 70.2523C102.085 70.2523 102.176 70.3224 102.396 70.3224H107.759C108.941 70.3224 109.994 70.0518 110.886 69.5306C111.768 69.0094 112.459 68.2677 112.93 67.3255C113.402 66.3834 113.642 65.2808 113.642 64.048C113.642 62.0935 113.121 60.5499 112.099 59.4574C111.076 58.3749 109.623 57.8236 107.779 57.8236H100.893V57.964C101.394 58.2847 101.685 58.5353 101.815 58.7558C101.945 58.9763 102.005 59.3071 102.005 59.7782V69.9015C102.005 70.142 102.055 70.2222 102.085 70.2523ZM106.736 58.6656C106.736 58.6055 106.756 58.5554 106.786 58.5052C106.876 58.385 107.047 58.2446 107.368 58.2446C107.568 58.2446 107.738 58.3348 107.859 58.4952C107.959 58.6355 108.009 58.8059 108.009 58.9964V69.1598C108.009 69.3603 107.959 69.5306 107.859 69.6609C107.738 69.8213 107.578 69.9115 107.368 69.9115C107.047 69.9115 106.876 69.7712 106.786 69.6509C106.756 69.6008 106.736 69.5507 106.736 69.4905V58.6656ZM41.2954 69.9115V59.8082C41.2954 59.4474 41.2653 59.1868 41.2052 59.0064C41.135 58.816 41.0248 58.6456 40.8644 58.4952C40.7241 58.3649 40.5036 58.1945 40.1828 57.984V57.8437H51.5691C51.7795 57.8437 51.8597 57.8938 51.8798 57.9139C51.8998 57.9339 51.96 58.0241 51.96 58.2647V60.59C51.96 61.3418 51.7996 61.903 51.4989 62.2438C51.1982 62.5846 50.7171 62.755 50.0756 62.755H47.6701C47.4295 62.755 47.3493 62.6949 47.3293 62.6748C47.3092 62.6548 47.2491 62.5746 47.2491 62.334V58.9463C47.2491 58.3048 46.788 58.2547 46.6577 58.2547C46.357 58.2547 46.1866 58.395 46.0964 58.5152C46.0664 58.5654 46.0463 58.6155 46.0463 58.6756V63.607C46.0463 63.7473 46.1666 63.8676 46.3069 63.8676H49.9954V64.2585H46.3069C46.1666 64.2585 46.0463 64.3788 46.0463 64.5191V69.4504C46.0463 69.5106 46.0664 69.5607 46.0964 69.6108C46.1866 69.7311 46.357 69.8714 46.6577 69.8714C46.7981 69.8714 47.2491 69.8213 47.2491 69.1798V65.8321C47.2491 65.5916 47.3092 65.5114 47.3293 65.4913C47.3493 65.4713 47.4395 65.4111 47.6701 65.4111H50.0756C50.7271 65.4111 51.2082 65.5815 51.4989 65.9223C51.8096 66.2731 51.96 66.8244 51.96 67.5761V69.9015C51.96 70.142 51.9098 70.2222 51.8798 70.2523C51.8597 70.2723 51.7896 70.3224 51.5691 70.3224H41.6763C41.4658 70.3224 41.3856 70.2723 41.3656 70.2523C41.3455 70.2323 41.2854 70.142 41.2854 69.9015L41.2954 69.9115ZM27.9546 67.5962C27.9546 67.0048 28.1651 66.5337 28.5861 66.1629C29.0271 65.782 29.5784 65.5915 30.27 65.5915C31.0819 65.5915 31.7334 65.772 32.1944 66.1128C32.6455 66.4435 32.866 66.8845 32.866 67.4559C32.866 67.8768 32.7256 68.1976 32.455 68.4281C32.1643 68.6787 31.7334 68.809 31.1821 68.839C31.1119 68.839 31.0518 68.8691 31.0117 68.9192C30.8513 69.0796 30.8213 69.25 30.8213 69.3602C30.8213 69.5406 30.9115 69.701 31.0718 69.8013C31.2021 69.8814 31.3525 69.9215 31.5329 69.9215C32.2546 69.9215 32.866 69.691 33.3471 69.2199C33.8382 68.7488 34.0888 68.1575 34.0888 67.4659C34.0888 66.9046 33.9685 66.4335 33.738 66.0626C33.5074 65.6918 33.1366 65.361 32.6354 65.0804C32.1543 64.8098 31.5028 64.5492 30.691 64.2986C29.849 64.038 29.1975 63.6571 28.7765 63.1459C28.3556 62.6448 28.1551 62.0333 28.1551 61.3017C28.1551 60.57 28.3756 59.9486 28.8267 59.3772C29.2877 58.8059 29.9593 58.3549 30.8313 58.0141C31.7133 57.6733 32.7657 57.5029 33.9585 57.5029C35.6223 57.5029 36.9353 57.7836 37.8675 58.3449C38.7595 58.8861 39.2006 59.6178 39.2006 60.57C39.2006 61.1614 38.9801 61.6324 38.539 62.0033C38.088 62.3842 37.4866 62.5746 36.7649 62.5746C36.0433 62.5746 35.3918 62.3942 34.9407 62.0434C34.4997 61.7026 34.2892 61.2616 34.2892 60.7003C34.2892 60.2793 34.4296 59.9586 34.7002 59.7281C34.9909 59.4775 35.4219 59.3472 35.9731 59.3171C36.0433 59.3171 36.1034 59.287 36.1435 59.2369C36.3039 59.0765 36.334 58.9061 36.334 58.7959C36.334 58.6155 36.2437 58.4551 36.0834 58.3549C35.9531 58.2747 35.8027 58.2346 35.6223 58.2346C35.1613 58.2346 34.7303 58.3449 34.3494 58.5553C33.9685 58.7658 33.6478 59.0565 33.4172 59.4273C33.1867 59.7982 33.0664 60.2292 33.0664 60.6903C33.0664 61.4821 33.3371 62.1336 33.8783 62.6147C34.3995 63.0858 35.2414 63.4767 36.4743 63.8175C37.5067 64.1081 38.2784 64.499 38.7495 65.0002C39.2206 65.4913 39.4511 66.0927 39.4511 66.8545C39.4511 68.0773 38.96 68.9894 37.9477 69.6409C36.9153 70.3124 35.3918 70.6432 33.4273 70.6432C31.6031 70.6432 30.2098 70.3726 29.2777 69.8313C28.3856 69.3101 27.9446 68.5784 27.9446 67.5862L27.9546 67.5962ZM79.343 57.5029C77.2883 57.5029 75.6746 58.0742 74.562 59.2068C73.4495 60.3394 72.8882 61.9732 72.8882 64.0781C72.8882 66.1829 73.4495 67.8167 74.562 68.9593C75.6746 70.0919 77.2783 70.6733 79.333 70.6733C81.3878 70.6733 83.0015 70.1019 84.104 68.9593C85.2166 67.8167 85.7779 66.1829 85.7779 64.0781C85.7779 61.9732 85.2166 60.3394 84.104 59.2068C82.9914 58.0742 81.3877 57.5029 79.323 57.5029H79.343ZM79.9845 69.4003C79.9845 70.132 79.4934 70.1922 79.3531 70.1922C79.2127 70.1922 78.7216 70.132 78.7216 69.4003V58.7658C78.7216 58.0341 79.2127 57.974 79.3531 57.974C79.4934 57.974 79.9845 58.0341 79.9845 58.7658V69.4003ZM59.4171 60.1791L61.4318 68.3078C61.4418 68.3579 61.4719 68.408 61.522 68.4481C61.6523 68.5584 61.7926 68.6085 61.963 68.6085C62.1334 68.6085 62.2938 68.5484 62.404 68.4381C62.5143 68.3279 62.5744 68.1675 62.5744 67.9971C62.5744 67.9169 62.5744 67.8367 62.5544 67.7465C62.5443 67.6663 62.5143 67.5761 62.4942 67.4859L60.5698 59.7681C60.4595 59.3472 60.3593 59.0364 60.2691 58.826C60.1789 58.6054 60.0686 58.415 59.9584 58.2747C59.8281 58.1043 59.788 58.0241 59.7679 57.9941C59.7579 57.974 59.7479 57.954 59.7479 57.9139V57.8437H62.6145C63.4765 57.8437 64.138 58.0241 64.5891 58.395C65.0401 58.7558 65.3508 59.3572 65.5012 60.1791L67.0848 68.3279C67.0948 68.378 67.1249 68.4281 67.155 68.4682C67.2853 68.5985 67.4456 68.6586 67.6361 68.6586C68.0069 68.6586 68.2274 68.4181 68.2274 68.0272C68.2274 67.947 68.2274 67.8668 68.2074 67.7766C68.1974 67.6964 68.1773 67.6262 68.1673 67.5862L66.6739 59.7882C66.5335 59.0866 66.3331 58.5854 66.0825 58.2747C65.9522 58.0943 65.9121 58.0241 65.8921 57.9941C65.882 57.974 65.872 57.954 65.872 57.9139V57.8437H71.6152C71.8057 57.8437 71.946 57.8838 72.0362 57.964C72.0863 58.0141 72.1565 58.0943 72.1565 58.2847C72.1565 58.5954 71.956 59.5576 71.0038 62.4042C70.2321 64.7095 69.35 67.065 68.3978 69.4304C68.2775 69.7511 68.1072 69.9817 67.8867 70.122C67.6661 70.2623 67.3554 70.3325 66.9846 70.3325H64.6392C64.2583 70.3325 63.9576 70.2623 63.7371 70.122C63.5166 69.9817 63.3462 69.7511 63.2259 69.4304C63.1858 69.3302 63.0956 69.26 62.9854 69.26C62.8751 69.26 62.7849 69.3302 62.7448 69.4204C62.4942 70.0318 62.0131 70.3325 61.2413 70.3325H58.7356C57.9738 70.3325 57.5228 70.0518 57.3223 69.4404L53.9145 59.1166C53.8343 58.8861 53.714 58.6756 53.5436 58.5152C53.3933 58.3649 53.1527 58.1945 52.8119 57.974V57.8337H56.5004C57.3323 57.8337 57.9738 58.0141 58.4148 58.3649C58.8558 58.7157 59.1866 59.3271 59.3971 60.1791H59.4171ZM20.2168 57.5029C18.1621 57.5029 16.5484 58.0742 15.4358 59.2068C14.3232 60.3394 13.762 61.9732 13.762 64.0781C13.762 66.1829 14.3232 67.8167 15.4358 68.9593C16.5484 70.0919 18.1521 70.6733 20.2068 70.6733C22.2615 70.6733 23.8752 70.1019 24.9778 68.9593C26.0904 67.8167 26.6516 66.1829 26.6516 64.0781C26.6516 61.9732 26.0904 60.3394 24.9778 59.2068C23.8652 58.0742 22.2615 57.5029 20.1968 57.5029H20.2168ZM20.8483 69.4003C20.8483 70.132 20.3672 70.1922 20.2168 70.1922C20.0665 70.1922 19.5854 70.132 19.5854 69.4003V58.7658C19.5854 58.0341 20.0665 57.974 20.2168 57.974C20.3672 57.974 20.8483 58.0341 20.8483 58.7658V69.4003ZM93.6059 57.5029C91.5512 57.5029 89.9375 58.0742 88.8249 59.2068C87.7123 60.3394 87.151 61.9732 87.151 64.0781C87.151 66.1829 87.7123 67.8167 88.8249 68.9593C89.9375 70.0919 91.5411 70.6733 93.5959 70.6733C95.6506 70.6733 97.2643 70.1019 98.3669 68.9593C99.4794 67.8167 100.041 66.1829 100.041 64.0781C100.041 61.9732 99.4794 60.3394 98.3669 59.2068C97.2543 58.0742 95.6506 57.5029 93.5859 57.5029H93.6059ZM94.2374 69.4003C94.2374 70.132 93.7462 70.1922 93.6059 70.1922C93.4656 70.1922 92.9744 70.132 92.9744 69.4003V58.7658C92.9744 58.0341 93.4656 57.974 93.6059 57.974C93.7462 57.974 94.2374 58.0341 94.2374 58.7658V69.4003ZM12.4289 69.4404C12.2886 69.1999 12.2184 68.8591 12.2184 68.388V67.1552C12.2184 65.2508 11.2762 64.2885 9.33174 64.1883C9.20144 64.1883 9.09119 64.0781 9.08117 63.9377C9.08117 63.8074 9.17137 63.6872 9.30167 63.6671C10.0735 63.5468 10.735 63.2161 11.2462 62.6849C11.7573 62.1536 12.0179 61.5823 12.0179 60.9308C12.0179 59.8784 11.6571 59.1267 10.9154 58.6255C10.1436 58.1143 8.9208 57.8437 7.27701 57.8437H0.000244141V57.9941C0.000244141 57.9941 0.0303129 58.0141 0.0603822 58.0342C0.481352 58.2647 0.761999 58.4952 0.902322 58.7358C1.04265 58.9763 1.11281 59.3171 1.11281 59.7882V69.9115C1.11281 70.1521 1.16292 70.2322 1.19299 70.2623C1.21304 70.2824 1.2832 70.3325 1.50371 70.3325H5.46283C5.67331 70.3325 5.7535 70.2824 5.77355 70.2623C5.79359 70.2423 5.85373 70.1521 5.85373 69.9115V64.4088C5.85373 64.2685 5.97401 64.1482 6.11433 64.1482H6.36491C6.83599 64.1482 7.11664 64.4289 7.11664 64.9V69.9115C7.11664 70.1521 7.16675 70.2322 7.19682 70.2623C7.21687 70.2824 7.28703 70.3325 7.50754 70.3325H13.351V70.1821C13.351 70.1821 13.3209 70.1621 13.2909 70.142C12.8699 69.9115 12.5993 69.681 12.4489 69.4404H12.4289ZM7.10661 63.0357C7.10661 63.5068 6.82597 63.7874 6.35488 63.7874H6.10431C5.96398 63.7874 5.84371 63.6671 5.84371 63.5268V58.6756C5.84371 58.6155 5.86375 58.5654 5.89382 58.5152C5.98403 58.395 6.15442 58.2547 6.47516 58.2547C6.67562 58.2547 6.84601 58.3449 6.96629 58.5052C7.06652 58.6456 7.11664 58.816 7.11664 59.0064V63.0357H7.10661Z" fill="#5F361F"/>
<path d="M79.5236 27.6938V27.6637C79.8143 26.1903 79.9746 24.6668 79.9746 23.1132C79.9746 21.5597 79.8143 20.0362 79.5236 18.5628V18.5327C79.4935 18.4024 79.4735 18.2721 79.4434 18.1418L79.3632 17.781C78.8821 15.7463 78.1304 13.8218 77.1581 12.0277L77.0178 11.7872C76.9577 11.6869 76.9076 11.5867 76.8474 11.4865C76.7773 11.3762 76.7171 11.266 76.657 11.1657C76.647 11.1457 76.6269 11.1256 76.6169 11.1056L76.4365 10.8149C75.8652 9.91283 75.2337 9.05086 74.5421 8.22897L74.3617 8.00846C74.3216 7.95834 74.2815 7.90823 74.2314 7.86813C74.1813 7.80799 74.1211 7.74785 74.071 7.68771C73.9908 7.5975 73.9107 7.50729 73.8305 7.41708C73.8305 7.41708 73.8305 7.41709 73.8205 7.40706L73.5899 7.15649C72.5676 6.08402 71.435 5.10175 70.2222 4.23976L69.8212 3.96915C69.7912 3.94911 69.7611 3.92905 69.721 3.909C69.6308 3.84886 69.5306 3.77871 69.4303 3.71857C69.3201 3.64841 69.2098 3.57824 69.0996 3.50808C69.0996 3.50808 69.0896 3.50809 69.0795 3.49806L68.9091 3.38781C67.0248 2.23515 64.9701 1.34309 62.785 0.76175L62.6748 0.731681C62.6146 0.721658 62.5545 0.701619 62.5044 0.691596C62.4142 0.67155 62.3139 0.641473 62.2137 0.621427C62.1035 0.591358 61.9832 0.57131 61.8729 0.54124H61.8429C60.2392 0.190432 58.5653 0 56.8514 0C55.1374 0 53.4736 0.190432 51.8599 0.54124H51.8298C51.6995 0.581333 51.5692 0.611408 51.4289 0.641477L50.8776 0.771782C40.9948 3.41788 33.688 12.4487 33.688 23.1533C33.688 27.1225 34.6903 30.8511 36.4544 34.1186L36.4644 34.1386C36.4945 34.1888 36.5145 34.2389 36.5446 34.289C36.5446 34.289 36.5446 34.309 36.5546 34.3191C36.6849 34.5596 36.8252 34.7902 36.9555 35.0207C36.9555 35.0307 36.9655 35.0407 36.9756 35.0508C36.9956 35.1009 37.0257 35.141 37.0457 35.1811L37.2061 35.4417C37.7975 36.3738 38.449 37.2659 39.1606 38.1078L39.2608 38.2281C39.351 38.3383 39.4513 38.4486 39.5515 38.5588C39.5715 38.5789 39.5816 38.5889 39.6016 38.609C39.7119 38.7292 39.8121 38.8395 39.9224 38.9598C39.9224 38.9598 39.9324 38.9698 39.9424 38.9798L39.9725 39.0099C39.9725 39.0099 40.0526 39.0901 40.0827 39.1301L40.3634 39.4309C41.7365 40.804 43.2801 42.0268 44.964 43.0291L45.1845 43.1594C45.2847 43.2196 45.3749 43.2697 45.4751 43.3298C45.5152 43.3499 45.5453 43.3699 45.5854 43.39C45.6856 43.4501 45.7859 43.5002 45.8861 43.5503L46.2169 43.7307C47.4397 44.3522 48.7126 44.8834 50.0457 45.2843L50.4165 45.3946C50.4566 45.4046 50.4967 45.4146 50.5268 45.4246C50.637 45.4547 50.7473 45.4848 50.8575 45.5149C50.9678 45.5449 51.0881 45.575 51.1983 45.6051L51.4389 45.6652C53.1528 46.0661 54.9369 46.2866 56.7712 46.2866C58.856 46.2866 60.8806 46.006 62.8051 45.4848L63.0657 45.4146C63.4666 45.3044 63.8575 45.1841 64.2484 45.0438L64.2985 45.0237C65.4712 44.6228 66.6138 44.1216 67.6963 43.5403L68.1674 43.2797C68.2977 43.2096 68.418 43.1394 68.5383 43.0592C68.5483 43.0592 68.5684 43.0391 68.5784 43.0391C68.7087 42.959 68.829 42.8888 68.9593 42.8086L69.1096 42.7184C74.2214 39.491 77.9901 34.3091 79.3632 28.2451C79.4033 28.0747 79.4434 27.8943 79.4735 27.7138L79.5236 27.6938ZM61.6624 8.61987V8.59981C61.7527 8.2891 61.8529 7.95833 61.9331 7.63759C62.0934 7.01616 62.2237 6.38472 62.344 5.75326C62.5645 4.52042 62.6948 3.26752 62.7449 2.0447C64.509 2.54586 66.1829 3.2575 67.7465 4.15958C66.9145 4.77099 66.1027 5.4225 65.3509 6.11409C64.6994 6.70545 64.088 7.33691 63.4967 7.95834C63.3363 8.11871 63.1759 8.28911 63.0256 8.44947L62.9554 8.51963C62.5846 8.90051 62.2137 9.29141 61.7827 9.54199C61.7226 9.58208 61.6825 9.59211 61.6725 9.59211C61.6123 9.54199 61.5722 9.44175 61.5622 9.3315C61.5522 9.11099 61.6123 8.88046 61.6825 8.6399L61.6624 8.61987ZM35.1614 19.9459C35.7127 19.4448 36.2439 18.9236 36.7551 18.4124L36.8252 18.3423C38.048 17.1295 39.2809 15.8966 40.4937 14.6638C41.8769 13.2706 43.2701 11.8373 44.6432 10.424C45.0341 10.0231 45.415 9.67229 45.7959 9.3716C46.2269 9.03081 46.8784 8.56974 47.5199 8.51963C47.56 8.51963 47.59 8.51963 47.6301 8.51963C48.1513 8.51963 48.6926 8.81029 49.1135 9.31145C49.5646 9.85269 49.7851 10.5744 49.9254 11.1357L49.9855 11.3762H51.4489L51.3587 10.9853C50.8876 8.96065 49.9454 7.69774 48.5522 7.22666C48.2616 7.12643 47.9609 7.0763 47.6502 7.0763C46.2269 7.0763 44.964 8.10869 44.0218 9.01077C43.5708 9.44176 43.1398 9.89279 42.7188 10.3238C42.5484 10.4942 42.388 10.6746 42.2176 10.845C41.5962 11.4764 40.9648 12.1279 40.3533 12.7594C39.1005 14.0323 37.8275 15.3153 36.5546 16.5782C36.3441 16.7887 36.1336 16.9992 35.9231 17.2096C35.8329 17.2999 35.7427 17.3901 35.6525 17.4803C37.7273 9.70236 43.9917 3.60831 51.8699 1.78411C53.8945 3.96914 54.9269 6.11409 55.0071 8.31917C55.0372 9.23127 54.8969 10.1133 54.5761 10.9252L54.4057 11.3562H55.9493L56.0194 11.1457C56.5807 9.56203 56.5908 7.69773 56.0395 5.88355C55.5884 4.39011 54.7465 2.9067 53.5237 1.46338C54.5962 1.30301 55.6887 1.2128 56.8113 1.2128C58.3548 1.2128 59.8583 1.37316 61.3116 1.67385C61.2816 2.82651 61.1813 3.96915 61.0009 5.08172C60.9007 5.70315 60.7704 6.32457 60.6301 6.92596C60.5799 7.14647 60.5098 7.36697 60.4396 7.60752C60.3294 7.97838 60.2191 8.36928 60.149 8.77021C60.0187 9.57205 60.2291 10.2436 60.7403 10.6646C61.0009 10.8751 61.3016 10.9853 61.6324 10.9853C61.9932 10.9853 62.3841 10.845 62.7449 10.5744C63.4365 10.0632 64.0279 9.43173 64.5992 8.82032C64.8297 8.57977 65.0703 8.31916 65.3109 8.07861C66.0726 7.31685 66.8845 6.5952 67.7264 5.92365C68.1474 5.58287 68.5984 5.26213 69.0495 4.94139C70.3825 5.84347 71.6054 6.88586 72.7079 8.04854C72.4272 8.3793 72.1466 8.72009 71.876 9.05085C71.0741 10.0331 70.2522 11.0454 69.28 11.8673C68.2677 12.7193 67.115 13.4109 66.0225 14.0323L65.7318 14.1927L65.9022 14.4733C66.0325 14.6939 66.1528 14.9144 66.253 15.1349L66.3933 15.4556L66.7041 15.2852C67.6061 14.774 68.6586 14.1426 69.6308 13.4009C70.573 12.6792 71.455 11.8072 72.4172 10.6546C72.5876 10.4441 72.758 10.2336 72.9284 10.0331C73.169 9.73242 73.4195 9.43173 73.6701 9.13104C74.3016 9.89279 74.8729 10.6846 75.3941 11.5266C75.0433 11.8072 74.6925 12.1079 74.3517 12.4286C73.1589 13.5412 72.0865 14.7841 71.0441 15.9868C70.162 16.9992 69.2599 18.0516 68.2877 19.0138C68.0171 19.2744 67.7264 19.545 67.4057 19.8357L67.2954 19.9259V21.8102L67.8166 21.3692C68.1474 21.0886 68.4481 20.828 68.7287 20.5574C69.8313 19.535 70.8135 18.4224 71.8058 17.2798L72.0764 16.9591C73.3293 15.5057 74.6323 14.0123 76.1057 12.7694C77.0278 14.5034 77.7295 16.3677 78.1705 18.3423C77.1882 18.9136 76.1859 19.6453 75.0032 20.6375C74.5221 21.0485 74.041 21.4695 73.5799 21.8804C72.4172 22.9128 71.2144 23.9752 69.9014 24.8372C69.0795 25.3785 68.2877 25.7794 67.4959 26.0701L67.2854 26.1502V27.6637L67.7064 27.5234C69.8212 26.8118 71.6154 25.4486 72.9384 24.3361C73.4797 23.885 74.0109 23.4139 74.5321 22.9529C75.6447 21.9706 76.7973 20.9483 78.0402 20.1063C78.1705 20.0161 78.3108 19.9259 78.4511 19.8457C78.6115 20.8981 78.6917 21.9706 78.6917 23.0631C78.6917 24.7169 78.5113 26.3206 78.1605 27.8742C77.1381 28.9768 75.7449 29.7085 74.3717 30.4201C73.5398 30.8511 72.6878 31.2921 71.9161 31.8233C70.5128 32.7855 69.5005 33.9783 68.9091 35.3615C68.3078 36.7647 68.0572 38.2381 67.8567 40.0122C67.7765 40.7238 67.7264 41.3954 67.7064 42.0368C66.6439 42.6482 65.5213 43.1795 64.3587 43.6105C64.3587 43.3098 64.3386 43.0091 64.3186 42.7184C64.2183 41.6059 63.9577 40.5534 63.7172 39.6614C63.6871 39.5311 63.647 39.4108 63.6169 39.2805C63.3864 38.4686 63.1559 37.6267 63.0657 36.7948C62.9855 36.0932 63.0055 35.4617 63.1058 34.9104L63.1759 34.5295H61.7226L61.6825 34.8002C61.4319 36.3437 61.7627 37.9274 62.1335 39.2805C62.1836 39.4509 62.2237 39.6213 62.2739 39.7917C62.5044 40.6136 62.7349 41.4555 62.8452 42.2974C62.9254 42.8788 62.9554 43.4802 62.9354 44.0916C61.1412 44.6128 59.2569 44.9135 57.3124 44.9636C57.4728 44.282 57.583 43.6205 57.6632 42.969C57.8637 41.1749 57.8236 39.2705 57.5329 36.7847C57.4527 36.0731 57.3425 35.3615 57.2723 34.8202L57.2322 34.5496H55.7889L55.839 34.9104C56.2901 37.9875 56.691 41.5357 55.839 44.9536C54.526 44.8934 53.243 44.723 52.0002 44.4424C52.8722 42.1872 53.0426 39.6413 52.4512 37.3059C52.2207 36.4039 51.8699 35.5319 51.4188 34.71L51.3286 34.5496H49.9655V34.8703C49.9655 34.9906 49.9956 35.1109 50.0657 35.2312C51.5892 37.8271 51.7997 41.215 50.617 44.0916C49.2138 43.6806 47.8707 43.1294 46.5977 42.4578C47.0387 40.7639 47.139 39.1101 46.8984 37.5365C46.6478 35.8626 45.8961 34.3993 45.2747 33.3168C45.2145 33.2165 45.1544 33.1163 45.1043 33.0161C44.4929 31.9636 43.8715 30.8811 43.671 29.6884C43.4705 28.4556 43.8414 27.1726 44.2022 25.9398L44.2423 25.8095L44.2824 25.6792C44.6733 24.3561 45.0742 22.993 44.9139 21.5897C44.8337 20.858 44.6533 19.956 43.9216 19.4248C43.5808 19.1742 43.1398 19.0439 42.6486 19.0439C42.368 19.0439 42.0773 19.084 41.7967 19.1641C40.2932 19.5851 39.2107 20.828 38.3387 21.9907C37.3364 23.3237 36.5446 24.7671 35.8229 26.1202C35.7026 26.3407 35.5924 26.5612 35.4821 26.7817C35.422 26.902 35.3618 27.0223 35.3017 27.1325C35.0511 25.8195 34.9208 24.4664 34.9208 23.0832C34.9208 22.0107 35.001 20.9483 35.1514 19.9159L35.1614 19.9459ZM39.7119 34.2289C39.6718 34.8904 39.5916 35.592 39.4613 36.4239C38.9401 35.7524 38.469 35.0508 38.028 34.3191C38.1282 34.1687 38.2385 34.0184 38.3387 33.868C38.5392 33.5673 38.7597 33.2566 38.9702 32.966C39.0002 32.9259 39.0303 32.8757 39.0704 32.8256C39.1806 32.6653 39.3109 32.4848 39.4312 32.4147C39.4412 32.4147 39.5014 32.4447 39.5515 32.4949C39.6818 32.6352 39.7119 32.8958 39.7219 33.1363C39.7419 33.5172 39.7219 33.8981 39.7018 34.2188L39.7119 34.2289ZM40.6641 37.8572C40.7342 37.4663 40.8044 37.0754 40.8645 36.6845C41.0249 35.7123 41.1151 34.9205 41.1452 34.1888V34.0384C41.1953 33.3067 41.2354 32.4047 40.7643 31.7331C40.4436 31.2721 39.9424 31.0014 39.4212 31.0014C39.0804 31.0014 38.7496 31.1217 38.479 31.3522C38.2385 31.5527 38.048 31.8133 37.8776 32.0438C37.8476 32.0839 37.8175 32.124 37.7874 32.1641C37.617 32.3946 37.4466 32.6352 37.2562 32.9158C36.6648 31.7431 36.1737 30.5003 35.8029 29.2173C36.0033 28.8865 36.2138 28.5257 36.4443 28.0847C36.5546 27.8742 36.6648 27.6637 36.7751 27.4532C37.3564 26.3407 37.9679 25.1981 38.6494 24.1156C39.3911 22.9429 40.213 21.7401 41.3156 21.0084C41.8368 20.6576 42.2678 20.4972 42.6787 20.4972C42.7088 20.4972 42.7388 20.4972 42.7689 20.4972C42.9393 20.5072 43.0796 20.5674 43.1799 20.6576C43.3402 20.8079 43.4004 21.0685 43.4605 21.3392C43.7211 22.572 43.3302 23.9151 43.0195 24.9976C42.9794 25.1279 42.9493 25.2482 42.9092 25.3785C42.5584 26.5712 42.1976 27.8141 42.2176 29.097C42.2477 30.8511 43.0897 32.3245 43.8915 33.7377C44.4327 34.6799 44.984 35.6622 45.2847 36.6945C45.7257 38.2481 45.7458 39.942 45.3348 41.7161C43.6008 40.6437 42.0272 39.3407 40.6641 37.8372V37.8572ZM69.2199 41.1348C69.2299 40.9844 69.2399 40.8441 69.2599 40.6837C69.4203 38.9898 69.6208 37.5866 70.1219 36.2736C70.3725 35.602 70.7033 35.0207 71.0841 34.5396C71.4851 34.0384 71.9963 33.5774 72.5976 33.1464C73.3895 32.5951 74.2615 32.134 75.1034 31.693C75.5144 31.4725 75.9454 31.252 76.3563 31.0215C76.7672 30.7909 77.1381 30.5604 77.4789 30.3299C75.9353 34.7501 73.0086 38.5288 69.2199 41.1348ZM57.0518 14.2428C56.8213 13.8619 57.0919 13.3808 57.543 13.3808H61.2415C63.7172 13.3808 65.7218 15.3855 65.7218 17.8612C65.7218 20.3369 63.7172 22.3415 61.2415 22.3415H58.3348C57.8136 22.3415 57.3926 21.9205 57.4026 21.3893L57.4628 16.1472C57.4628 15.3153 57.3325 14.6939 57.0618 14.2528L57.0518 14.2428ZM46.6378 14.2027C46.6378 14.2027 46.5977 14.0925 46.5977 14.0123V13.6615C46.5977 13.471 46.718 13.3708 46.9485 13.3708H54.9971C55.4381 13.3708 55.7087 13.8519 55.4782 14.2228C55.2076 14.6738 55.0773 15.2952 55.0773 16.1272V31.8233C55.0773 32.3245 54.6663 32.7354 54.1652 32.7354H49.2138C48.8629 32.7354 48.6124 32.6552 48.4721 32.5049C48.3217 32.3545 48.2515 32.0839 48.2515 31.7231V16.3777C48.2215 15.9066 48.1313 15.5458 47.9909 15.2952C47.8206 15.0046 47.4497 14.7039 46.8884 14.3932C46.7481 14.313 46.6679 14.2528 46.6378 14.2027ZM65.6516 30.821C65.822 31.1117 66.1929 31.4124 66.7542 31.7231C66.8945 31.8033 66.9747 31.8634 67.0047 31.9135C67.0348 31.9636 67.0448 32.0238 67.0448 32.104V32.4548C67.0448 32.6452 66.9246 32.7454 66.694 32.7454H58.3047C57.7935 32.7454 57.3826 32.3345 57.3826 31.8233V24.5265C57.3826 24.0153 57.8036 23.5944 58.3147 23.5944H61.0911C64.0078 23.7447 65.371 25.1379 65.371 27.9945V29.0068C65.371 30.2296 65.4712 30.5303 65.6416 30.821H65.6516Z" fill="#5F361F"/>
</svg>
