<svg width="198" height="54" viewBox="0 0 198 54" fill="none" xmlns="http://www.w3.org/2000/svg">
<path d="M197.496 37.5234H129.399C129.295 37.2099 128.999 36.9834 128.65 36.9834C128.215 36.9834 127.849 37.3493 127.849 37.7848C127.849 38.2203 128.215 38.5861 128.65 38.5861C128.999 38.5861 129.277 38.3596 129.399 38.0461H197.496V37.506V37.5234Z" fill="#804524"/>
<path d="M77.2077 39.4569H77.26C77.26 40.0318 77.0161 40.3802 76.5109 40.3802C75.8664 40.3802 75.7619 39.8401 75.7619 39.2653V36.809H75.3437V36.7567H75.4134C75.9535 36.7567 76.3367 36.147 76.3367 35.7638H76.389V36.7567H77.138V36.809H76.389V39.5266C76.389 39.9447 76.5632 40.1189 76.7897 40.1189C77.1207 40.1189 77.1903 39.7531 77.1903 39.4743L77.2077 39.4569ZM74.2986 35.9728C74.5773 35.9728 74.7863 35.7812 74.7863 35.5373C74.7863 35.2934 74.5773 35.1018 74.2986 35.1018C74.0198 35.1018 73.8108 35.2934 73.8108 35.5373C73.8108 35.7812 74.0198 35.9728 74.2986 35.9728ZM80.4654 39.3698H80.5176C80.2737 40.0666 79.7163 40.3802 79.0543 40.3802C78.1484 40.3802 77.5039 39.8053 77.5039 38.551C77.5039 37.3664 78.253 36.5999 79.2285 36.5999C79.9776 36.5999 80.5002 36.9484 80.5002 37.5058C80.5002 37.9936 80.2041 38.2549 79.786 38.4639C79.2808 38.7078 78.5839 38.7775 78.2355 38.9169C78.3401 39.5266 78.6362 40.084 79.3853 40.084C79.8905 40.084 80.2911 39.8402 80.4654 39.3524V39.3698ZM78.2182 38.8297C79.1414 38.5859 79.9602 38.011 79.9602 37.3316C79.9602 36.8961 79.6989 36.6522 79.246 36.6522C78.3749 36.6522 78.1833 37.5755 78.1833 38.3594C78.1833 38.5162 78.1833 38.673 78.2182 38.8124V38.8297ZM90.1686 35.9728C90.4473 35.9728 90.6563 35.7812 90.6563 35.5373C90.6563 35.2934 90.4473 35.1018 90.1686 35.1018C89.8898 35.1018 89.6808 35.2934 89.6808 35.5373C89.6808 35.7812 89.8898 35.9728 90.1686 35.9728ZM89.524 40.2408C89.0188 40.2408 88.8098 40.0841 88.6007 39.7356L86.998 37.0703L87.5555 36.4606C88.1826 35.7986 88.7401 35.3457 89.3324 35.3457C89.3672 35.3457 89.3846 35.3457 89.3846 35.3108C89.3846 35.276 89.3846 35.276 89.3324 35.276H87.329C87.329 35.276 87.2942 35.276 87.2942 35.3108C87.2942 35.3457 87.2942 35.3457 87.329 35.3457H87.5207C88.2349 35.3457 87.991 35.938 87.4161 36.5477L85.7264 38.3594V35.9903C85.7264 35.5722 85.918 35.3457 86.4232 35.3457C86.4406 35.3457 86.458 35.3457 86.458 35.3108C86.458 35.276 86.458 35.276 86.4232 35.276H84.7159C82.9042 35.276 82.5733 36.1819 82.5733 36.7219C82.5733 37.2271 82.8694 37.5058 83.2526 37.5058C83.6359 37.5058 83.8101 37.2445 83.8101 36.9658C83.8101 36.6348 83.5662 36.4954 83.3049 36.4954C83.1133 36.4954 82.9042 36.5999 82.8519 36.7567C82.8519 36.7044 82.8519 36.6522 82.8519 36.6522C82.8519 36.0076 83.3397 35.3631 84.4024 35.3631C84.7682 35.3631 85.0469 35.4676 85.0469 35.7986V39.5789C85.0469 40.0144 84.8379 40.2234 84.2456 40.2234C84.2282 40.2234 84.2107 40.2234 84.2107 40.2582C84.2107 40.2931 84.2108 40.2931 84.2456 40.2931H86.4057C86.4057 40.2931 86.4406 40.2931 86.4406 40.2582C86.4406 40.2234 86.4406 40.2234 86.4057 40.2234C85.8831 40.2234 85.7089 40.0144 85.7089 39.5789V38.4291L86.5277 37.5581L87.7994 39.7356C87.991 40.0318 88.0433 40.2234 87.3987 40.2234C87.3987 40.2234 87.3639 40.2234 87.3639 40.2582C87.3639 40.2931 87.3639 40.2931 87.3987 40.2931H89.524C89.524 40.2931 89.5588 40.2931 89.5588 40.2582C89.5588 40.2234 89.5588 40.2234 89.524 40.2234V40.2408ZM74.9605 40.1885C74.6643 40.1885 74.6469 39.9099 74.6469 39.0388V36.5825C74.3159 36.6871 73.9153 36.7219 73.4449 36.7219V36.7741C73.863 36.7741 74.0198 36.809 74.0198 37.1922V39.4046C74.0198 40.0492 74.194 40.3454 74.6469 40.3454C74.9431 40.3454 75.187 40.206 75.2567 40.0492L75.2218 39.9969C75.1522 40.084 75.065 40.1537 74.9431 40.1537L74.9605 40.1885ZM71.128 38.6381C71.128 38.6381 71.0758 38.6381 71.0758 38.673C71.128 39.5266 70.7273 40.2408 69.4034 40.2408H68.7588V37.8716H69.2815C69.9434 37.8716 70.2396 38.1852 70.2396 38.6207C70.2396 38.6207 70.2395 38.673 70.2744 38.673C70.3092 38.673 70.3093 38.673 70.3093 38.6381V36.9832C70.3093 36.9832 70.3092 36.9484 70.2744 36.9484C70.2395 36.9484 70.2396 36.9483 70.2396 36.9832C70.2396 37.4884 69.9434 37.8019 69.2815 37.8019H68.7588V35.3457H69.4034C70.7099 35.3457 70.919 36.1122 70.919 36.8961C70.919 36.9135 70.919 36.9309 70.9538 36.9309C70.9886 36.9309 70.9886 36.9309 70.9886 36.8961V35.2934H67.731C66.198 35.2934 65.6057 36.0251 65.6057 36.7393C65.6057 37.2445 65.9019 37.5232 66.2851 37.5232C66.6684 37.5232 66.8426 37.2619 66.8426 36.9832C66.8426 36.6522 66.5987 36.5128 66.3548 36.5128C66.1632 36.5128 65.9541 36.6174 65.8844 36.7741C65.8844 36.7219 65.8844 36.6696 65.8844 36.6696C65.8844 36.0251 66.3722 35.3805 67.4349 35.3805C67.8007 35.3805 68.0794 35.4851 68.0794 35.816V39.5962C68.0794 40.0318 67.8704 40.2408 67.2781 40.2408C67.2607 40.2408 67.2432 40.2408 67.2432 40.2757C67.2432 40.3105 67.2433 40.3105 67.2781 40.3105H71.1454V38.673C71.1454 38.673 71.1454 38.6381 71.1106 38.6381H71.128ZM73.2011 40.1885C72.8701 40.1885 72.7655 39.9621 72.7655 39.4046V34.9624L71.5809 35.2063V35.2411C71.8771 35.2411 72.1558 35.2412 72.1558 35.607V39.4395C72.1558 40.0666 72.3823 40.3802 72.8874 40.3802C73.1836 40.3802 73.4449 40.2582 73.532 40.1363L73.4972 40.1015C73.4972 40.1015 73.3753 40.206 73.2011 40.206V40.1885ZM117.24 39.9795L117.275 40.0318C117.188 40.2234 117.013 40.3628 116.7 40.3628C116.282 40.3628 116.038 40.1015 116.038 39.5092V39.0562C115.881 39.7879 115.533 40.3628 114.749 40.3628C114.296 40.3628 113.895 40.1189 113.895 39.6311C113.895 38.6382 115.359 38.5162 116.055 38.0284V37.5232C116.055 37.0877 115.933 36.6522 115.341 36.6522C114.993 36.6522 114.714 36.8438 114.557 37.14C114.662 37.2271 114.766 37.4187 114.766 37.6277C114.766 37.8542 114.644 38.0459 114.383 38.0459C114.139 38.0459 114.052 37.8891 114.052 37.6452C114.052 37.1051 114.557 36.5651 115.446 36.5651C116.386 36.5651 116.682 37.1574 116.682 37.8542V39.4917C116.682 39.9098 116.717 40.1537 116.961 40.1537C117.083 40.1537 117.153 40.0841 117.223 39.9621L117.24 39.9795ZM116.055 38.1329C115.428 38.4465 114.522 38.7949 114.522 39.4917C114.522 39.753 114.662 40.084 115.08 40.084C115.846 40.084 116.055 39.0562 116.055 38.3246V38.1329ZM119.487 36.5999C119.139 36.5999 118.581 36.9135 118.442 37.8368H118.407V36.5999C118.128 36.6696 117.85 36.7393 117.257 36.7393V36.7916C117.675 36.7916 117.832 36.8264 117.832 37.2097V40.2931H118.477V38.2375C118.477 37.4884 118.825 36.7916 119.226 36.7916C119.278 36.7916 119.296 36.7915 119.313 36.809C119.261 36.9135 119.243 37.018 119.243 37.1051C119.243 37.3316 119.365 37.5406 119.609 37.5406C119.923 37.5406 120.01 37.2445 120.01 37.0529C120.01 36.7567 119.783 36.5825 119.487 36.5825V36.5999ZM90.8305 40.1885C90.5344 40.1885 90.517 39.9099 90.517 39.0388V36.5825C90.186 36.6871 89.7853 36.7219 89.315 36.7219V36.7741C89.7331 36.7741 89.8898 36.809 89.8898 37.1922V39.4046C89.8898 40.0492 90.0641 40.3454 90.517 40.3454C90.8131 40.3454 91.057 40.206 91.1267 40.0492L91.0918 39.9969C91.0222 40.084 90.935 40.1537 90.8131 40.1537L90.8305 40.1885ZM107.868 40.1712C107.624 40.1712 107.554 39.9273 107.554 39.5092V37.8542C107.554 37.0877 107.258 36.5999 106.492 36.5999C105.847 36.5999 105.394 37.1052 105.168 37.7323H105.15V36.5999C104.819 36.7045 104.453 36.7393 103.983 36.7393V36.7916C104.401 36.7916 104.558 36.8264 104.558 37.2097V40.2931H105.185V38.2375C105.185 37.471 105.621 36.8264 106.248 36.8264C106.701 36.8264 106.927 37.1574 106.927 37.7323V39.4743C106.927 40.0841 107.171 40.3628 107.606 40.3628C107.937 40.3628 108.094 40.206 108.181 40.0318L108.146 39.9795C108.094 40.1014 108.007 40.1712 107.885 40.1712H107.868ZM123.267 39.3872C123.024 40.0666 122.466 40.3802 121.804 40.3802C120.898 40.3802 120.254 39.8053 120.254 38.551C120.254 37.3664 121.003 36.5999 121.978 36.5999C122.727 36.5999 123.25 36.9484 123.25 37.5058C123.25 37.9936 122.954 38.2549 122.536 38.4639C122.031 38.7078 121.334 38.7775 120.985 38.9169C121.09 39.5266 121.386 40.084 122.135 40.084C122.64 40.084 123.041 39.8402 123.215 39.3524H123.267V39.3872ZM120.951 38.8297C121.874 38.5859 122.693 38.011 122.693 37.3316C122.693 36.8961 122.431 36.6522 121.978 36.6522C121.107 36.6522 120.916 37.5755 120.916 38.3594C120.916 38.5162 120.916 38.673 120.951 38.8124V38.8297ZM113.965 36.7567C113.965 36.7567 113.965 36.7219 113.93 36.7219H112.414C112.414 36.7219 112.38 36.7219 112.38 36.7567C112.38 36.7915 112.38 36.7916 112.414 36.7916C112.937 36.7916 113.164 37.018 112.815 38.0284L112.118 40.0318L111.352 37.2619C111.265 36.9135 111.421 36.809 111.596 36.7916C111.596 36.7916 111.631 36.7915 111.631 36.7567C111.631 36.7219 111.631 36.7219 111.596 36.7219H110.185C110.185 36.7219 110.15 36.7219 110.15 36.7567C110.15 36.7915 110.15 36.7916 110.185 36.7916C110.394 36.7916 110.55 36.9483 110.638 37.1922L110.829 37.8194C110.829 37.8194 110.777 37.9413 110.76 38.0284L109.993 40.0318L109.227 37.2619C109.139 36.9135 109.227 36.809 109.383 36.7916C109.383 36.7916 109.418 36.7915 109.418 36.7567C109.418 36.7219 109.418 36.7219 109.383 36.7219H108.077C108.077 36.7219 108.042 36.7219 108.042 36.7567C108.042 36.7915 108.042 36.7916 108.077 36.7916C108.286 36.7916 108.443 36.9483 108.53 37.1922L109.418 40.3105H109.993L110.864 38.011C110.864 38.011 110.864 37.9761 110.881 37.9587L111.561 40.3105H112.136L112.937 38.011C113.338 36.8787 113.547 36.7916 113.965 36.7916C113.982 36.7916 114 36.7915 114 36.7567H113.965ZM95.2554 40.084C94.3843 40.084 94.0533 39.3524 94.0533 38.3768C94.0533 37.5929 94.2449 36.6696 95.1682 36.6696C95.4644 36.6696 95.6734 36.809 95.7257 36.9658C95.6212 37.1052 95.5515 37.2967 95.5515 37.471C95.5515 37.7148 95.6734 37.9065 95.8999 37.9065C96.1264 37.9065 96.2657 37.6975 96.2657 37.4536C96.2657 36.931 95.7257 36.5999 95.116 36.5999C94.123 36.5999 93.3739 37.3664 93.3739 38.551C93.3739 39.8053 94.0185 40.3802 94.9244 40.3802C95.5689 40.3802 96.0567 40.0666 96.3005 39.3872H96.2483C96.0915 39.8576 95.7431 40.084 95.2554 40.084ZM103.722 39.3698H103.774C103.53 40.0666 102.973 40.3802 102.311 40.3802C101.405 40.3802 100.76 39.8053 100.76 38.551C100.76 37.3664 101.509 36.5999 102.485 36.5999C103.234 36.5999 103.756 36.9484 103.756 37.5058C103.756 37.9936 103.46 38.2549 103.042 38.4639C102.537 38.7078 101.84 38.7775 101.492 38.9169C101.596 39.5266 101.893 40.084 102.642 40.084C103.147 40.084 103.547 39.8402 103.722 39.3524V39.3698ZM101.474 38.8297C102.398 38.5859 103.216 38.011 103.216 37.3316C103.216 36.8961 102.955 36.6522 102.502 36.6522C101.631 36.6522 101.44 37.5755 101.44 38.3594C101.44 38.5162 101.44 38.673 101.474 38.8124V38.8297ZM92.6771 40.1015C92.4506 40.1015 92.2764 39.9273 92.2764 39.5092V36.7916H93.0255V36.7393H92.2764V35.7463H92.2242C92.2242 36.1296 91.8409 36.7393 91.3009 36.7393H91.2312V36.7916H91.6493V39.2479C91.6493 39.8227 91.7538 40.3628 92.3984 40.3628C92.9036 40.3628 93.1474 40.0143 93.1474 39.4395H93.0952C93.0952 39.7182 93.0255 40.084 92.6945 40.084L92.6771 40.1015ZM100.307 40.1712C100.063 40.1712 99.9937 39.9273 99.9937 39.5092V37.8542C99.9937 37.0877 99.6975 36.5999 98.931 36.5999C98.2865 36.5999 97.8335 37.1052 97.6071 37.7323V34.9624L96.4225 35.2063V35.2586C96.8406 35.2586 96.9974 35.2238 96.9974 35.607V40.3105H97.6071V38.2549C97.6071 37.4884 98.0426 36.8438 98.6697 36.8438C99.1227 36.8438 99.3317 37.1922 99.3317 37.7497V39.4917C99.3317 40.1014 99.5756 40.3802 100.011 40.3802C100.342 40.3802 100.516 40.2234 100.586 40.0492L100.551 39.9969C100.481 40.1189 100.394 40.1885 100.29 40.1885L100.307 40.1712Z" fill="#804524"/>
<path d="M183.803 28.0118C183.803 28.0118 183.908 28.0989 184.152 28.0989H190.371C191.747 28.0989 192.967 27.7853 193.994 27.1756C195.022 26.5659 195.824 25.7123 196.364 24.6322C196.921 23.5347 197.2 22.2631 197.2 20.8346C197.2 18.5699 196.59 16.7756 195.406 15.5213C194.221 14.2671 192.549 13.6399 190.406 13.6399H182.445V13.7967C183.037 14.1799 183.368 14.4587 183.507 14.7026C183.664 14.9639 183.734 15.3471 183.734 15.8872V27.6111C183.734 27.8899 183.803 27.9944 183.821 28.0118H183.803ZM189.186 14.5981C189.186 14.5981 189.204 14.4761 189.256 14.4064C189.361 14.2671 189.57 14.1103 189.935 14.1103C190.179 14.1103 190.371 14.2148 190.493 14.389C190.597 14.5458 190.667 14.7374 190.667 14.9813V26.7401C190.667 26.9666 190.615 27.1756 190.493 27.3324C190.354 27.524 190.162 27.6111 189.935 27.6111C189.57 27.6111 189.361 27.4543 189.256 27.315C189.221 27.2627 189.204 27.193 189.204 27.1408V14.5981H189.186ZM113.425 27.6111V15.922C113.425 15.5039 113.39 15.2078 113.32 14.9987C113.251 14.7722 113.111 14.5806 112.92 14.4064C112.763 14.2496 112.502 14.058 112.136 13.8141V13.6574H125.323C125.567 13.6574 125.654 13.7096 125.671 13.7444C125.706 13.7793 125.759 13.8664 125.759 14.1451V16.8453C125.759 17.7163 125.584 18.3609 125.218 18.7615C124.87 19.1448 124.313 19.3538 123.564 19.3538H120.776C120.498 19.3538 120.41 19.2841 120.376 19.2667C120.341 19.2319 120.289 19.1448 120.289 18.8661V14.9465C120.289 14.1974 119.766 14.1451 119.592 14.1451C119.243 14.1451 119.052 14.3019 118.947 14.4413C118.912 14.4935 118.877 14.5632 118.877 14.6155V20.3294C118.877 20.5036 119.017 20.6255 119.174 20.6255H123.442V21.0785H119.174C118.999 21.0785 118.877 21.2178 118.877 21.3746V27.0885C118.877 27.0885 118.895 27.2105 118.93 27.2627C119.034 27.4021 119.226 27.5589 119.574 27.5589C119.731 27.5589 120.271 27.5066 120.271 26.7575V22.8728C120.271 22.594 120.341 22.5069 120.358 22.4721C120.393 22.4373 120.48 22.385 120.759 22.385H123.546C124.295 22.385 124.853 22.5766 125.201 22.9773C125.55 23.378 125.741 24.0225 125.741 24.8935V27.5937C125.741 27.8724 125.671 27.9769 125.654 27.9944C125.637 28.0118 125.55 28.0815 125.306 28.0815H113.86C113.616 28.0815 113.529 28.0292 113.512 27.9944C113.477 27.9595 113.425 27.8724 113.425 27.5937V27.6111ZM97.9903 24.9284C97.9903 24.249 98.2342 23.6915 98.722 23.256C99.2272 22.8031 99.8717 22.594 100.673 22.594C101.614 22.594 102.363 22.8031 102.903 23.2038C103.426 23.587 103.669 24.1096 103.669 24.7542C103.669 25.2419 103.513 25.6078 103.182 25.8865C102.851 26.1652 102.345 26.3394 101.718 26.3569C101.649 26.3569 101.562 26.3917 101.509 26.444C101.318 26.6356 101.283 26.8272 101.283 26.9491C101.283 27.1582 101.387 27.3498 101.579 27.4544C101.718 27.5415 101.91 27.5937 102.119 27.5937C102.955 27.5937 103.652 27.315 104.227 26.7924C104.802 26.2523 105.08 25.5729 105.08 24.7542C105.08 24.1096 104.941 23.5696 104.68 23.1341C104.418 22.716 103.983 22.3327 103.408 22.0017C102.851 21.6882 102.102 21.392 101.161 21.0959C100.185 20.7997 99.4363 20.3468 98.9485 19.7719C98.4607 19.1971 98.2342 18.4828 98.2342 17.6292C98.2342 16.7756 98.4955 16.0614 99.0181 15.3994C99.5407 14.7374 100.325 14.2148 101.335 13.8315C102.363 13.4309 103.582 13.2393 104.958 13.2393C106.892 13.2393 108.408 13.5702 109.488 14.2148C110.533 14.8419 111.021 15.6781 111.021 16.793C111.021 17.4724 110.777 18.0125 110.254 18.448C109.732 18.8835 109.035 19.1099 108.199 19.1099C107.363 19.1099 106.613 18.9009 106.091 18.5002C105.586 18.0996 105.342 17.5944 105.342 16.9498C105.342 16.462 105.499 16.0962 105.83 15.8175C106.161 15.5387 106.666 15.3645 107.293 15.3471C107.363 15.3471 107.45 15.3123 107.502 15.26C107.694 15.0684 107.728 14.8768 107.728 14.7548C107.728 14.5458 107.624 14.3542 107.432 14.2496C107.293 14.1625 107.101 14.1103 106.892 14.1103C106.352 14.1103 105.864 14.2322 105.411 14.4761C104.959 14.72 104.61 15.0684 104.331 15.4865C104.053 15.922 103.931 16.4098 103.931 16.9498C103.931 17.8731 104.244 18.6222 104.871 19.1796C105.464 19.7197 106.457 20.1726 107.868 20.5733C109.07 20.9042 109.958 21.3572 110.498 21.9495C111.038 22.5244 111.317 23.2212 111.317 24.0922C111.317 25.5032 110.742 26.5659 109.575 27.315C108.373 28.0815 106.613 28.4821 104.349 28.4821C102.241 28.4821 100.621 28.1686 99.5408 27.5414C98.513 26.9317 98.0078 26.0781 98.0078 24.9284H97.9903ZM157.481 13.2393C155.095 13.2393 153.231 13.9012 151.959 15.2078C150.67 16.5143 150.025 18.4131 150.025 20.8346C150.025 23.256 150.67 25.1722 151.959 26.4788C153.248 27.8027 155.112 28.4647 157.481 28.4647C159.85 28.4647 161.732 27.8027 163.003 26.4788C164.293 25.1548 164.937 23.256 164.937 20.8346C164.937 18.4131 164.293 16.5143 163.003 15.2078C161.714 13.9012 159.85 13.2393 157.481 13.2393ZM158.213 27.0188C158.213 27.8724 157.655 27.9421 157.481 27.9421C157.307 27.9421 156.75 27.8724 156.75 27.0188V14.7026C156.75 13.849 157.307 13.7793 157.481 13.7793C157.655 13.7793 158.213 13.849 158.213 14.7026V27.0188ZM134.416 16.3401L136.751 25.7471C136.751 25.7471 136.803 25.8691 136.855 25.9039C136.995 26.0259 137.169 26.0956 137.361 26.0956C137.552 26.0956 137.744 26.0259 137.866 25.8865C138.005 25.7471 138.075 25.5729 138.075 25.3813C138.075 25.2942 138.075 25.1897 138.04 25.0852C138.04 24.9981 138.005 24.8935 137.97 24.789L135.74 15.8523C135.619 15.3646 135.497 14.9987 135.392 14.7548C135.288 14.4935 135.166 14.2845 135.026 14.1103C134.887 13.9012 134.835 13.8315 134.8 13.7967C134.8 13.7793 134.782 13.7445 134.782 13.7096V13.6225H138.11C139.103 13.6225 139.869 13.8316 140.409 14.2496C140.932 14.6677 141.28 15.3646 141.472 16.3227L143.301 25.7471C143.301 25.7471 143.336 25.8691 143.388 25.9039C143.527 26.0433 143.719 26.1304 143.945 26.1304C144.364 26.1304 144.642 25.8517 144.642 25.3987C144.642 25.3116 144.642 25.2071 144.607 25.1026C144.607 25.0155 144.573 24.9284 144.555 24.8761L142.831 15.8523C142.674 15.0336 142.447 14.4587 142.151 14.0929C141.994 13.8838 141.96 13.8141 141.925 13.7793C141.925 13.7619 141.907 13.727 141.907 13.6922V13.6051H148.562C148.788 13.6051 148.945 13.6573 149.05 13.7444C149.102 13.7967 149.189 13.9012 149.189 14.1277C149.189 14.4935 148.963 15.6084 147.848 18.9009C146.959 21.5662 145.931 24.3012 144.816 27.0363C144.677 27.4021 144.468 27.6808 144.224 27.8376C143.963 27.9944 143.614 28.0815 143.179 28.0815H140.461C140.026 28.0815 139.677 27.9944 139.416 27.8376C139.172 27.6808 138.963 27.4021 138.824 27.0363C138.772 26.9143 138.667 26.8446 138.545 26.8446C138.423 26.8446 138.301 26.9143 138.266 27.0363C137.988 27.7505 137.413 28.0989 136.524 28.0989H133.615C132.727 28.0989 132.204 27.7679 131.978 27.0537L128.041 15.1032C127.953 14.8245 127.814 14.598 127.623 14.4064C127.448 14.2322 127.17 14.0232 126.769 13.7793V13.6225H131.037C131.995 13.6225 132.744 13.8315 133.249 14.2322C133.755 14.6503 134.138 15.3471 134.399 16.3401H134.416ZM89.0188 13.2393C86.6322 13.2393 84.7682 13.9012 83.4965 15.2078C82.2074 16.5143 81.5629 18.4131 81.5629 20.8346C81.5629 23.256 82.2249 25.1722 83.4965 26.4788C84.7857 27.8027 86.6496 28.4647 89.0188 28.4647C91.388 28.4647 93.2694 27.8027 94.5411 26.4788C95.8302 25.1548 96.4748 23.256 96.4748 20.8346C96.4748 18.4131 95.8302 16.5143 94.5411 15.2078C93.252 13.9012 91.388 13.2393 89.0188 13.2393ZM89.7679 27.0188C89.7679 27.8724 89.2104 27.9421 89.0362 27.9421C88.862 27.9421 88.3046 27.8724 88.3046 27.0188V14.7026C88.3046 13.849 88.862 13.7793 89.0362 13.7793C89.2104 13.7793 89.7679 13.849 89.7679 14.7026V27.0188ZM173.996 13.2393C171.609 13.2393 169.745 13.9012 168.473 15.2078C167.184 16.5143 166.54 18.4131 166.54 20.8346C166.54 23.256 167.184 25.1722 168.473 26.4788C169.763 27.8027 171.627 28.4647 173.996 28.4647C176.365 28.4647 178.246 27.8027 179.518 26.4788C180.807 25.1548 181.452 23.256 181.452 20.8346C181.452 18.4131 180.807 16.5143 179.518 15.2078C178.229 13.9012 176.365 13.2393 173.996 13.2393ZM174.727 27.0188C174.727 27.8724 174.17 27.9421 173.996 27.9421C173.822 27.9421 173.264 27.8724 173.264 27.0188V14.7026C173.264 13.849 173.822 13.7793 173.996 13.7793C174.17 13.7793 174.727 13.849 174.727 14.7026V27.0188ZM80.0125 27.0537C79.8383 26.7749 79.7685 26.3743 79.7685 25.8342V24.4058C79.7685 22.2108 78.6711 21.0785 76.4239 20.9739C76.2671 20.9739 76.1451 20.8346 76.1277 20.6778C76.1277 20.521 76.2322 20.3816 76.389 20.3642C77.2774 20.2249 78.0439 19.8416 78.6362 19.2319C79.2285 18.6222 79.5247 17.9602 79.5247 17.1937C79.5247 15.9743 79.1066 15.1033 78.2355 14.5284C77.3471 13.9361 75.9361 13.6225 74.0198 13.6225H65.6057V13.7967C65.6057 13.7967 65.6406 13.8141 65.6754 13.849C66.1632 14.1103 66.4767 14.389 66.651 14.6677C66.8252 14.9464 66.8949 15.3471 66.8949 15.8872V27.6111C66.8949 27.8899 66.9645 27.9944 66.9819 28.0118C66.9994 28.0292 67.0865 28.0989 67.3304 28.0989H71.9119C72.1558 28.0989 72.2429 28.0466 72.2603 28.0118C72.2952 27.977 72.3474 27.8899 72.3474 27.6111V21.2352C72.3474 21.061 72.4868 20.9391 72.6436 20.9391H72.9398C73.4798 20.9391 73.8108 21.2701 73.8108 21.8101V27.6111C73.8108 27.8899 73.8804 27.9944 73.8979 28.0118C73.9153 28.0292 74.0024 28.0989 74.2463 28.0989H81.0228V27.9247C81.0228 27.9247 80.988 27.8898 80.9531 27.8724C80.4654 27.6111 80.1518 27.3324 79.9776 27.0537H80.0125ZM73.8456 19.65C73.8456 20.19 73.5146 20.521 72.9746 20.521H72.6784C72.5042 20.521 72.3823 20.3816 72.3823 20.2248V14.5981C72.3823 14.5981 72.3997 14.4761 72.4519 14.4238C72.5565 14.2845 72.7655 14.1277 73.1314 14.1277C73.3752 14.1277 73.5669 14.2322 73.6888 14.4064C73.8108 14.5632 73.863 14.7548 73.863 14.9987V19.6674L73.8456 19.65Z" fill="#804524"/>
<path d="M53.0627 32.1059V32.0711C53.4111 30.3639 53.5853 28.6044 53.5853 26.7927C53.5853 24.9809 53.4111 23.2215 53.0627 21.5143V21.4794C53.0279 21.3226 52.993 21.1833 52.9582 21.0265L52.8711 20.6084C52.3136 18.2566 51.4426 16.0268 50.3103 13.9538L50.1535 13.6751C50.0838 13.5531 50.0316 13.4486 49.9619 13.3267C49.8922 13.1873 49.8051 13.0653 49.7354 12.9434C49.7354 12.926 49.7006 12.8911 49.6832 12.8737L49.4741 12.5253C48.8121 11.4801 48.0805 10.4871 47.2791 9.52899L47.0701 9.2851C47.0178 9.23284 46.9655 9.1806 46.9307 9.11091C46.861 9.04123 46.8088 8.97153 46.7391 8.90185C46.652 8.79733 46.5475 8.69282 46.4604 8.58829L46.1816 8.29215C44.997 7.0553 43.6905 5.92297 42.2795 4.91258L41.8265 4.599C41.7917 4.58158 41.7568 4.54675 41.722 4.52933C41.6175 4.45965 41.4955 4.38996 41.391 4.30285C41.2691 4.21575 41.1471 4.14607 41.0078 4.05897C41.0078 4.05897 41.0077 4.05897 40.9903 4.05897L40.7813 3.93704C38.6037 2.59566 36.2171 1.56786 33.6911 0.88846L33.5692 0.853612C33.4996 0.853612 33.4299 0.818773 33.3602 0.801352C33.2557 0.766511 33.1337 0.749086 33.0292 0.714245C32.8898 0.679404 32.7679 0.644558 32.6285 0.627137H32.5937C30.7297 0.209046 28.796 0 26.8101 0C24.8242 0 22.8905 0.226467 21.0265 0.627137H20.9917C20.8349 0.661978 20.6781 0.696832 20.5387 0.749093L19.8942 0.905871C8.44894 3.97187 0 14.4241 0 26.8101C0 31.4091 1.16716 35.7294 3.20536 39.5096V39.5444C3.2402 39.5967 3.27507 39.6489 3.29249 39.7186C3.29249 39.7186 3.29249 39.736 3.29249 39.7534C3.44927 40.0322 3.60604 40.2935 3.76282 40.5722C3.76282 40.5722 3.76284 40.5897 3.78026 40.6071C3.78026 40.6071 3.8325 40.7116 3.86734 40.7639L4.05899 41.06C4.73839 42.14 5.50487 43.1679 6.32363 44.1434L6.44559 44.2828C6.55011 44.4047 6.67206 44.5441 6.77658 44.666C6.794 44.6834 6.81142 44.7009 6.82884 44.7183C6.95078 44.8577 7.07271 44.997 7.19465 45.119C7.19465 45.119 7.19467 45.119 7.21209 45.1364L7.24691 45.1712C7.24691 45.1712 7.33404 45.2583 7.38631 45.3106L7.7173 45.659C9.30256 47.2617 11.0969 48.6553 13.048 49.8225L13.3092 49.9793C13.4138 50.049 13.5357 50.1012 13.6402 50.1709C13.6751 50.1883 13.7274 50.2232 13.7622 50.2406C13.8841 50.3103 13.9886 50.3625 14.1106 50.4322L14.4938 50.6412C15.9049 51.3729 17.3857 51.9652 18.9361 52.4355L19.3716 52.5575C19.4238 52.5575 19.4587 52.5749 19.5109 52.5924C19.6329 52.6272 19.7722 52.662 19.8942 52.6969C20.0335 52.7317 20.1555 52.7666 20.2949 52.8014L20.5735 52.871C22.5595 53.3414 24.6325 53.5853 26.7578 53.5853C29.1793 53.5853 31.5136 53.2543 33.7435 52.662L34.0396 52.5749C34.4925 52.453 34.9629 52.2962 35.3984 52.1569H35.4506V52.1394C36.8094 51.6691 38.1334 51.0942 39.3877 50.4148L39.9277 50.1186C40.0671 50.0315 40.2238 49.9444 40.3632 49.8747C40.3632 49.8747 40.398 49.8573 40.4155 49.8399C40.5548 49.7528 40.7116 49.6657 40.851 49.5786L41.0252 49.4741C46.9481 45.7287 51.3033 39.7361 52.9059 32.7156C52.9582 32.5066 52.993 32.3149 53.0453 32.1059H53.0627ZM32.3846 10.0342C32.4891 9.65095 32.5937 9.26768 32.6808 8.90185C32.855 8.18761 33.0292 7.43854 33.1511 6.70688C33.4124 5.27841 33.5692 3.83251 33.6215 2.40403C35.6597 2.97891 37.6108 3.79766 39.4051 4.84288C38.4296 5.55712 37.5063 6.30621 36.6178 7.10755C35.8687 7.78694 35.1545 8.53602 34.4751 9.25025C34.3009 9.44188 34.1092 9.63351 33.9176 9.82513L33.848 9.91224C33.4299 10.3478 32.977 10.8007 32.4892 11.0968C32.4195 11.1317 32.3846 11.1491 32.3672 11.1491C32.2975 11.0968 32.2453 10.9749 32.2453 10.8355C32.2453 10.5916 32.2975 10.3129 32.3846 10.0342ZM1.70722 23.1518C2.33436 22.5769 2.96149 21.9672 3.55379 21.3749L3.64087 21.2878C5.05192 19.8767 6.4804 18.4483 7.89146 17.0372C9.49414 15.4171 11.0968 13.7622 12.6995 12.1246C13.1525 11.6543 13.5879 11.2536 14.0409 10.9052C14.5461 10.5045 15.2952 9.9645 16.0443 9.91224C16.0791 9.91224 16.1313 9.91224 16.1662 9.91224C16.7759 9.91224 17.3856 10.2432 17.8908 10.8355C18.4134 11.4627 18.6747 12.2988 18.8315 12.9608L18.9012 13.2396H20.6084L20.5039 12.7866C19.9639 10.4349 18.8664 8.97155 17.2637 8.43152C16.9327 8.30957 16.5843 8.2573 16.2184 8.2573C14.5635 8.2573 13.1002 9.4593 12.0202 10.5045C11.4975 10.9923 10.9923 11.5149 10.522 12.0201C10.3303 12.2292 10.1387 12.4208 9.94711 12.6298C9.23288 13.3615 8.50118 14.1106 7.78694 14.8422C6.34105 16.323 4.86033 17.8037 3.39701 19.267C3.15312 19.5109 2.90921 19.7548 2.66533 19.9987C2.5608 20.1032 2.45629 20.2077 2.35177 20.3122C4.75579 11.3059 12.0027 4.25061 21.131 2.14273C23.4828 4.6687 24.6674 7.15981 24.7545 9.72061C24.7893 10.7833 24.6151 11.7936 24.2493 12.7343L24.0576 13.2396H25.8346L25.9216 12.9957C26.5662 11.1665 26.5836 9.00638 25.9391 6.89851C25.4165 5.17388 24.4409 3.44926 23.0298 1.77689C24.2667 1.58527 25.5384 1.49816 26.8275 1.49816C28.6044 1.49816 30.3464 1.68978 32.0362 2.03819C32.0014 3.37956 31.8795 4.70353 31.6704 5.97523C31.5485 6.68947 31.4091 7.4037 31.2349 8.11794C31.1652 8.37924 31.0955 8.64054 31.0258 8.90185C30.9039 9.33736 30.7646 9.7903 30.6949 10.2432C30.5555 11.1839 30.7819 11.9504 31.3742 12.4382C31.6878 12.6821 32.0188 12.8215 32.402 12.8215C32.8201 12.8215 33.273 12.6647 33.6911 12.3511C34.4925 11.7588 35.1719 11.0272 35.8339 10.3303C36.0952 10.0516 36.3739 9.75546 36.6526 9.47673C37.5411 8.58829 38.4818 7.75212 39.4399 6.98562C39.9277 6.60237 40.4503 6.2191 40.9729 5.85327C42.5233 6.8985 43.9344 8.10052 45.2061 9.45932C44.8751 9.84257 44.5616 10.2432 44.248 10.6265C43.3247 11.7588 42.3666 12.926 41.2342 13.8841C40.0671 14.8771 38.7257 15.6784 37.4714 16.3926L37.1404 16.5843L37.3494 16.9153C37.5062 17.1592 37.6456 17.4205 37.7501 17.6818L37.9069 18.065L38.2553 17.856C39.3006 17.2637 40.52 16.532 41.6349 15.6784C42.7324 14.8422 43.7427 13.8318 44.8577 12.5079C45.0493 12.264 45.2583 12.0201 45.4499 11.7762C45.7287 11.4278 46.0249 11.0794 46.3036 10.731C47.0352 11.602 47.6972 12.5427 48.3069 13.5008C47.9062 13.8318 47.4882 14.1803 47.1049 14.5461C45.7287 15.8352 44.4744 17.2637 43.2724 18.6573C42.262 19.8419 41.1994 21.0439 40.0845 22.1588C39.7709 22.4724 39.4399 22.7685 39.0567 23.1169L38.9347 23.2215V25.399L39.5444 24.8938C39.9277 24.5628 40.2761 24.2667 40.6071 23.9531C41.8962 22.7685 43.0285 21.4794 44.1608 20.1555L44.4744 19.7896C45.9377 18.1173 47.4359 16.3752 49.1431 14.9467C50.2232 16.9501 51.0245 19.1102 51.5297 21.3923C50.3974 22.0543 49.2302 22.8905 47.8714 24.0402C47.314 24.5106 46.7565 24.9984 46.2164 25.4861C44.8751 26.6707 43.4814 27.9076 41.9659 28.9005C41.0077 29.5277 40.1019 29.998 39.1786 30.329L38.9347 30.4161V32.1582L39.4225 32.0014C41.8613 31.1826 43.9518 29.5974 45.4848 28.3083C46.112 27.7856 46.7217 27.2456 47.3314 26.7055C48.6205 25.5732 49.9618 24.3886 51.3903 23.4131C51.5471 23.3086 51.7039 23.2041 51.8607 23.0995C52.0349 24.319 52.1394 25.5558 52.1394 26.8275C52.1394 28.7438 51.9304 30.6077 51.5297 32.3846C50.3451 33.6563 48.725 34.5099 47.1397 35.3287C46.1816 35.8339 45.1887 36.3391 44.3002 36.9488C42.6801 38.0637 41.513 39.4399 40.8162 41.0426C40.1193 42.6627 39.8232 44.3699 39.5967 46.4255C39.5096 47.2617 39.4573 48.0282 39.4225 48.7598C38.1856 49.4741 36.8966 50.0838 35.5378 50.589C35.5378 50.2406 35.5203 49.8922 35.4855 49.5612C35.3636 48.2721 35.0674 47.0526 34.7886 46.0248C34.7538 45.8855 34.7016 45.7287 34.6667 45.5893C34.4054 44.6486 34.1441 43.6731 34.0221 42.7149C33.935 41.9136 33.9524 41.1645 34.0744 40.5374L34.1615 40.1019H32.4717L32.4195 40.4154C32.1233 42.1923 32.524 44.0389 32.9421 45.6067C32.9943 45.7984 33.0466 45.99 33.0989 46.199C33.3602 47.1397 33.6215 48.1327 33.7608 49.1083C33.8479 49.7877 33.8828 50.4844 33.8654 51.1813C31.7923 51.791 29.6148 52.1394 27.3501 52.1917C27.5417 51.4078 27.6637 50.6412 27.7508 49.8747C27.9947 47.8017 27.9424 45.5893 27.594 42.7149C27.4895 41.8788 27.385 41.06 27.2804 40.4329L27.2282 40.1193H25.5558L25.6255 40.5374C26.1481 44.0912 26.6185 48.2024 25.6255 52.1569C24.1099 52.0872 22.6292 51.8955 21.1833 51.5645C22.1937 48.9514 22.3853 46.0074 21.7059 43.3072C21.4446 42.262 21.0439 41.2516 20.5039 40.3109L20.3994 40.1193H18.8141V40.4851C18.8141 40.6245 18.849 40.7638 18.9361 40.9032C20.6955 43.9169 20.9394 47.8191 19.5806 51.1639C17.9605 50.6761 16.3927 50.049 14.9293 49.2651C15.4345 47.314 15.5565 45.3977 15.2778 43.5685C14.9816 41.6349 14.128 39.9451 13.3963 38.6908C13.3266 38.5689 13.257 38.4643 13.1873 38.3424C12.4905 37.123 11.7588 35.8687 11.5324 34.4925C11.2885 33.064 11.724 31.5833 12.1421 30.1548L12.1943 29.998L12.2466 29.8412C12.6995 28.3082 13.1525 26.7404 12.9783 25.1029C12.8912 24.2667 12.6821 23.2215 11.8285 22.5943C11.4278 22.2982 10.9226 22.1588 10.3478 22.1588C10.0168 22.1588 9.68581 22.2111 9.35483 22.2982C7.61278 22.786 6.35848 24.2144 5.34809 25.5732C4.19834 27.1237 3.25767 28.796 2.43891 30.3639C2.29954 30.6252 2.17758 30.8691 2.03822 31.1304C1.96853 31.2697 1.89886 31.4091 1.82918 31.5484C1.55045 30.0329 1.39367 28.465 1.39367 26.8623C1.39367 25.6255 1.48076 24.3886 1.65496 23.2041L1.70722 23.1518ZM6.96818 39.6664C6.93334 40.4329 6.82885 41.2342 6.67206 42.2097C6.07977 41.4258 5.52229 40.6245 5.0171 39.7709C5.13904 39.5967 5.26097 39.4225 5.38291 39.2483C5.6268 38.8999 5.87071 38.5515 6.11459 38.2031C6.14944 38.1508 6.18427 38.0985 6.21911 38.0463C6.34106 37.8547 6.49782 37.663 6.63719 37.5759C6.63719 37.5759 6.72432 37.6107 6.77658 37.6804C6.93336 37.8372 6.96818 38.1508 6.96818 38.4121C6.9856 38.8476 6.96822 39.3005 6.95079 39.6664H6.96818ZM8.06568 43.8647C8.15278 43.4118 8.22249 42.9588 8.30959 42.5059C8.48379 41.3736 8.58832 40.4677 8.64058 39.6141V39.4399C8.69284 38.6037 8.7451 37.5411 8.20507 36.7746C7.83924 36.2345 7.24692 35.921 6.65462 35.921C6.25395 35.921 5.88812 36.0603 5.55713 36.3216C5.2784 36.5481 5.05194 36.8617 4.86032 37.123C4.82548 37.1753 4.79064 37.2101 4.7558 37.2623C4.54676 37.5411 4.35516 37.8024 4.12869 38.1334C3.44929 36.7746 2.87442 35.3461 2.43891 33.8479C2.66537 33.4647 2.90923 33.0466 3.17053 32.5414C3.29248 32.2975 3.43184 32.0536 3.55379 31.8097C4.23318 30.5206 4.92998 29.1967 5.7139 27.9424C6.56751 26.5836 7.52567 25.19 8.79736 24.3364C9.40707 23.9357 9.89485 23.7441 10.3826 23.7441C10.4175 23.7441 10.4523 23.7441 10.4871 23.7441C10.6788 23.7441 10.853 23.8138 10.9575 23.9357C11.1317 24.1099 11.2188 24.406 11.271 24.737C11.5672 26.1655 11.1317 27.7159 10.7659 28.9702C10.731 29.1096 10.6788 29.2663 10.6439 29.4057C10.2433 30.7993 9.82518 32.2278 9.8426 33.7085C9.87744 35.7467 10.853 37.4366 11.7762 39.0741C12.4034 40.1716 13.048 41.3039 13.3789 42.5059C13.8841 44.3176 13.9015 46.2513 13.4486 48.3243C11.4452 47.0875 9.61613 45.5719 8.04829 43.8299L8.06568 43.8647ZM41.1297 47.6798C41.1297 47.5056 41.1645 47.3313 41.1645 47.1571C41.3387 45.1886 41.5826 43.5685 42.1575 42.053C42.4537 41.269 42.8195 40.6071 43.2724 40.0322C43.7427 39.4573 44.3176 38.9173 45.0319 38.4121C45.9377 37.7675 46.9656 37.2449 47.9411 36.7223C48.4115 36.4784 48.9166 36.2171 49.387 35.9384C49.8573 35.6771 50.2928 35.3983 50.6935 35.137C48.8992 40.2587 45.5197 44.6312 41.1297 47.6449V47.6798ZM27.054 16.532C26.7926 16.0965 27.1062 15.539 27.6114 15.539H31.8968C34.7538 15.539 37.0707 17.856 37.0707 20.7129C37.0707 23.5699 34.7538 25.8868 31.8968 25.8868H28.5347C27.925 25.8868 27.4372 25.399 27.4546 24.7893L27.5243 18.7096C27.5243 17.7514 27.3675 17.0372 27.0714 16.5146L27.054 16.532ZM14.999 16.4972C14.999 16.4972 14.9468 16.3752 14.9468 16.2707V15.87C14.9468 15.6436 15.0861 15.539 15.3474 15.539H24.6674C25.1726 15.539 25.4861 16.0965 25.2248 16.532C24.9113 17.0546 24.7719 17.7863 24.7719 18.7444V36.914C24.7719 37.4888 24.3016 37.9766 23.7093 37.9766H17.9779C17.5772 37.9766 17.2811 37.8895 17.1243 37.7153C16.9501 37.5411 16.863 37.2275 16.863 36.8094V19.0406C16.8282 18.4831 16.7236 18.065 16.5669 17.7863C16.3578 17.4553 15.9397 17.1069 15.2778 16.7411C15.121 16.6539 15.0165 16.5843 14.999 16.5146V16.4972ZM37.0011 35.7293C37.2101 36.0603 37.6282 36.4087 38.2902 36.7746C38.4469 36.8617 38.5515 36.9314 38.5689 37.001C38.6037 37.0533 38.6212 37.123 38.6212 37.2275V37.6282C38.6212 37.8546 38.4818 37.9591 38.2205 37.9591H28.4999C27.9076 37.9591 27.4372 37.4888 27.4372 36.8965V28.4476C27.4372 27.8553 27.925 27.3675 28.5173 27.3675H31.7227C35.1022 27.5417 36.6875 29.1618 36.6875 32.4543V33.6215C36.6875 35.0325 36.8094 35.381 37.0011 35.7119V35.7293Z" fill="#804524"/>
</svg>
