<svg width="24" height="24" viewBox="0 0 24 24" fill="none" xmlns="http://www.w3.org/2000/svg">
<path d="M18.5 1H5.5C4.0418 1.00159 2.64377 1.58156 1.61267 2.61267C0.581561 3.64377 0.00158817 5.0418 0 6.5L0 17.5C0.00158817 18.9582 0.581561 20.3562 1.61267 21.3873C2.64377 22.4184 4.0418 22.9984 5.5 23H18.5C19.9582 22.9984 21.3562 22.4184 22.3873 21.3873C23.4184 20.3562 23.9984 18.9582 24 17.5V6.5C23.9984 5.0418 23.4184 3.64377 22.3873 2.61267C21.3562 1.58156 19.9582 1.00159 18.5 1ZM18.5 4C19.1065 4.00202 19.6911 4.22655 20.143 4.631L13.643 11.131C13.2015 11.5527 12.6145 11.788 12.004 11.788C11.3935 11.788 10.8065 11.5527 10.365 11.131L3.865 4.631C4.31485 4.22837 4.8963 4.00397 5.5 4H18.5ZM18.5 20H5.5C4.83696 20 4.20107 19.7366 3.73223 19.2678C3.26339 18.7989 3 18.163 3 17.5V8.017L8.239 13.256C8.73276 13.75 9.319 14.1418 9.96424 14.4092C10.6095 14.6765 11.3011 14.8141 11.9995 14.8141C12.6979 14.8141 13.3895 14.6765 14.0348 14.4092C14.68 14.1418 15.2662 13.75 15.76 13.256L21 8.017V17.5C21 18.163 20.7366 18.7989 20.2678 19.2678C19.7989 19.7366 19.163 20 18.5 20Z" fill="#804524"/>
</svg>
