<svg width="24" height="24" viewBox="0 0 24 24" fill="none" xmlns="http://www.w3.org/2000/svg">
<path d="M11.337 15.749C11.526 15.916 11.763 16 12 16C12.237 16 12.474 15.916 12.663 15.749C13.209 15.265 18 10.908 18 7C18 2.851 16.149 1 12 1C7.851 1 6 2.851 6 7C6 10.908 10.791 15.265 11.337 15.749ZM12 3C15.028 3 16 3.972 16 7C16 9.19 13.523 12.111 12 13.625C10.477 12.111 8 9.19 8 7C8 3.972 8.972 3 12 3ZM22.999 15.993C22.999 16.269 22.885 16.534 22.683 16.722C22.6 16.801 20.601 18.663 18.069 20.18C15.554 21.687 12.487 22.87 12.358 22.92C12.127 23.008 11.872 23.008 11.641 22.92C11.512 22.87 8.445 21.687 5.93 20.18C3.398 18.663 1.4 16.801 1.316 16.722C1.114 16.534 1 16.269 1 15.993C1 15.717 1.115 15.452 1.316 15.264C1.372 15.211 2.711 13.963 4.58 12.676C5.037 12.364 5.658 12.48 5.971 12.933C6.284 13.388 6.169 14.011 5.714 14.325C4.828 14.934 4.061 15.543 3.521 15.994C4.301 16.645 5.553 17.624 6.959 18.467C8.84 19.594 11.13 20.56 12.001 20.912C12.871 20.559 15.161 19.594 17.043 18.467C18.449 17.624 19.7 16.646 20.481 15.994C19.97 15.567 19.256 15 18.431 14.424C17.978 14.108 17.867 13.485 18.183 13.031C18.499 12.579 19.122 12.469 19.575 12.783C21.365 14.033 22.632 15.215 22.685 15.263C22.887 15.452 23.001 15.717 23.001 15.993H22.999ZM12 9C10.571 9 10 8.429 10 7C10 5.571 10.571 5 12 5C13.429 5 14 5.571 14 7C14 8.429 13.429 9 12 9Z" fill="#804524"/>
</svg>
