<svg width="24" height="24" viewBox="0 0 24 24" fill="none" xmlns="http://www.w3.org/2000/svg">
<g clip-path="url(#clip0_341_877)">
<path d="M22.1699 1.81994L21.1199 0.909942C19.9099 -0.300059 17.9499 -0.300059 16.7399 0.909942C16.7099 0.939942 14.8599 3.34994 14.8599 3.34994C13.7199 4.54994 13.7199 6.43994 14.8599 7.62994L16.0199 9.08994C14.5599 12.3999 12.2899 14.6799 9.08994 16.0399L7.62994 14.8699C6.43994 13.7199 4.53994 13.7199 3.34994 14.8699C3.34994 14.8699 0.939943 16.7199 0.909943 16.7499C-0.300057 17.9599 -0.300057 19.9199 0.859943 21.0799L1.85994 22.2299C3.00994 23.3799 4.55994 24.0099 6.23994 24.0099C13.8799 24.0099 23.9999 13.8799 23.9999 6.24994C23.9999 4.57994 23.3699 3.01994 22.1699 1.82994V1.81994ZM6.23994 21.9999C5.09994 21.9999 4.04994 21.5799 3.32994 20.8499L2.32994 19.6999C1.91994 19.2899 1.89994 18.6199 2.28994 18.1899C2.28994 18.1899 4.67994 16.3499 4.70994 16.3199C5.11994 15.9099 5.83994 15.9099 6.25994 16.3199C6.28994 16.3499 8.29994 17.9599 8.29994 17.9599C8.57994 18.1799 8.94994 18.2399 9.27994 18.1099C13.4199 16.5299 16.3899 13.5699 18.0999 9.29994C18.2299 8.96994 18.1799 8.58994 17.9499 8.29994C17.9499 8.29994 16.3399 6.27994 16.3199 6.25994C15.8899 5.82994 15.8899 5.13994 16.3199 4.70994C16.3499 4.67994 18.1899 2.28994 18.1899 2.28994C18.6199 1.89994 19.2899 1.90994 19.7499 2.36994L20.7999 3.27994C21.5699 4.04994 21.9999 5.09994 21.9999 6.23994C21.9999 13.1999 12.2299 21.9999 6.23994 21.9999Z" fill="#804524"/>
</g>
<defs>
<clipPath id="clip0_341_877">
<rect width="24" height="24" fill="white"/>
</clipPath>
</defs>
</svg>
